<?xml version="1.0" encoding="utf-8" standalone="no"?>
<!DOCTYPE svg PUBLIC "-//W3C//DTD SVG 1.1//EN"
  "http://www.w3.org/Graphics/SVG/1.1/DTD/svg11.dtd">
<svg xmlns:xlink="http://www.w3.org/1999/xlink" width="489.6pt" height="324pt" viewBox="0 0 489.6 324" xmlns="http://www.w3.org/2000/svg" version="1.1">
 <metadata>
  <rdf:RDF xmlns:dc="http://purl.org/dc/elements/1.1/" xmlns:cc="http://creativecommons.org/ns#" xmlns:rdf="http://www.w3.org/1999/02/22-rdf-syntax-ns#">
   <cc:Work>
    <dc:type rdf:resource="http://purl.org/dc/dcmitype/StillImage"/>
    <dc:format>image/svg+xml</dc:format>
    <dc:creator>
     <cc:Agent>
      <dc:title>Matplotlib v3.11.0, https://matplotlib.org/</dc:title>
     </cc:Agent>
    </dc:creator>
   </cc:Work>
  </rdf:RDF>
 </metadata>
 <defs>
  <style type="text/css">*{stroke-linejoin: round; stroke-linecap: butt}</style>
 </defs>
 <g id="figure_1">
  <g id="patch_1">
   <path d="M 0 324 
L 489.6 324 
L 489.6 0 
L 0 0 
z
" style="fill: #ffffff"/>
  </g>
  <g id="axes_1">
   <g id="patch_2">
    <path d="M 48.682344 279.637656 
L 478.8 279.637656 
L 478.8 10.8 
L 48.682344 10.8 
z
" style="fill: #ffffff"/>
   </g>
   <g id="matplotlib.axis_1">
    <g id="xtick_1">
     <g id="line2d_1">
      <path d="M 119.66891 279.637656 
L 119.66891 10.8 
" clip-path="url(#pdb47327342)" style="fill: none; stroke: #b0b0b0; stroke-opacity: 0.22; stroke-width: 0.8; stroke-linecap: square"/>
     </g>
     <g id="line2d_2">
      <defs>
       <path id="m306a1f64f1" d="M 0 0 
L 0 3.5 
" style="stroke: #000000; stroke-width: 0.8"/>
      </defs>
      <g>
       <use xlink:href="#m306a1f64f1" x="119.66891" y="279.637656" style="stroke: #000000; stroke-width: 0.8"/>
      </g>
     </g>
     <g id="text_1">
      <!-- $\mathdefault{10^{0}}$ -->
      <g transform="translate(110.86891 296.037656) scale(0.1 -0.1)">
       <defs>
        <path id="DejaVuSans-14" d="M 794 531 
L 1825 531 
L 1825 4091 
L 703 3866 
L 703 4441 
L 1819 4666 
L 2450 4666 
L 2450 531 
L 3481 531 
L 3481 0 
L 794 0 
L 794 531 
z
" transform="scale(0.015625)"/>
        <path id="DejaVuSans-13" d="M 2034 4250 
Q 1547 4250 1301 3770 
Q 1056 3291 1056 2328 
Q 1056 1369 1301 889 
Q 1547 409 2034 409 
Q 2525 409 2770 889 
Q 3016 1369 3016 2328 
Q 3016 3291 2770 3770 
Q 2525 4250 2034 4250 
z
M 2034 4750 
Q 2819 4750 3233 4129 
Q 3647 3509 3647 2328 
Q 3647 1150 3233 529 
Q 2819 -91 2034 -91 
Q 1250 -91 836 529 
Q 422 1150 422 2328 
Q 422 3509 836 4129 
Q 1250 4750 2034 4750 
z
" transform="scale(0.015625)"/>
       </defs>
       <use xlink:href="#DejaVuSans-14" transform="translate(0 0.746875)"/>
       <use xlink:href="#DejaVuSans-13" transform="translate(63.623047 0.746875)"/>
       <use xlink:href="#DejaVuSans-13" transform="translate(128.203125 42.046875) scale(0.7)"/>
      </g>
     </g>
    </g>
    <g id="xtick_2">
     <g id="line2d_3">
      <defs>
       <path id="m17bb9732bd" d="M 0 0 
L 0 2 
" style="stroke: #000000; stroke-width: 0.6"/>
      </defs>
      <g>
       <use xlink:href="#m17bb9732bd" x="71.02332" y="279.637656" style="stroke: #000000; stroke-width: 0.6"/>
      </g>
     </g>
    </g>
    <g id="xtick_3">
     <g id="line2d_4">
      <g>
       <use xlink:href="#m17bb9732bd" x="96.700178" y="279.637656" style="stroke: #000000; stroke-width: 0.6"/>
      </g>
     </g>
    </g>
    <g id="xtick_4">
     <g id="line2d_5">
      <g>
       <use xlink:href="#m17bb9732bd" x="270.775913" y="279.637656" style="stroke: #000000; stroke-width: 0.6"/>
      </g>
     </g>
     <g id="text_2">
      <!-- $\mathdefault{2\times10^{0}}$ -->
      <g transform="translate(252.675913 294.437656) scale(0.1 -0.1)">
       <defs>
        <path id="DejaVuSans-15" d="M 1228 531 
L 3431 531 
L 3431 0 
L 469 0 
L 469 531 
Q 828 903 1448 1529 
Q 2069 2156 2228 2338 
Q 2531 2678 2651 2914 
Q 2772 3150 2772 3378 
Q 2772 3750 2511 3984 
Q 2250 4219 1831 4219 
Q 1534 4219 1204 4116 
Q 875 4013 500 3803 
L 500 4441 
Q 881 4594 1212 4672 
Q 1544 4750 1819 4750 
Q 2544 4750 2975 4387 
Q 3406 4025 3406 3419 
Q 3406 3131 3298 2873 
Q 3191 2616 2906 2266 
Q 2828 2175 2409 1742 
Q 1991 1309 1228 531 
z
" transform="scale(0.015625)"/>
        <path id="DejaVuSans-99" d="M 4488 3438 
L 3059 2003 
L 4488 575 
L 4116 197 
L 2681 1631 
L 1247 197 
L 878 575 
L 2303 2003 
L 878 3438 
L 1247 3816 
L 2681 2381 
L 4116 3816 
L 4488 3438 
z
" transform="scale(0.015625)"/>
       </defs>
       <use xlink:href="#DejaVuSans-15" transform="translate(0 0.746875)"/>
       <use xlink:href="#DejaVuSans-99" transform="translate(83.105469 0.746875)"/>
       <use xlink:href="#DejaVuSans-14" transform="translate(186.376953 0.746875)"/>
       <use xlink:href="#DejaVuSans-13" transform="translate(250 0.746875)"/>
       <use xlink:href="#DejaVuSans-13" transform="translate(314.580078 42.046875) scale(0.7)"/>
      </g>
     </g>
    </g>
    <g id="xtick_5">
     <g id="line2d_6">
      <g>
       <use xlink:href="#m17bb9732bd" x="359.167844" y="279.637656" style="stroke: #000000; stroke-width: 0.6"/>
      </g>
     </g>
     <g id="text_3">
      <!-- $\mathdefault{3\times10^{0}}$ -->
      <g transform="translate(341.067844 294.437656) scale(0.1 -0.1)">
       <defs>
        <path id="DejaVuSans-16" d="M 2597 2516 
Q 3050 2419 3304 2112 
Q 3559 1806 3559 1356 
Q 3559 666 3084 287 
Q 2609 -91 1734 -91 
Q 1441 -91 1130 -33 
Q 819 25 488 141 
L 488 750 
Q 750 597 1062 519 
Q 1375 441 1716 441 
Q 2309 441 2620 675 
Q 2931 909 2931 1356 
Q 2931 1769 2642 2001 
Q 2353 2234 1838 2234 
L 1294 2234 
L 1294 2753 
L 1863 2753 
Q 2328 2753 2575 2939 
Q 2822 3125 2822 3475 
Q 2822 3834 2567 4026 
Q 2313 4219 1838 4219 
Q 1578 4219 1281 4162 
Q 984 4106 628 3988 
L 628 4550 
Q 988 4650 1302 4700 
Q 1616 4750 1894 4750 
Q 2613 4750 3031 4423 
Q 3450 4097 3450 3541 
Q 3450 3153 3228 2886 
Q 3006 2619 2597 2516 
z
" transform="scale(0.015625)"/>
       </defs>
       <use xlink:href="#DejaVuSans-16" transform="translate(0 0.746875)"/>
       <use xlink:href="#DejaVuSans-99" transform="translate(83.105469 0.746875)"/>
       <use xlink:href="#DejaVuSans-14" transform="translate(186.376953 0.746875)"/>
       <use xlink:href="#DejaVuSans-13" transform="translate(250 0.746875)"/>
       <use xlink:href="#DejaVuSans-13" transform="translate(314.580078 42.046875) scale(0.7)"/>
      </g>
     </g>
    </g>
    <g id="xtick_6">
     <g id="line2d_7">
      <g>
       <use xlink:href="#m17bb9732bd" x="421.882917" y="279.637656" style="stroke: #000000; stroke-width: 0.6"/>
      </g>
     </g>
     <g id="text_4">
      <!-- $\mathdefault{4\times10^{0}}$ -->
      <g transform="translate(403.782917 294.437656) scale(0.1 -0.1)">
       <defs>
        <path id="DejaVuSans-17" d="M 2419 4116 
L 825 1625 
L 2419 1625 
L 2419 4116 
z
M 2253 4666 
L 3047 4666 
L 3047 1625 
L 3713 1625 
L 3713 1100 
L 3047 1100 
L 3047 0 
L 2419 0 
L 2419 1100 
L 313 1100 
L 313 1709 
L 2253 4666 
z
" transform="scale(0.015625)"/>
       </defs>
       <use xlink:href="#DejaVuSans-17" transform="translate(0 0.746875)"/>
       <use xlink:href="#DejaVuSans-99" transform="translate(83.105469 0.746875)"/>
       <use xlink:href="#DejaVuSans-14" transform="translate(186.376953 0.746875)"/>
       <use xlink:href="#DejaVuSans-13" transform="translate(250 0.746875)"/>
       <use xlink:href="#DejaVuSans-13" transform="translate(314.580078 42.046875) scale(0.7)"/>
      </g>
     </g>
    </g>
    <g id="xtick_7">
     <g id="line2d_8">
      <g>
       <use xlink:href="#m17bb9732bd" x="470.528507" y="279.637656" style="stroke: #000000; stroke-width: 0.6"/>
      </g>
     </g>
    </g>
    <g id="text_5">
     <!-- $|\Delta|/2\pi$ (GHz) -->
     <g transform="translate(233.291172 310.14) scale(0.1 -0.1)">
      <defs>
       <path id="DejaVuSans-5f" d="M 1344 4891 
L 1344 -1509 
L 813 -1509 
L 813 4891 
L 1344 4891 
z
" transform="scale(0.015625)"/>
       <path id="DejaVuSans-329" d="M 2188 4044 
L 906 525 
L 3472 525 
L 2188 4044 
z
M 50 0 
L 1831 4666 
L 2547 4666 
L 4325 0 
L 50 0 
z
" transform="scale(0.015625)"/>
       <path id="DejaVuSans-12" d="M 1625 4666 
L 2156 4666 
L 531 -594 
L 0 -594 
L 1625 4666 
z
" transform="scale(0.015625)"/>
       <path id="DejaVuSans-Oblique-354" d="M 584 3500 
L 3938 3500 
L 3825 2925 
L 3384 2925 
L 2966 775 
Q 2922 550 2981 450 
Q 3038 353 3209 353 
Q 3256 353 3325 363 
Q 3397 369 3419 372 
L 3338 -44 
Q 3222 -84 3103 -103 
Q 2981 -122 2866 -122 
Q 2491 -122 2388 81 
Q 2284 288 2391 838 
L 2797 2925 
L 1506 2925 
L 938 0 
L 350 0 
L 919 2925 
L 472 2925 
L 584 3500 
z
" transform="scale(0.015625)"/>
       <path id="DejaVuSans-3" transform="scale(0.015625)"/>
       <path id="DejaVuSans-b" d="M 1984 4856 
Q 1566 4138 1362 3434 
Q 1159 2731 1159 2009 
Q 1159 1288 1364 580 
Q 1569 -128 1984 -844 
L 1484 -844 
Q 1016 -109 783 600 
Q 550 1309 550 2009 
Q 550 2706 781 3412 
Q 1013 4119 1484 4856 
L 1984 4856 
z
" transform="scale(0.015625)"/>
       <path id="DejaVuSans-2a" d="M 3809 666 
L 3809 1919 
L 2778 1919 
L 2778 2438 
L 4434 2438 
L 4434 434 
Q 4069 175 3628 42 
Q 3188 -91 2688 -91 
Q 1594 -91 976 548 
Q 359 1188 359 2328 
Q 359 3472 976 4111 
Q 1594 4750 2688 4750 
Q 3144 4750 3555 4637 
Q 3966 4525 4313 4306 
L 4313 3634 
Q 3963 3931 3569 4081 
Q 3175 4231 2741 4231 
Q 1884 4231 1454 3753 
Q 1025 3275 1025 2328 
Q 1025 1384 1454 906 
Q 1884 428 2741 428 
Q 3075 428 3337 486 
Q 3600 544 3809 666 
z
" transform="scale(0.015625)"/>
       <path id="DejaVuSans-2b" d="M 628 4666 
L 1259 4666 
L 1259 2753 
L 3553 2753 
L 3553 4666 
L 4184 4666 
L 4184 0 
L 3553 0 
L 3553 2222 
L 1259 2222 
L 1259 0 
L 628 0 
L 628 4666 
z
" transform="scale(0.015625)"/>
       <path id="DejaVuSans-5d" d="M 353 3500 
L 3084 3500 
L 3084 2975 
L 922 459 
L 3084 459 
L 3084 0 
L 275 0 
L 275 525 
L 2438 3041 
L 353 3041 
L 353 3500 
z
" transform="scale(0.015625)"/>
       <path id="DejaVuSans-c" d="M 513 4856 
L 1013 4856 
Q 1481 4119 1714 3412 
Q 1947 2706 1947 2009 
Q 1947 1309 1714 600 
Q 1481 -109 1013 -844 
L 513 -844 
Q 928 -128 1133 580 
Q 1338 1288 1338 2009 
Q 1338 2731 1133 3434 
Q 928 4138 513 4856 
z
" transform="scale(0.015625)"/>
      </defs>
      <use xlink:href="#DejaVuSans-5f" transform="translate(0 0.578125)"/>
      <use xlink:href="#DejaVuSans-329" transform="translate(33.691406 0.578125)"/>
      <use xlink:href="#DejaVuSans-5f" transform="translate(102.099609 0.578125)"/>
      <use xlink:href="#DejaVuSans-12" transform="translate(135.791016 0.578125)"/>
      <use xlink:href="#DejaVuSans-15" transform="translate(169.482422 0.578125)"/>
      <use xlink:href="#DejaVuSans-Oblique-354" transform="translate(233.105469 0.578125)"/>
      <use xlink:href="#DejaVuSans-3" transform="translate(293.310547 0.578125)"/>
      <use xlink:href="#DejaVuSans-b" transform="translate(325.097656 0.578125)"/>
      <use xlink:href="#DejaVuSans-2a" transform="translate(364.111328 0.578125)"/>
      <use xlink:href="#DejaVuSans-2b" transform="translate(441.601562 0.578125)"/>
      <use xlink:href="#DejaVuSans-5d" transform="translate(516.796875 0.578125)"/>
      <use xlink:href="#DejaVuSans-c" transform="translate(569.287109 0.578125)"/>
     </g>
    </g>
   </g>
   <g id="matplotlib.axis_2">
    <g id="ytick_1">
     <g id="line2d_9">
      <path d="M 48.682344 260.732201 
L 478.8 260.732201 
" clip-path="url(#pdb47327342)" style="fill: none; stroke: #b0b0b0; stroke-opacity: 0.22; stroke-width: 0.8; stroke-linecap: square"/>
     </g>
     <g id="line2d_10">
      <defs>
       <path id="m3d5d89d4bd" d="M 0 0 
L -3.5 0 
" style="stroke: #000000; stroke-width: 0.8"/>
      </defs>
      <g>
       <use xlink:href="#m3d5d89d4bd" x="48.682344" y="260.732201" style="stroke: #000000; stroke-width: 0.8"/>
      </g>
     </g>
     <g id="text_6">
      <!-- 10 -->
      <g transform="translate(28.957344 264.531029) scale(0.1 -0.1)">
       <use xlink:href="#DejaVuSans-14"/>
       <use xlink:href="#DejaVuSans-13" transform="translate(63.625 0)"/>
      </g>
     </g>
    </g>
    <g id="ytick_2">
     <g id="line2d_11">
      <path d="M 48.682344 223.592612 
L 478.8 223.592612 
" clip-path="url(#pdb47327342)" style="fill: none; stroke: #b0b0b0; stroke-opacity: 0.22; stroke-width: 0.8; stroke-linecap: square"/>
     </g>
     <g id="line2d_12">
      <g>
       <use xlink:href="#m3d5d89d4bd" x="48.682344" y="223.592612" style="stroke: #000000; stroke-width: 0.8"/>
      </g>
     </g>
     <g id="text_7">
      <!-- 20 -->
      <g transform="translate(28.957344 227.39144) scale(0.1 -0.1)">
       <use xlink:href="#DejaVuSans-15"/>
       <use xlink:href="#DejaVuSans-13" transform="translate(63.625 0)"/>
      </g>
     </g>
    </g>
    <g id="ytick_3">
     <g id="line2d_13">
      <path d="M 48.682344 186.453022 
L 478.8 186.453022 
" clip-path="url(#pdb47327342)" style="fill: none; stroke: #b0b0b0; stroke-opacity: 0.22; stroke-width: 0.8; stroke-linecap: square"/>
     </g>
     <g id="line2d_14">
      <g>
       <use xlink:href="#m3d5d89d4bd" x="48.682344" y="186.453022" style="stroke: #000000; stroke-width: 0.8"/>
      </g>
     </g>
     <g id="text_8">
      <!-- 30 -->
      <g transform="translate(28.957344 190.251851) scale(0.1 -0.1)">
       <use xlink:href="#DejaVuSans-16"/>
       <use xlink:href="#DejaVuSans-13" transform="translate(63.625 0)"/>
      </g>
     </g>
    </g>
    <g id="ytick_4">
     <g id="line2d_15">
      <path d="M 48.682344 149.313433 
L 478.8 149.313433 
" clip-path="url(#pdb47327342)" style="fill: none; stroke: #b0b0b0; stroke-opacity: 0.22; stroke-width: 0.8; stroke-linecap: square"/>
     </g>
     <g id="line2d_16">
      <g>
       <use xlink:href="#m3d5d89d4bd" x="48.682344" y="149.313433" style="stroke: #000000; stroke-width: 0.8"/>
      </g>
     </g>
     <g id="text_9">
      <!-- 40 -->
      <g transform="translate(28.957344 153.112261) scale(0.1 -0.1)">
       <use xlink:href="#DejaVuSans-17"/>
       <use xlink:href="#DejaVuSans-13" transform="translate(63.625 0)"/>
      </g>
     </g>
    </g>
    <g id="ytick_5">
     <g id="line2d_17">
      <path d="M 48.682344 112.173844 
L 478.8 112.173844 
" clip-path="url(#pdb47327342)" style="fill: none; stroke: #b0b0b0; stroke-opacity: 0.22; stroke-width: 0.8; stroke-linecap: square"/>
     </g>
     <g id="line2d_18">
      <g>
       <use xlink:href="#m3d5d89d4bd" x="48.682344" y="112.173844" style="stroke: #000000; stroke-width: 0.8"/>
      </g>
     </g>
     <g id="text_10">
      <!-- 50 -->
      <g transform="translate(28.957344 115.972672) scale(0.1 -0.1)">
       <defs>
        <path id="DejaVuSans-18" d="M 691 4666 
L 3169 4666 
L 3169 4134 
L 1269 4134 
L 1269 2991 
Q 1406 3038 1543 3061 
Q 1681 3084 1819 3084 
Q 2600 3084 3056 2656 
Q 3513 2228 3513 1497 
Q 3513 744 3044 326 
Q 2575 -91 1722 -91 
Q 1428 -91 1123 -41 
Q 819 9 494 109 
L 494 744 
Q 775 591 1075 516 
Q 1375 441 1709 441 
Q 2250 441 2565 725 
Q 2881 1009 2881 1497 
Q 2881 1984 2565 2268 
Q 2250 2553 1709 2553 
Q 1456 2553 1204 2497 
Q 953 2441 691 2322 
L 691 4666 
z
" transform="scale(0.015625)"/>
       </defs>
       <use xlink:href="#DejaVuSans-18"/>
       <use xlink:href="#DejaVuSans-13" transform="translate(63.625 0)"/>
      </g>
     </g>
    </g>
    <g id="ytick_6">
     <g id="line2d_19">
      <path d="M 48.682344 75.034255 
L 478.8 75.034255 
" clip-path="url(#pdb47327342)" style="fill: none; stroke: #b0b0b0; stroke-opacity: 0.22; stroke-width: 0.8; stroke-linecap: square"/>
     </g>
     <g id="line2d_20">
      <g>
       <use xlink:href="#m3d5d89d4bd" x="48.682344" y="75.034255" style="stroke: #000000; stroke-width: 0.8"/>
      </g>
     </g>
     <g id="text_11">
      <!-- 60 -->
      <g transform="translate(28.957344 78.833083) scale(0.1 -0.1)">
       <defs>
        <path id="DejaVuSans-19" d="M 2113 2584 
Q 1688 2584 1439 2293 
Q 1191 2003 1191 1497 
Q 1191 994 1439 701 
Q 1688 409 2113 409 
Q 2538 409 2786 701 
Q 3034 994 3034 1497 
Q 3034 2003 2786 2293 
Q 2538 2584 2113 2584 
z
M 3366 4563 
L 3366 3988 
Q 3128 4100 2886 4159 
Q 2644 4219 2406 4219 
Q 1781 4219 1451 3797 
Q 1122 3375 1075 2522 
Q 1259 2794 1537 2939 
Q 1816 3084 2150 3084 
Q 2853 3084 3261 2657 
Q 3669 2231 3669 1497 
Q 3669 778 3244 343 
Q 2819 -91 2113 -91 
Q 1303 -91 875 529 
Q 447 1150 447 2328 
Q 447 3434 972 4092 
Q 1497 4750 2381 4750 
Q 2619 4750 2861 4703 
Q 3103 4656 3366 4563 
z
" transform="scale(0.015625)"/>
       </defs>
       <use xlink:href="#DejaVuSans-19"/>
       <use xlink:href="#DejaVuSans-13" transform="translate(63.625 0)"/>
      </g>
     </g>
    </g>
    <g id="ytick_7">
     <g id="line2d_21">
      <path d="M 48.682344 37.894666 
L 478.8 37.894666 
" clip-path="url(#pdb47327342)" style="fill: none; stroke: #b0b0b0; stroke-opacity: 0.22; stroke-width: 0.8; stroke-linecap: square"/>
     </g>
     <g id="line2d_22">
      <g>
       <use xlink:href="#m3d5d89d4bd" x="48.682344" y="37.894666" style="stroke: #000000; stroke-width: 0.8"/>
      </g>
     </g>
     <g id="text_12">
      <!-- 70 -->
      <g transform="translate(28.957344 41.693494) scale(0.1 -0.1)">
       <defs>
        <path id="DejaVuSans-1a" d="M 525 4666 
L 3525 4666 
L 3525 4397 
L 1831 0 
L 1172 0 
L 2766 4134 
L 525 4134 
L 525 4666 
z
" transform="scale(0.015625)"/>
       </defs>
       <use xlink:href="#DejaVuSans-1a"/>
       <use xlink:href="#DejaVuSans-13" transform="translate(63.625 0)"/>
      </g>
     </g>
    </g>
    <g id="text_13">
     <!-- $\mathrm{SNR}_{\mathrm{total}}=\mathrm{SNR}_{\mathrm{shot}}\sqrt{N_{\max}}$ -->
     <g transform="translate(22.555 204.868828) rotate(-90) scale(0.1 -0.1)">
      <defs>
       <path id="DejaVuSans-36" d="M 3425 4513 
L 3425 3897 
Q 3066 4069 2747 4153 
Q 2428 4238 2131 4238 
Q 1616 4238 1336 4038 
Q 1056 3838 1056 3469 
Q 1056 3159 1242 3001 
Q 1428 2844 1947 2747 
L 2328 2669 
Q 3034 2534 3370 2195 
Q 3706 1856 3706 1288 
Q 3706 609 3251 259 
Q 2797 -91 1919 -91 
Q 1588 -91 1214 -16 
Q 841 59 441 206 
L 441 856 
Q 825 641 1194 531 
Q 1563 422 1919 422 
Q 2459 422 2753 634 
Q 3047 847 3047 1241 
Q 3047 1584 2836 1778 
Q 2625 1972 2144 2069 
L 1759 2144 
Q 1053 2284 737 2584 
Q 422 2884 422 3419 
Q 422 4038 858 4394 
Q 1294 4750 2059 4750 
Q 2388 4750 2728 4690 
Q 3069 4631 3425 4513 
z
" transform="scale(0.015625)"/>
       <path id="DejaVuSans-31" d="M 628 4666 
L 1478 4666 
L 3547 763 
L 3547 4666 
L 4159 4666 
L 4159 0 
L 3309 0 
L 1241 3903 
L 1241 0 
L 628 0 
L 628 4666 
z
" transform="scale(0.015625)"/>
       <path id="DejaVuSans-35" d="M 2841 2188 
Q 3044 2119 3236 1894 
Q 3428 1669 3622 1275 
L 4263 0 
L 3584 0 
L 2988 1197 
Q 2756 1666 2539 1819 
Q 2322 1972 1947 1972 
L 1259 1972 
L 1259 0 
L 628 0 
L 628 4666 
L 2053 4666 
Q 2853 4666 3247 4331 
Q 3641 3997 3641 3322 
Q 3641 2881 3436 2590 
Q 3231 2300 2841 2188 
z
M 1259 4147 
L 1259 2491 
L 2053 2491 
Q 2509 2491 2742 2702 
Q 2975 2913 2975 3322 
Q 2975 3731 2742 3939 
Q 2509 4147 2053 4147 
L 1259 4147 
z
" transform="scale(0.015625)"/>
       <path id="DejaVuSans-57" d="M 1172 4494 
L 1172 3500 
L 2356 3500 
L 2356 3053 
L 1172 3053 
L 1172 1153 
Q 1172 725 1289 603 
Q 1406 481 1766 481 
L 2356 481 
L 2356 0 
L 1766 0 
Q 1100 0 847 248 
Q 594 497 594 1153 
L 594 3053 
L 172 3053 
L 172 3500 
L 594 3500 
L 594 4494 
L 1172 4494 
z
" transform="scale(0.015625)"/>
       <path id="DejaVuSans-52" d="M 1959 3097 
Q 1497 3097 1228 2736 
Q 959 2375 959 1747 
Q 959 1119 1226 758 
Q 1494 397 1959 397 
Q 2419 397 2687 759 
Q 2956 1122 2956 1747 
Q 2956 2369 2687 2733 
Q 2419 3097 1959 3097 
z
M 1959 3584 
Q 2709 3584 3137 3096 
Q 3566 2609 3566 1747 
Q 3566 888 3137 398 
Q 2709 -91 1959 -91 
Q 1206 -91 779 398 
Q 353 888 353 1747 
Q 353 2609 779 3096 
Q 1206 3584 1959 3584 
z
" transform="scale(0.015625)"/>
       <path id="DejaVuSans-44" d="M 2194 1759 
Q 1497 1759 1228 1600 
Q 959 1441 959 1056 
Q 959 750 1161 570 
Q 1363 391 1709 391 
Q 2188 391 2477 730 
Q 2766 1069 2766 1631 
L 2766 1759 
L 2194 1759 
z
M 3341 1997 
L 3341 0 
L 2766 0 
L 2766 531 
Q 2569 213 2275 61 
Q 1981 -91 1556 -91 
Q 1019 -91 701 211 
Q 384 513 384 1019 
Q 384 1609 779 1909 
Q 1175 2209 1959 2209 
L 2766 2209 
L 2766 2266 
Q 2766 2663 2505 2880 
Q 2244 3097 1772 3097 
Q 1472 3097 1187 3025 
Q 903 2953 641 2809 
L 641 3341 
Q 956 3463 1253 3523 
Q 1550 3584 1831 3584 
Q 2591 3584 2966 3190 
Q 3341 2797 3341 1997 
z
" transform="scale(0.015625)"/>
       <path id="DejaVuSans-4f" d="M 603 4863 
L 1178 4863 
L 1178 0 
L 603 0 
L 603 4863 
z
" transform="scale(0.015625)"/>
       <path id="DejaVuSans-20" d="M 678 2906 
L 4684 2906 
L 4684 2381 
L 678 2381 
L 678 2906 
z
M 678 1631 
L 4684 1631 
L 4684 1100 
L 678 1100 
L 678 1631 
z
" transform="scale(0.015625)"/>
       <path id="DejaVuSans-56" d="M 2834 3397 
L 2834 2853 
Q 2591 2978 2328 3040 
Q 2066 3103 1784 3103 
Q 1356 3103 1142 2972 
Q 928 2841 928 2578 
Q 928 2378 1081 2264 
Q 1234 2150 1697 2047 
L 1894 2003 
Q 2506 1872 2764 1633 
Q 3022 1394 3022 966 
Q 3022 478 2636 193 
Q 2250 -91 1575 -91 
Q 1294 -91 989 -36 
Q 684 19 347 128 
L 347 722 
Q 666 556 975 473 
Q 1284 391 1588 391 
Q 1994 391 2212 530 
Q 2431 669 2431 922 
Q 2431 1156 2273 1281 
Q 2116 1406 1581 1522 
L 1381 1569 
Q 847 1681 609 1914 
Q 372 2147 372 2553 
Q 372 3047 722 3315 
Q 1072 3584 1716 3584 
Q 2034 3584 2315 3537 
Q 2597 3491 2834 3397 
z
" transform="scale(0.015625)"/>
       <path id="DejaVuSans-4b" d="M 3513 2113 
L 3513 0 
L 2938 0 
L 2938 2094 
Q 2938 2591 2744 2837 
Q 2550 3084 2163 3084 
Q 1697 3084 1428 2787 
Q 1159 2491 1159 1978 
L 1159 0 
L 581 0 
L 581 4863 
L 1159 4863 
L 1159 2956 
Q 1366 3272 1645 3428 
Q 1925 3584 2291 3584 
Q 2894 3584 3203 3211 
Q 3513 2838 3513 2113 
z
" transform="scale(0.015625)"/>
       <path id="STIXSizeOneSym-Regular-26" d="M 6970 9933 
L 3373 -1888 
L 3104 -1888 
L 1626 2918 
Q 1555 3149 1465 3251 
Q 1376 3354 1229 3354 
Q 1011 3354 794 3181 
L 717 3309 
L 1766 4115 
L 1926 4115 
L 3379 -602 
L 3405 -602 
L 6605 9933 
L 6970 9933 
z
" transform="scale(0.015625)"/>
       <path id="DejaVuSans-Oblique-31" d="M 1081 4666 
L 1931 4666 
L 3219 666 
L 4000 4666 
L 4616 4666 
L 3706 0 
L 2853 0 
L 1569 4025 
L 788 0 
L 172 0 
L 1081 4666 
z
" transform="scale(0.015625)"/>
       <path id="DejaVuSans-50" d="M 3328 2828 
Q 3544 3216 3844 3400 
Q 4144 3584 4550 3584 
Q 5097 3584 5394 3201 
Q 5691 2819 5691 2113 
L 5691 0 
L 5113 0 
L 5113 2094 
Q 5113 2597 4934 2840 
Q 4756 3084 4391 3084 
Q 3944 3084 3684 2787 
Q 3425 2491 3425 1978 
L 3425 0 
L 2847 0 
L 2847 2094 
Q 2847 2600 2669 2842 
Q 2491 3084 2119 3084 
Q 1678 3084 1418 2786 
Q 1159 2488 1159 1978 
L 1159 0 
L 581 0 
L 581 3500 
L 1159 3500 
L 1159 2956 
Q 1356 3278 1631 3431 
Q 1906 3584 2284 3584 
Q 2666 3584 2933 3390 
Q 3200 3197 3328 2828 
z
" transform="scale(0.015625)"/>
       <path id="DejaVuSans-5b" d="M 3513 3500 
L 2247 1797 
L 3578 0 
L 2900 0 
L 1881 1375 
L 863 0 
L 184 0 
L 1544 1831 
L 300 3500 
L 978 3500 
L 1906 2253 
L 2834 3500 
L 3513 3500 
z
" transform="scale(0.015625)"/>
      </defs>
      <use xlink:href="#DejaVuSans-36" transform="translate(0 0.854639)"/>
      <use xlink:href="#DejaVuSans-31" transform="translate(63.476562 0.854639)"/>
      <use xlink:href="#DejaVuSans-35" transform="translate(138.28125 0.854639)"/>
      <use xlink:href="#DejaVuSans-57" transform="translate(208.720703 -14.145313) scale(0.7)"/>
      <use xlink:href="#DejaVuSans-52" transform="translate(236.166992 -14.145313) scale(0.7)"/>
      <use xlink:href="#DejaVuSans-57" transform="translate(278.994141 -14.145313) scale(0.7)"/>
      <use xlink:href="#DejaVuSans-44" transform="translate(306.44043 -14.145313) scale(0.7)"/>
      <use xlink:href="#DejaVuSans-4f" transform="translate(349.335938 -14.145313) scale(0.7)"/>
      <use xlink:href="#DejaVuSans-20" transform="translate(391.000977 0.854639)"/>
      <use xlink:href="#DejaVuSans-36" transform="translate(494.272461 0.854639)"/>
      <use xlink:href="#DejaVuSans-31" transform="translate(557.749023 0.854639)"/>
      <use xlink:href="#DejaVuSans-35" transform="translate(632.553711 0.854639)"/>
      <use xlink:href="#DejaVuSans-56" transform="translate(702.993164 -14.145313) scale(0.7)"/>
      <use xlink:href="#DejaVuSans-4b" transform="translate(739.462891 -14.145313) scale(0.7)"/>
      <use xlink:href="#DejaVuSans-52" transform="translate(783.828125 -14.145313) scale(0.7)"/>
      <use xlink:href="#DejaVuSans-57" transform="translate(826.655273 -14.145313) scale(0.7)"/>
      <use xlink:href="#STIXSizeOneSym-Regular-26" transform="translate(856.835938 4.046875) scale(0.650512)"/>
      <use xlink:href="#DejaVuSans-Oblique-31" transform="translate(938.090393 0.84375)"/>
      <use xlink:href="#DejaVuSans-50" transform="translate(1012.895081 -14.156201) scale(0.7)"/>
      <use xlink:href="#DejaVuSans-44" transform="translate(1081.083557 -14.156201) scale(0.7)"/>
      <use xlink:href="#DejaVuSans-5b" transform="translate(1123.979065 -14.156201) scale(0.7)"/>
      <path d="M 925.590393 104.75 
L 925.590393 111 
L 1192.004195 111 
L 1192.004195 104.75 
L 925.590393 104.75 
z
"/>
     </g>
    </g>
   </g>
   <g id="line2d_23">
    <path d="M 56.953837 35.93736 
L 410.70324 35.889943 
L 470.528507 35.889131 
L 470.528507 35.889131 
" clip-path="url(#pdb47327342)" style="fill: none; stroke: #1769aa; stroke-width: 2.2; stroke-linecap: square"/>
   </g>
   <g id="line2d_24">
    <path d="M 56.953837 29.389963 
L 402.899944 29.341507 
L 470.528507 29.340528 
L 470.528507 29.340528 
" clip-path="url(#pdb47327342)" style="fill: none; stroke-dasharray: 7.4,3.2; stroke-dashoffset: 0; stroke: #1769aa; stroke-width: 2"/>
   </g>
   <g id="line2d_25">
    <path d="M 56.953837 180.090405 
L 72.560428 181.894887 
L 88.16702 183.900362 
L 103.773611 186.10873 
L 119.380202 188.519264 
L 134.986794 191.128139 
L 153.194483 194.4126 
L 171.402173 197.939138 
L 189.609863 201.683186 
L 210.418652 206.188704 
L 233.828539 211.481122 
L 267.64282 219.374215 
L 322.265889 232.130069 
L 348.276875 237.963831 
L 371.686762 242.986902 
L 392.49555 247.235895 
L 413.304339 251.260727 
L 434.113127 255.049268 
L 454.921915 258.595996 
L 470.528507 261.097128 
L 470.528507 261.097128 
" clip-path="url(#pdb47327342)" style="fill: none; stroke: #3f8c4d; stroke-width: 2.2; stroke-linecap: square"/>
   </g>
   <g id="line2d_26">
    <path d="M 56.953837 164.549908 
L 114.178005 164.164885 
L 192.210962 163.879192 
L 309.260397 163.69913 
L 470.528507 163.626898 
L 470.528507 163.626898 
" clip-path="url(#pdb47327342)" style="fill: none; stroke-dasharray: 7.4,3.2; stroke-dashoffset: 0; stroke: #3f8c4d; stroke-width: 2"/>
   </g>
   <g id="patch_3">
    <path d="M 48.682344 279.637656 
L 48.682344 10.8 
" style="fill: none; stroke: #000000; stroke-width: 0.8; stroke-linejoin: miter; stroke-linecap: square"/>
   </g>
   <g id="patch_4">
    <path d="M 478.8 279.637656 
L 478.8 10.8 
" style="fill: none; stroke: #000000; stroke-width: 0.8; stroke-linejoin: miter; stroke-linecap: square"/>
   </g>
   <g id="patch_5">
    <path d="M 48.682344 279.637656 
L 478.8 279.637656 
" style="fill: none; stroke: #000000; stroke-width: 0.8; stroke-linejoin: miter; stroke-linecap: square"/>
   </g>
   <g id="patch_6">
    <path d="M 48.682344 10.8 
L 478.8 10.8 
" style="fill: none; stroke: #000000; stroke-width: 0.8; stroke-linejoin: miter; stroke-linecap: square"/>
   </g>
   <g id="legend_1">
    <g id="line2d_27">
     <path d="M 57.682344 219.732969 
L 67.682344 219.732969 
L 77.682344 219.732969 
" style="fill: none; stroke: #1769aa; stroke-width: 2.2; stroke-linecap: square"/>
    </g>
    <g id="text_14">
     <!-- PCI (realistic) -->
     <g transform="translate(85.682344 223.232969) scale(0.1 -0.1)">
      <defs>
       <path id="DejaVuSans-33" d="M 1259 4147 
L 1259 2394 
L 2053 2394 
Q 2494 2394 2734 2622 
Q 2975 2850 2975 3272 
Q 2975 3691 2734 3919 
Q 2494 4147 2053 4147 
L 1259 4147 
z
M 628 4666 
L 2053 4666 
Q 2838 4666 3239 4311 
Q 3641 3956 3641 3272 
Q 3641 2581 3239 2228 
Q 2838 1875 2053 1875 
L 1259 1875 
L 1259 0 
L 628 0 
L 628 4666 
z
" transform="scale(0.015625)"/>
       <path id="DejaVuSans-26" d="M 4122 4306 
L 4122 3641 
Q 3803 3938 3442 4084 
Q 3081 4231 2675 4231 
Q 1875 4231 1450 3742 
Q 1025 3253 1025 2328 
Q 1025 1406 1450 917 
Q 1875 428 2675 428 
Q 3081 428 3442 575 
Q 3803 722 4122 1019 
L 4122 359 
Q 3791 134 3420 21 
Q 3050 -91 2638 -91 
Q 1578 -91 968 557 
Q 359 1206 359 2328 
Q 359 3453 968 4101 
Q 1578 4750 2638 4750 
Q 3056 4750 3426 4639 
Q 3797 4528 4122 4306 
z
" transform="scale(0.015625)"/>
       <path id="DejaVuSans-2c" d="M 628 4666 
L 1259 4666 
L 1259 0 
L 628 0 
L 628 4666 
z
" transform="scale(0.015625)"/>
       <path id="DejaVuSans-55" d="M 2631 2963 
Q 2534 3019 2420 3045 
Q 2306 3072 2169 3072 
Q 1681 3072 1420 2755 
Q 1159 2438 1159 1844 
L 1159 0 
L 581 0 
L 581 3500 
L 1159 3500 
L 1159 2956 
Q 1341 3275 1631 3429 
Q 1922 3584 2338 3584 
Q 2397 3584 2469 3576 
Q 2541 3569 2628 3553 
L 2631 2963 
z
" transform="scale(0.015625)"/>
       <path id="DejaVuSans-48" d="M 3597 1894 
L 3597 1613 
L 953 1613 
Q 991 1019 1311 708 
Q 1631 397 2203 397 
Q 2534 397 2845 478 
Q 3156 559 3463 722 
L 3463 178 
Q 3153 47 2828 -22 
Q 2503 -91 2169 -91 
Q 1331 -91 842 396 
Q 353 884 353 1716 
Q 353 2575 817 3079 
Q 1281 3584 2069 3584 
Q 2775 3584 3186 3129 
Q 3597 2675 3597 1894 
z
M 3022 2063 
Q 3016 2534 2758 2815 
Q 2500 3097 2075 3097 
Q 1594 3097 1305 2825 
Q 1016 2553 972 2059 
L 3022 2063 
z
" transform="scale(0.015625)"/>
       <path id="DejaVuSans-4c" d="M 603 3500 
L 1178 3500 
L 1178 0 
L 603 0 
L 603 3500 
z
M 603 4863 
L 1178 4863 
L 1178 4134 
L 603 4134 
L 603 4863 
z
" transform="scale(0.015625)"/>
       <path id="DejaVuSans-46" d="M 3122 3366 
L 3122 2828 
Q 2878 2963 2633 3030 
Q 2388 3097 2138 3097 
Q 1578 3097 1268 2742 
Q 959 2388 959 1747 
Q 959 1106 1268 751 
Q 1578 397 2138 397 
Q 2388 397 2633 464 
Q 2878 531 3122 666 
L 3122 134 
Q 2881 22 2623 -34 
Q 2366 -91 2075 -91 
Q 1284 -91 818 406 
Q 353 903 353 1747 
Q 353 2603 823 3093 
Q 1294 3584 2113 3584 
Q 2378 3584 2631 3529 
Q 2884 3475 3122 3366 
z
" transform="scale(0.015625)"/>
      </defs>
      <use xlink:href="#DejaVuSans-33"/>
      <use xlink:href="#DejaVuSans-26" transform="translate(60.296875 0)"/>
      <use xlink:href="#DejaVuSans-2c" transform="translate(130.125 0)"/>
      <use xlink:href="#DejaVuSans-3" transform="translate(159.625 0)"/>
      <use xlink:href="#DejaVuSans-b" transform="translate(191.40625 0)"/>
      <use xlink:href="#DejaVuSans-55" transform="translate(230.421875 0)"/>
      <use xlink:href="#DejaVuSans-48" transform="translate(269.328125 0)"/>
      <use xlink:href="#DejaVuSans-44" transform="translate(330.859375 0)"/>
      <use xlink:href="#DejaVuSans-4f" transform="translate(392.140625 0)"/>
      <use xlink:href="#DejaVuSans-4c" transform="translate(419.921875 0)"/>
      <use xlink:href="#DejaVuSans-56" transform="translate(447.703125 0)"/>
      <use xlink:href="#DejaVuSans-57" transform="translate(499.796875 0)"/>
      <use xlink:href="#DejaVuSans-4c" transform="translate(539 0)"/>
      <use xlink:href="#DejaVuSans-46" transform="translate(566.78125 0)"/>
      <use xlink:href="#DejaVuSans-c" transform="translate(621.765625 0)"/>
     </g>
    </g>
    <g id="line2d_28">
     <path d="M 57.682344 234.73375 
L 67.682344 234.73375 
L 77.682344 234.73375 
" style="fill: none; stroke-dasharray: 7.4,3.2; stroke-dashoffset: 0; stroke: #1769aa; stroke-width: 2"/>
    </g>
    <g id="text_15">
     <!-- PCI (shot-noise limit) -->
     <g transform="translate(85.682344 238.23375) scale(0.1 -0.1)">
      <defs>
       <path id="DejaVuSans-10" d="M 313 2009 
L 1997 2009 
L 1997 1497 
L 313 1497 
L 313 2009 
z
" transform="scale(0.015625)"/>
       <path id="DejaVuSans-51" d="M 3513 2113 
L 3513 0 
L 2938 0 
L 2938 2094 
Q 2938 2591 2744 2837 
Q 2550 3084 2163 3084 
Q 1697 3084 1428 2787 
Q 1159 2491 1159 1978 
L 1159 0 
L 581 0 
L 581 3500 
L 1159 3500 
L 1159 2956 
Q 1366 3272 1645 3428 
Q 1925 3584 2291 3584 
Q 2894 3584 3203 3211 
Q 3513 2838 3513 2113 
z
" transform="scale(0.015625)"/>
      </defs>
      <use xlink:href="#DejaVuSans-33"/>
      <use xlink:href="#DejaVuSans-26" transform="translate(60.296875 0)"/>
      <use xlink:href="#DejaVuSans-2c" transform="translate(130.125 0)"/>
      <use xlink:href="#DejaVuSans-3" transform="translate(159.625 0)"/>
      <use xlink:href="#DejaVuSans-b" transform="translate(191.40625 0)"/>
      <use xlink:href="#DejaVuSans-56" transform="translate(230.421875 0)"/>
      <use xlink:href="#DejaVuSans-4b" transform="translate(282.515625 0)"/>
      <use xlink:href="#DejaVuSans-52" transform="translate(345.890625 0)"/>
      <use xlink:href="#DejaVuSans-57" transform="translate(407.078125 0)"/>
      <use xlink:href="#DejaVuSans-10" transform="translate(446.28125 0)"/>
      <use xlink:href="#DejaVuSans-51" transform="translate(482.359375 0)"/>
      <use xlink:href="#DejaVuSans-52" transform="translate(545.734375 0)"/>
      <use xlink:href="#DejaVuSans-4c" transform="translate(606.921875 0)"/>
      <use xlink:href="#DejaVuSans-56" transform="translate(634.703125 0)"/>
      <use xlink:href="#DejaVuSans-48" transform="translate(686.796875 0)"/>
      <use xlink:href="#DejaVuSans-3" transform="translate(748.328125 0)"/>
      <use xlink:href="#DejaVuSans-4f" transform="translate(780.109375 0)"/>
      <use xlink:href="#DejaVuSans-4c" transform="translate(807.890625 0)"/>
      <use xlink:href="#DejaVuSans-50" transform="translate(835.671875 0)"/>
      <use xlink:href="#DejaVuSans-4c" transform="translate(933.078125 0)"/>
      <use xlink:href="#DejaVuSans-57" transform="translate(960.859375 0)"/>
      <use xlink:href="#DejaVuSans-c" transform="translate(1000.0625 0)"/>
     </g>
    </g>
    <g id="line2d_29">
     <path d="M 57.682344 249.734531 
L 67.682344 249.734531 
L 77.682344 249.734531 
" style="fill: none; stroke: #3f8c4d; stroke-width: 2.2; stroke-linecap: square"/>
    </g>
    <g id="text_16">
     <!-- DGI (realistic) -->
     <g transform="translate(85.682344 253.234531) scale(0.1 -0.1)">
      <defs>
       <path id="DejaVuSans-27" d="M 1259 4147 
L 1259 519 
L 2022 519 
Q 2988 519 3436 956 
Q 3884 1394 3884 2338 
Q 3884 3275 3436 3711 
Q 2988 4147 2022 4147 
L 1259 4147 
z
M 628 4666 
L 1925 4666 
Q 3281 4666 3915 4102 
Q 4550 3538 4550 2338 
Q 4550 1131 3912 565 
Q 3275 0 1925 0 
L 628 0 
L 628 4666 
z
" transform="scale(0.015625)"/>
      </defs>
      <use xlink:href="#DejaVuSans-27"/>
      <use xlink:href="#DejaVuSans-2a" transform="translate(77 0)"/>
      <use xlink:href="#DejaVuSans-2c" transform="translate(154.484375 0)"/>
      <use xlink:href="#DejaVuSans-3" transform="translate(183.984375 0)"/>
      <use xlink:href="#DejaVuSans-b" transform="translate(215.765625 0)"/>
      <use xlink:href="#DejaVuSans-55" transform="translate(254.78125 0)"/>
      <use xlink:href="#DejaVuSans-48" transform="translate(293.6875 0)"/>
      <use xlink:href="#DejaVuSans-44" transform="translate(355.21875 0)"/>
      <use xlink:href="#DejaVuSans-4f" transform="translate(416.5 0)"/>
      <use xlink:href="#DejaVuSans-4c" transform="translate(444.28125 0)"/>
      <use xlink:href="#DejaVuSans-56" transform="translate(472.0625 0)"/>
      <use xlink:href="#DejaVuSans-57" transform="translate(524.15625 0)"/>
      <use xlink:href="#DejaVuSans-4c" transform="translate(563.359375 0)"/>
      <use xlink:href="#DejaVuSans-46" transform="translate(591.140625 0)"/>
      <use xlink:href="#DejaVuSans-c" transform="translate(646.125 0)"/>
     </g>
    </g>
    <g id="line2d_30">
     <path d="M 57.682344 264.735313 
L 67.682344 264.735313 
L 77.682344 264.735313 
" style="fill: none; stroke-dasharray: 7.4,3.2; stroke-dashoffset: 0; stroke: #3f8c4d; stroke-width: 2"/>
    </g>
    <g id="text_17">
     <!-- DGI (shot-noise limit) -->
     <g transform="translate(85.682344 268.235313) scale(0.1 -0.1)">
      <use xlink:href="#DejaVuSans-27"/>
      <use xlink:href="#DejaVuSans-2a" transform="translate(77 0)"/>
      <use xlink:href="#DejaVuSans-2c" transform="translate(154.484375 0)"/>
      <use xlink:href="#DejaVuSans-3" transform="translate(183.984375 0)"/>
      <use xlink:href="#DejaVuSans-b" transform="translate(215.765625 0)"/>
      <use xlink:href="#DejaVuSans-56" transform="translate(254.78125 0)"/>
      <use xlink:href="#DejaVuSans-4b" transform="translate(306.875 0)"/>
      <use xlink:href="#DejaVuSans-52" transform="translate(370.25 0)"/>
      <use xlink:href="#DejaVuSans-57" transform="translate(431.4375 0)"/>
      <use xlink:href="#DejaVuSans-10" transform="translate(470.640625 0)"/>
      <use xlink:href="#DejaVuSans-51" transform="translate(506.71875 0)"/>
      <use xlink:href="#DejaVuSans-52" transform="translate(570.09375 0)"/>
      <use xlink:href="#DejaVuSans-4c" transform="translate(631.28125 0)"/>
      <use xlink:href="#DejaVuSans-56" transform="translate(659.0625 0)"/>
      <use xlink:href="#DejaVuSans-48" transform="translate(711.15625 0)"/>
      <use xlink:href="#DejaVuSans-3" transform="translate(772.6875 0)"/>
      <use xlink:href="#DejaVuSans-4f" transform="translate(804.46875 0)"/>
      <use xlink:href="#DejaVuSans-4c" transform="translate(832.25 0)"/>
      <use xlink:href="#DejaVuSans-50" transform="translate(860.03125 0)"/>
      <use xlink:href="#DejaVuSans-4c" transform="translate(957.4375 0)"/>
      <use xlink:href="#DejaVuSans-57" transform="translate(985.21875 0)"/>
      <use xlink:href="#DejaVuSans-c" transform="translate(1024.421875 0)"/>
     </g>
    </g>
   </g>
  </g>
 </g>
 <defs>
  <clipPath id="pdb47327342">
   <rect x="48.682344" y="10.8" width="430.117656" height="268.837656"/>
  </clipPath>
 </defs>
</svg>
