<?xml version="1.0" encoding="utf-8" standalone="no"?>
<!DOCTYPE svg PUBLIC "-//W3C//DTD SVG 1.1//EN"
  "http://www.w3.org/Graphics/SVG/1.1/DTD/svg11.dtd">
<svg xmlns:xlink="http://www.w3.org/1999/xlink" width="526.79952pt" height="425.99952pt" viewBox="0 0 526.79952 425.99952" xmlns="http://www.w3.org/2000/svg" version="1.1">
 <metadata>
  <rdf:RDF xmlns:dc="http://purl.org/dc/elements/1.1/" xmlns:cc="http://creativecommons.org/ns#" xmlns:rdf="http://www.w3.org/1999/02/22-rdf-syntax-ns#">
   <cc:Work>
    <dc:type rdf:resource="http://purl.org/dc/dcmitype/StillImage"/>
    <dc:date>2026-07-10T16:56:35.540030</dc:date>
    <dc:format>image/svg+xml</dc:format>
    <dc:creator>
     <cc:Agent>
      <dc:title>Matplotlib v3.11.0, https://matplotlib.org/</dc:title>
     </cc:Agent>
    </dc:creator>
   </cc:Work>
  </rdf:RDF>
 </metadata>
 <defs>
  <style type="text/css">*{stroke-linejoin: round; stroke-linecap: butt}</style>
 </defs>
 <g id="figure_1">
  <g id="patch_1">
   <path d="M 0 425.99952 
L 526.79952 425.99952 
L 526.79952 0 
L 0 0 
z
" style="fill: #ffffff"/>
  </g>
  <g id="axes_1">
   <g id="patch_2">
    <path d="M 51.700781 201.047905 
L 519.59952 201.047905 
L 519.59952 40.819582 
L 51.700781 40.819582 
z
" style="fill: #ffffff"/>
   </g>
   <g id="matplotlib.axis_1">
    <g id="xtick_1">
     <g id="line2d_1">
      <path d="M 201.015774 201.047905 
L 201.015774 40.819582 
" clip-path="url(#p97fb436db7)" style="fill: none; stroke: #b0b0b0; stroke-opacity: 0.25; stroke-width: 0.8; stroke-linecap: square"/>
     </g>
     <g id="line2d_2">
      <defs>
       <path id="mf2ed05c81e" d="M 0 0 
L 0 3.5 
" style="stroke: #000000; stroke-width: 0.8"/>
      </defs>
      <g>
       <use xlink:href="#mf2ed05c81e" x="201.015774" y="201.047905" style="stroke: #000000; stroke-width: 0.8"/>
      </g>
     </g>
    </g>
    <g id="xtick_2">
     <g id="line2d_3">
      <path d="M 72.968906 201.047905 
L 72.968906 40.819582 
" clip-path="url(#p97fb436db7)" style="fill: none; stroke: #b0b0b0; stroke-opacity: 0.25; stroke-width: 0.8; stroke-linecap: square"/>
     </g>
     <g id="line2d_4">
      <defs>
       <path id="m08ffd1d0ee" d="M 0 0 
L 0 2 
" style="stroke: #000000; stroke-width: 0.6"/>
      </defs>
      <g>
       <use xlink:href="#m08ffd1d0ee" x="72.968906" y="201.047905" style="stroke: #000000; stroke-width: 0.6"/>
      </g>
     </g>
    </g>
    <g id="xtick_3">
     <g id="line2d_5">
      <path d="M 106.649638 201.047905 
L 106.649638 40.819582 
" clip-path="url(#p97fb436db7)" style="fill: none; stroke: #b0b0b0; stroke-opacity: 0.25; stroke-width: 0.8; stroke-linecap: square"/>
     </g>
     <g id="line2d_6">
      <g>
       <use xlink:href="#m08ffd1d0ee" x="106.649638" y="201.047905" style="stroke: #000000; stroke-width: 0.6"/>
      </g>
     </g>
    </g>
    <g id="xtick_4">
     <g id="line2d_7">
      <path d="M 135.126291 201.047905 
L 135.126291 40.819582 
" clip-path="url(#p97fb436db7)" style="fill: none; stroke: #b0b0b0; stroke-opacity: 0.25; stroke-width: 0.8; stroke-linecap: square"/>
     </g>
     <g id="line2d_8">
      <g>
       <use xlink:href="#m08ffd1d0ee" x="135.126291" y="201.047905" style="stroke: #000000; stroke-width: 0.6"/>
      </g>
     </g>
    </g>
    <g id="xtick_5">
     <g id="line2d_9">
      <path d="M 159.79389 201.047905 
L 159.79389 40.819582 
" clip-path="url(#p97fb436db7)" style="fill: none; stroke: #b0b0b0; stroke-opacity: 0.25; stroke-width: 0.8; stroke-linecap: square"/>
     </g>
     <g id="line2d_10">
      <g>
       <use xlink:href="#m08ffd1d0ee" x="159.79389" y="201.047905" style="stroke: #000000; stroke-width: 0.6"/>
      </g>
     </g>
    </g>
    <g id="xtick_6">
     <g id="line2d_11">
      <path d="M 181.552254 201.047905 
L 181.552254 40.819582 
" clip-path="url(#p97fb436db7)" style="fill: none; stroke: #b0b0b0; stroke-opacity: 0.25; stroke-width: 0.8; stroke-linecap: square"/>
     </g>
     <g id="line2d_12">
      <g>
       <use xlink:href="#m08ffd1d0ee" x="181.552254" y="201.047905" style="stroke: #000000; stroke-width: 0.6"/>
      </g>
     </g>
    </g>
    <g id="xtick_7">
     <g id="line2d_13">
      <path d="M 329.062643 201.047905 
L 329.062643 40.819582 
" clip-path="url(#p97fb436db7)" style="fill: none; stroke: #b0b0b0; stroke-opacity: 0.25; stroke-width: 0.8; stroke-linecap: square"/>
     </g>
     <g id="line2d_14">
      <g>
       <use xlink:href="#m08ffd1d0ee" x="329.062643" y="201.047905" style="stroke: #000000; stroke-width: 0.6"/>
      </g>
     </g>
    </g>
    <g id="xtick_8">
     <g id="line2d_15">
      <path d="M 403.965259 201.047905 
L 403.965259 40.819582 
" clip-path="url(#p97fb436db7)" style="fill: none; stroke: #b0b0b0; stroke-opacity: 0.25; stroke-width: 0.8; stroke-linecap: square"/>
     </g>
     <g id="line2d_16">
      <g>
       <use xlink:href="#m08ffd1d0ee" x="403.965259" y="201.047905" style="stroke: #000000; stroke-width: 0.6"/>
      </g>
     </g>
    </g>
    <g id="xtick_9">
     <g id="line2d_17">
      <path d="M 457.109511 201.047905 
L 457.109511 40.819582 
" clip-path="url(#p97fb436db7)" style="fill: none; stroke: #b0b0b0; stroke-opacity: 0.25; stroke-width: 0.8; stroke-linecap: square"/>
     </g>
     <g id="line2d_18">
      <g>
       <use xlink:href="#m08ffd1d0ee" x="457.109511" y="201.047905" style="stroke: #000000; stroke-width: 0.6"/>
      </g>
     </g>
    </g>
    <g id="xtick_10">
     <g id="line2d_19">
      <path d="M 498.331396 201.047905 
L 498.331396 40.819582 
" clip-path="url(#p97fb436db7)" style="fill: none; stroke: #b0b0b0; stroke-opacity: 0.25; stroke-width: 0.8; stroke-linecap: square"/>
     </g>
     <g id="line2d_20">
      <g>
       <use xlink:href="#m08ffd1d0ee" x="498.331396" y="201.047905" style="stroke: #000000; stroke-width: 0.6"/>
      </g>
     </g>
    </g>
   </g>
   <g id="matplotlib.axis_2">
    <g id="ytick_1">
     <g id="line2d_21">
      <path d="M 51.700781 193.792043 
L 519.59952 193.792043 
" clip-path="url(#p97fb436db7)" style="fill: none; stroke: #b0b0b0; stroke-opacity: 0.25; stroke-width: 0.8; stroke-linecap: square"/>
     </g>
     <g id="line2d_22">
      <defs>
       <path id="m504bc962d8" d="M 0 0 
L -3.5 0 
" style="stroke: #000000; stroke-width: 0.8"/>
      </defs>
      <g>
       <use xlink:href="#m504bc962d8" x="51.700781" y="193.792043" style="stroke: #000000; stroke-width: 0.8"/>
      </g>
     </g>
     <g id="text_1">
      <!-- $\mathdefault{10^{-2}}$ -->
      <g transform="translate(21.200781 198.492043) scale(0.1 -0.1)">
       <defs>
        <path id="DejaVuSans-14" d="M 794 531 
L 1825 531 
L 1825 4091 
L 703 3866 
L 703 4441 
L 1819 4666 
L 2450 4666 
L 2450 531 
L 3481 531 
L 3481 0 
L 794 0 
L 794 531 
z
" transform="scale(0.015625)"/>
        <path id="DejaVuSans-13" d="M 2034 4250 
Q 1547 4250 1301 3770 
Q 1056 3291 1056 2328 
Q 1056 1369 1301 889 
Q 1547 409 2034 409 
Q 2525 409 2770 889 
Q 3016 1369 3016 2328 
Q 3016 3291 2770 3770 
Q 2525 4250 2034 4250 
z
M 2034 4750 
Q 2819 4750 3233 4129 
Q 3647 3509 3647 2328 
Q 3647 1150 3233 529 
Q 2819 -91 2034 -91 
Q 1250 -91 836 529 
Q 422 1150 422 2328 
Q 422 3509 836 4129 
Q 1250 4750 2034 4750 
z
" transform="scale(0.015625)"/>
        <path id="DejaVuSans-c9c" d="M 678 2272 
L 4684 2272 
L 4684 1741 
L 678 1741 
L 678 2272 
z
" transform="scale(0.015625)"/>
        <path id="DejaVuSans-15" d="M 1228 531 
L 3431 531 
L 3431 0 
L 469 0 
L 469 531 
Q 828 903 1448 1529 
Q 2069 2156 2228 2338 
Q 2531 2678 2651 2914 
Q 2772 3150 2772 3378 
Q 2772 3750 2511 3984 
Q 2250 4219 1831 4219 
Q 1534 4219 1204 4116 
Q 875 4013 500 3803 
L 500 4441 
Q 881 4594 1212 4672 
Q 1544 4750 1819 4750 
Q 2544 4750 2975 4387 
Q 3406 4025 3406 3419 
Q 3406 3131 3298 2873 
Q 3191 2616 2906 2266 
Q 2828 2175 2409 1742 
Q 1991 1309 1228 531 
z
" transform="scale(0.015625)"/>
       </defs>
       <use xlink:href="#DejaVuSans-14" transform="translate(0 0.746875)"/>
       <use xlink:href="#DejaVuSans-13" transform="translate(63.623047 0.746875)"/>
       <use xlink:href="#DejaVuSans-c9c" transform="translate(128.203125 42.046875) scale(0.7)"/>
       <use xlink:href="#DejaVuSans-15" transform="translate(186.855469 42.046875) scale(0.7)"/>
      </g>
     </g>
    </g>
    <g id="ytick_2">
     <g id="line2d_23">
      <path d="M 51.700781 120.947365 
L 519.59952 120.947365 
" clip-path="url(#p97fb436db7)" style="fill: none; stroke: #b0b0b0; stroke-opacity: 0.25; stroke-width: 0.8; stroke-linecap: square"/>
     </g>
     <g id="line2d_24">
      <g>
       <use xlink:href="#m504bc962d8" x="51.700781" y="120.947365" style="stroke: #000000; stroke-width: 0.8"/>
      </g>
     </g>
     <g id="text_2">
      <!-- $\mathdefault{10^{-1}}$ -->
      <g transform="translate(21.200781 125.597365) scale(0.1 -0.1)">
       <use xlink:href="#DejaVuSans-14" transform="translate(0 0.665625)"/>
       <use xlink:href="#DejaVuSans-13" transform="translate(63.623047 0.665625)"/>
       <use xlink:href="#DejaVuSans-c9c" transform="translate(128.203125 41.965625) scale(0.7)"/>
       <use xlink:href="#DejaVuSans-14" transform="translate(186.855469 41.965625) scale(0.7)"/>
      </g>
     </g>
    </g>
    <g id="ytick_3">
     <g id="line2d_25">
      <path d="M 51.700781 48.102687 
L 519.59952 48.102687 
" clip-path="url(#p97fb436db7)" style="fill: none; stroke: #b0b0b0; stroke-opacity: 0.25; stroke-width: 0.8; stroke-linecap: square"/>
     </g>
     <g id="line2d_26">
      <g>
       <use xlink:href="#m504bc962d8" x="51.700781" y="48.102687" style="stroke: #000000; stroke-width: 0.8"/>
      </g>
     </g>
     <g id="text_3">
      <!-- $\mathdefault{10^{0}}$ -->
      <g transform="translate(27.100781 52.802687) scale(0.1 -0.1)">
       <use xlink:href="#DejaVuSans-14" transform="translate(0 0.746875)"/>
       <use xlink:href="#DejaVuSans-13" transform="translate(63.623047 0.746875)"/>
       <use xlink:href="#DejaVuSans-13" transform="translate(128.203125 42.046875) scale(0.7)"/>
      </g>
     </g>
    </g>
    <g id="ytick_4">
     <g id="line2d_27">
      <path d="M 51.700781 200.851422 
L 519.59952 200.851422 
" clip-path="url(#p97fb436db7)" style="fill: none; stroke: #b0b0b0; stroke-opacity: 0.25; stroke-width: 0.8; stroke-linecap: square"/>
     </g>
     <g id="line2d_28">
      <defs>
       <path id="m539cce206d" d="M 0 0 
L -2 0 
" style="stroke: #000000; stroke-width: 0.6"/>
      </defs>
      <g>
       <use xlink:href="#m539cce206d" x="51.700781" y="200.851422" style="stroke: #000000; stroke-width: 0.6"/>
      </g>
     </g>
    </g>
    <g id="ytick_5">
     <g id="line2d_29">
      <path d="M 51.700781 197.125233 
L 519.59952 197.125233 
" clip-path="url(#p97fb436db7)" style="fill: none; stroke: #b0b0b0; stroke-opacity: 0.25; stroke-width: 0.8; stroke-linecap: square"/>
     </g>
     <g id="line2d_30">
      <g>
       <use xlink:href="#m539cce206d" x="51.700781" y="197.125233" style="stroke: #000000; stroke-width: 0.6"/>
      </g>
     </g>
    </g>
    <g id="ytick_6">
     <g id="line2d_31">
      <path d="M 51.700781 171.86361 
L 519.59952 171.86361 
" clip-path="url(#p97fb436db7)" style="fill: none; stroke: #b0b0b0; stroke-opacity: 0.25; stroke-width: 0.8; stroke-linecap: square"/>
     </g>
     <g id="line2d_32">
      <g>
       <use xlink:href="#m539cce206d" x="51.700781" y="171.86361" style="stroke: #000000; stroke-width: 0.6"/>
      </g>
     </g>
    </g>
    <g id="ytick_7">
     <g id="line2d_33">
      <path d="M 51.700781 159.036299 
L 519.59952 159.036299 
" clip-path="url(#p97fb436db7)" style="fill: none; stroke: #b0b0b0; stroke-opacity: 0.25; stroke-width: 0.8; stroke-linecap: square"/>
     </g>
     <g id="line2d_34">
      <g>
       <use xlink:href="#m539cce206d" x="51.700781" y="159.036299" style="stroke: #000000; stroke-width: 0.6"/>
      </g>
     </g>
    </g>
    <g id="ytick_8">
     <g id="line2d_35">
      <path d="M 51.700781 149.935177 
L 519.59952 149.935177 
" clip-path="url(#p97fb436db7)" style="fill: none; stroke: #b0b0b0; stroke-opacity: 0.25; stroke-width: 0.8; stroke-linecap: square"/>
     </g>
     <g id="line2d_36">
      <g>
       <use xlink:href="#m539cce206d" x="51.700781" y="149.935177" style="stroke: #000000; stroke-width: 0.6"/>
      </g>
     </g>
    </g>
    <g id="ytick_9">
     <g id="line2d_37">
      <path d="M 51.700781 142.875798 
L 519.59952 142.875798 
" clip-path="url(#p97fb436db7)" style="fill: none; stroke: #b0b0b0; stroke-opacity: 0.25; stroke-width: 0.8; stroke-linecap: square"/>
     </g>
     <g id="line2d_38">
      <g>
       <use xlink:href="#m539cce206d" x="51.700781" y="142.875798" style="stroke: #000000; stroke-width: 0.6"/>
      </g>
     </g>
    </g>
    <g id="ytick_10">
     <g id="line2d_39">
      <path d="M 51.700781 137.107866 
L 519.59952 137.107866 
" clip-path="url(#p97fb436db7)" style="fill: none; stroke: #b0b0b0; stroke-opacity: 0.25; stroke-width: 0.8; stroke-linecap: square"/>
     </g>
     <g id="line2d_40">
      <g>
       <use xlink:href="#m539cce206d" x="51.700781" y="137.107866" style="stroke: #000000; stroke-width: 0.6"/>
      </g>
     </g>
    </g>
    <g id="ytick_11">
     <g id="line2d_41">
      <path d="M 51.700781 132.231148 
L 519.59952 132.231148 
" clip-path="url(#p97fb436db7)" style="fill: none; stroke: #b0b0b0; stroke-opacity: 0.25; stroke-width: 0.8; stroke-linecap: square"/>
     </g>
     <g id="line2d_42">
      <g>
       <use xlink:href="#m539cce206d" x="51.700781" y="132.231148" style="stroke: #000000; stroke-width: 0.6"/>
      </g>
     </g>
    </g>
    <g id="ytick_12">
     <g id="line2d_43">
      <path d="M 51.700781 128.006744 
L 519.59952 128.006744 
" clip-path="url(#p97fb436db7)" style="fill: none; stroke: #b0b0b0; stroke-opacity: 0.25; stroke-width: 0.8; stroke-linecap: square"/>
     </g>
     <g id="line2d_44">
      <g>
       <use xlink:href="#m539cce206d" x="51.700781" y="128.006744" style="stroke: #000000; stroke-width: 0.6"/>
      </g>
     </g>
    </g>
    <g id="ytick_13">
     <g id="line2d_45">
      <path d="M 51.700781 124.280555 
L 519.59952 124.280555 
" clip-path="url(#p97fb436db7)" style="fill: none; stroke: #b0b0b0; stroke-opacity: 0.25; stroke-width: 0.8; stroke-linecap: square"/>
     </g>
     <g id="line2d_46">
      <g>
       <use xlink:href="#m539cce206d" x="51.700781" y="124.280555" style="stroke: #000000; stroke-width: 0.6"/>
      </g>
     </g>
    </g>
    <g id="ytick_14">
     <g id="line2d_47">
      <path d="M 51.700781 99.018932 
L 519.59952 99.018932 
" clip-path="url(#p97fb436db7)" style="fill: none; stroke: #b0b0b0; stroke-opacity: 0.25; stroke-width: 0.8; stroke-linecap: square"/>
     </g>
     <g id="line2d_48">
      <g>
       <use xlink:href="#m539cce206d" x="51.700781" y="99.018932" style="stroke: #000000; stroke-width: 0.6"/>
      </g>
     </g>
    </g>
    <g id="ytick_15">
     <g id="line2d_49">
      <path d="M 51.700781 86.191621 
L 519.59952 86.191621 
" clip-path="url(#p97fb436db7)" style="fill: none; stroke: #b0b0b0; stroke-opacity: 0.25; stroke-width: 0.8; stroke-linecap: square"/>
     </g>
     <g id="line2d_50">
      <g>
       <use xlink:href="#m539cce206d" x="51.700781" y="86.191621" style="stroke: #000000; stroke-width: 0.6"/>
      </g>
     </g>
    </g>
    <g id="ytick_16">
     <g id="line2d_51">
      <path d="M 51.700781 77.090499 
L 519.59952 77.090499 
" clip-path="url(#p97fb436db7)" style="fill: none; stroke: #b0b0b0; stroke-opacity: 0.25; stroke-width: 0.8; stroke-linecap: square"/>
     </g>
     <g id="line2d_52">
      <g>
       <use xlink:href="#m539cce206d" x="51.700781" y="77.090499" style="stroke: #000000; stroke-width: 0.6"/>
      </g>
     </g>
    </g>
    <g id="ytick_17">
     <g id="line2d_53">
      <path d="M 51.700781 70.03112 
L 519.59952 70.03112 
" clip-path="url(#p97fb436db7)" style="fill: none; stroke: #b0b0b0; stroke-opacity: 0.25; stroke-width: 0.8; stroke-linecap: square"/>
     </g>
     <g id="line2d_54">
      <g>
       <use xlink:href="#m539cce206d" x="51.700781" y="70.03112" style="stroke: #000000; stroke-width: 0.6"/>
      </g>
     </g>
    </g>
    <g id="ytick_18">
     <g id="line2d_55">
      <path d="M 51.700781 64.263188 
L 519.59952 64.263188 
" clip-path="url(#p97fb436db7)" style="fill: none; stroke: #b0b0b0; stroke-opacity: 0.25; stroke-width: 0.8; stroke-linecap: square"/>
     </g>
     <g id="line2d_56">
      <g>
       <use xlink:href="#m539cce206d" x="51.700781" y="64.263188" style="stroke: #000000; stroke-width: 0.6"/>
      </g>
     </g>
    </g>
    <g id="ytick_19">
     <g id="line2d_57">
      <path d="M 51.700781 59.386471 
L 519.59952 59.386471 
" clip-path="url(#p97fb436db7)" style="fill: none; stroke: #b0b0b0; stroke-opacity: 0.25; stroke-width: 0.8; stroke-linecap: square"/>
     </g>
     <g id="line2d_58">
      <g>
       <use xlink:href="#m539cce206d" x="51.700781" y="59.386471" style="stroke: #000000; stroke-width: 0.6"/>
      </g>
     </g>
    </g>
    <g id="ytick_20">
     <g id="line2d_59">
      <path d="M 51.700781 55.162066 
L 519.59952 55.162066 
" clip-path="url(#p97fb436db7)" style="fill: none; stroke: #b0b0b0; stroke-opacity: 0.25; stroke-width: 0.8; stroke-linecap: square"/>
     </g>
     <g id="line2d_60">
      <g>
       <use xlink:href="#m539cce206d" x="51.700781" y="55.162066" style="stroke: #000000; stroke-width: 0.6"/>
      </g>
     </g>
    </g>
    <g id="ytick_21">
     <g id="line2d_61">
      <path d="M 51.700781 51.435877 
L 519.59952 51.435877 
" clip-path="url(#p97fb436db7)" style="fill: none; stroke: #b0b0b0; stroke-opacity: 0.25; stroke-width: 0.8; stroke-linecap: square"/>
     </g>
     <g id="line2d_62">
      <g>
       <use xlink:href="#m539cce206d" x="51.700781" y="51.435877" style="stroke: #000000; stroke-width: 0.6"/>
      </g>
     </g>
    </g>
    <g id="text_4">
     <!-- normalised value -->
     <g transform="translate(14.798438 163.944681) rotate(-90) scale(0.1 -0.1)">
      <defs>
       <path id="DejaVuSans-51" d="M 3513 2113 
L 3513 0 
L 2938 0 
L 2938 2094 
Q 2938 2591 2744 2837 
Q 2550 3084 2163 3084 
Q 1697 3084 1428 2787 
Q 1159 2491 1159 1978 
L 1159 0 
L 581 0 
L 581 3500 
L 1159 3500 
L 1159 2956 
Q 1366 3272 1645 3428 
Q 1925 3584 2291 3584 
Q 2894 3584 3203 3211 
Q 3513 2838 3513 2113 
z
" transform="scale(0.015625)"/>
       <path id="DejaVuSans-52" d="M 1959 3097 
Q 1497 3097 1228 2736 
Q 959 2375 959 1747 
Q 959 1119 1226 758 
Q 1494 397 1959 397 
Q 2419 397 2687 759 
Q 2956 1122 2956 1747 
Q 2956 2369 2687 2733 
Q 2419 3097 1959 3097 
z
M 1959 3584 
Q 2709 3584 3137 3096 
Q 3566 2609 3566 1747 
Q 3566 888 3137 398 
Q 2709 -91 1959 -91 
Q 1206 -91 779 398 
Q 353 888 353 1747 
Q 353 2609 779 3096 
Q 1206 3584 1959 3584 
z
" transform="scale(0.015625)"/>
       <path id="DejaVuSans-55" d="M 2631 2963 
Q 2534 3019 2420 3045 
Q 2306 3072 2169 3072 
Q 1681 3072 1420 2755 
Q 1159 2438 1159 1844 
L 1159 0 
L 581 0 
L 581 3500 
L 1159 3500 
L 1159 2956 
Q 1341 3275 1631 3429 
Q 1922 3584 2338 3584 
Q 2397 3584 2469 3576 
Q 2541 3569 2628 3553 
L 2631 2963 
z
" transform="scale(0.015625)"/>
       <path id="DejaVuSans-50" d="M 3328 2828 
Q 3544 3216 3844 3400 
Q 4144 3584 4550 3584 
Q 5097 3584 5394 3201 
Q 5691 2819 5691 2113 
L 5691 0 
L 5113 0 
L 5113 2094 
Q 5113 2597 4934 2840 
Q 4756 3084 4391 3084 
Q 3944 3084 3684 2787 
Q 3425 2491 3425 1978 
L 3425 0 
L 2847 0 
L 2847 2094 
Q 2847 2600 2669 2842 
Q 2491 3084 2119 3084 
Q 1678 3084 1418 2786 
Q 1159 2488 1159 1978 
L 1159 0 
L 581 0 
L 581 3500 
L 1159 3500 
L 1159 2956 
Q 1356 3278 1631 3431 
Q 1906 3584 2284 3584 
Q 2666 3584 2933 3390 
Q 3200 3197 3328 2828 
z
" transform="scale(0.015625)"/>
       <path id="DejaVuSans-44" d="M 2194 1759 
Q 1497 1759 1228 1600 
Q 959 1441 959 1056 
Q 959 750 1161 570 
Q 1363 391 1709 391 
Q 2188 391 2477 730 
Q 2766 1069 2766 1631 
L 2766 1759 
L 2194 1759 
z
M 3341 1997 
L 3341 0 
L 2766 0 
L 2766 531 
Q 2569 213 2275 61 
Q 1981 -91 1556 -91 
Q 1019 -91 701 211 
Q 384 513 384 1019 
Q 384 1609 779 1909 
Q 1175 2209 1959 2209 
L 2766 2209 
L 2766 2266 
Q 2766 2663 2505 2880 
Q 2244 3097 1772 3097 
Q 1472 3097 1187 3025 
Q 903 2953 641 2809 
L 641 3341 
Q 956 3463 1253 3523 
Q 1550 3584 1831 3584 
Q 2591 3584 2966 3190 
Q 3341 2797 3341 1997 
z
" transform="scale(0.015625)"/>
       <path id="DejaVuSans-4f" d="M 603 4863 
L 1178 4863 
L 1178 0 
L 603 0 
L 603 4863 
z
" transform="scale(0.015625)"/>
       <path id="DejaVuSans-4c" d="M 603 3500 
L 1178 3500 
L 1178 0 
L 603 0 
L 603 3500 
z
M 603 4863 
L 1178 4863 
L 1178 4134 
L 603 4134 
L 603 4863 
z
" transform="scale(0.015625)"/>
       <path id="DejaVuSans-56" d="M 2834 3397 
L 2834 2853 
Q 2591 2978 2328 3040 
Q 2066 3103 1784 3103 
Q 1356 3103 1142 2972 
Q 928 2841 928 2578 
Q 928 2378 1081 2264 
Q 1234 2150 1697 2047 
L 1894 2003 
Q 2506 1872 2764 1633 
Q 3022 1394 3022 966 
Q 3022 478 2636 193 
Q 2250 -91 1575 -91 
Q 1294 -91 989 -36 
Q 684 19 347 128 
L 347 722 
Q 666 556 975 473 
Q 1284 391 1588 391 
Q 1994 391 2212 530 
Q 2431 669 2431 922 
Q 2431 1156 2273 1281 
Q 2116 1406 1581 1522 
L 1381 1569 
Q 847 1681 609 1914 
Q 372 2147 372 2553 
Q 372 3047 722 3315 
Q 1072 3584 1716 3584 
Q 2034 3584 2315 3537 
Q 2597 3491 2834 3397 
z
" transform="scale(0.015625)"/>
       <path id="DejaVuSans-48" d="M 3597 1894 
L 3597 1613 
L 953 1613 
Q 991 1019 1311 708 
Q 1631 397 2203 397 
Q 2534 397 2845 478 
Q 3156 559 3463 722 
L 3463 178 
Q 3153 47 2828 -22 
Q 2503 -91 2169 -91 
Q 1331 -91 842 396 
Q 353 884 353 1716 
Q 353 2575 817 3079 
Q 1281 3584 2069 3584 
Q 2775 3584 3186 3129 
Q 3597 2675 3597 1894 
z
M 3022 2063 
Q 3016 2534 2758 2815 
Q 2500 3097 2075 3097 
Q 1594 3097 1305 2825 
Q 1016 2553 972 2059 
L 3022 2063 
z
" transform="scale(0.015625)"/>
       <path id="DejaVuSans-47" d="M 2906 2969 
L 2906 4863 
L 3481 4863 
L 3481 0 
L 2906 0 
L 2906 525 
Q 2725 213 2448 61 
Q 2172 -91 1784 -91 
Q 1150 -91 751 415 
Q 353 922 353 1747 
Q 353 2572 751 3078 
Q 1150 3584 1784 3584 
Q 2172 3584 2448 3432 
Q 2725 3281 2906 2969 
z
M 947 1747 
Q 947 1113 1208 752 
Q 1469 391 1925 391 
Q 2381 391 2643 752 
Q 2906 1113 2906 1747 
Q 2906 2381 2643 2742 
Q 2381 3103 1925 3103 
Q 1469 3103 1208 2742 
Q 947 2381 947 1747 
z
" transform="scale(0.015625)"/>
       <path id="DejaVuSans-3" transform="scale(0.015625)"/>
       <path id="DejaVuSans-59" d="M 191 3500 
L 800 3500 
L 1894 563 
L 2988 3500 
L 3597 3500 
L 2284 0 
L 1503 0 
L 191 3500 
z
" transform="scale(0.015625)"/>
       <path id="DejaVuSans-58" d="M 544 1381 
L 544 3500 
L 1119 3500 
L 1119 1403 
Q 1119 906 1312 657 
Q 1506 409 1894 409 
Q 2359 409 2629 706 
Q 2900 1003 2900 1516 
L 2900 3500 
L 3475 3500 
L 3475 0 
L 2900 0 
L 2900 538 
Q 2691 219 2414 64 
Q 2138 -91 1772 -91 
Q 1169 -91 856 284 
Q 544 659 544 1381 
z
M 1991 3584 
L 1991 3584 
z
" transform="scale(0.015625)"/>
      </defs>
      <use xlink:href="#DejaVuSans-51"/>
      <use xlink:href="#DejaVuSans-52" transform="translate(63.375 0)"/>
      <use xlink:href="#DejaVuSans-55" transform="translate(124.5625 0)"/>
      <use xlink:href="#DejaVuSans-50" transform="translate(163.921875 0)"/>
      <use xlink:href="#DejaVuSans-44" transform="translate(261.328125 0)"/>
      <use xlink:href="#DejaVuSans-4f" transform="translate(322.609375 0)"/>
      <use xlink:href="#DejaVuSans-4c" transform="translate(350.390625 0)"/>
      <use xlink:href="#DejaVuSans-56" transform="translate(378.171875 0)"/>
      <use xlink:href="#DejaVuSans-48" transform="translate(430.265625 0)"/>
      <use xlink:href="#DejaVuSans-47" transform="translate(491.796875 0)"/>
      <use xlink:href="#DejaVuSans-3" transform="translate(555.28125 0)"/>
      <use xlink:href="#DejaVuSans-59" transform="translate(587.0625 0)"/>
      <use xlink:href="#DejaVuSans-44" transform="translate(646.25 0)"/>
      <use xlink:href="#DejaVuSans-4f" transform="translate(707.53125 0)"/>
      <use xlink:href="#DejaVuSans-58" transform="translate(735.3125 0)"/>
      <use xlink:href="#DejaVuSans-48" transform="translate(798.6875 0)"/>
     </g>
    </g>
   </g>
   <g id="line2d_63">
    <path d="M 72.968906 48.102687 
L 498.331396 120.920121 
L 498.331396 120.920121 
" clip-path="url(#p97fb436db7)" style="fill: none; stroke: #1f77b4; stroke-width: 2.2; stroke-linecap: square"/>
   </g>
   <g id="line2d_64">
    <path d="M 72.968906 48.102687 
L 498.331396 193.764094 
L 498.331396 193.764094 
" clip-path="url(#p97fb436db7)" style="fill: none; stroke: #ff7f0e; stroke-width: 2.2; stroke-linecap: square"/>
   </g>
   <g id="line2d_65">
    <path d="M 72.968906 48.102687 
L 498.331396 193.764799 
L 498.331396 193.764799 
" clip-path="url(#p97fb436db7)" style="fill: none; stroke-dasharray: 6.66,2.88; stroke-dashoffset: 0; stroke: #2ca02c; stroke-width: 1.8"/>
   </g>
   <g id="line2d_66">
    <path d="M 275.918391 201.047905 
L 275.918391 40.819582 
" clip-path="url(#p97fb436db7)" style="fill: none; stroke-dasharray: 1,1.65; stroke-dashoffset: 0; stroke: #595959; stroke-opacity: 0.8"/>
   </g>
   <g id="patch_3">
    <path d="M 51.700781 201.047905 
L 51.700781 40.819582 
" style="fill: none; stroke: #000000; stroke-width: 0.8; stroke-linejoin: miter; stroke-linecap: square"/>
   </g>
   <g id="patch_4">
    <path d="M 519.59952 201.047905 
L 519.59952 40.819582 
" style="fill: none; stroke: #000000; stroke-width: 0.8; stroke-linejoin: miter; stroke-linecap: square"/>
   </g>
   <g id="patch_5">
    <path d="M 51.700781 201.047905 
L 519.59952 201.047905 
" style="fill: none; stroke: #000000; stroke-width: 0.8; stroke-linejoin: miter; stroke-linecap: square"/>
   </g>
   <g id="patch_6">
    <path d="M 51.700781 40.819582 
L 519.59952 40.819582 
" style="fill: none; stroke: #000000; stroke-width: 0.8; stroke-linejoin: miter; stroke-linecap: square"/>
   </g>
   <g id="text_5">
    <!-- 1.5 GHz reference -->
    <g style="fill: #4c4c4c" transform="translate(281.378864 55.963021) scale(0.08 -0.08)">
     <defs>
      <path id="DejaVuSans-11" d="M 684 794 
L 1344 794 
L 1344 0 
L 684 0 
L 684 794 
z
" transform="scale(0.015625)"/>
      <path id="DejaVuSans-18" d="M 691 4666 
L 3169 4666 
L 3169 4134 
L 1269 4134 
L 1269 2991 
Q 1406 3038 1543 3061 
Q 1681 3084 1819 3084 
Q 2600 3084 3056 2656 
Q 3513 2228 3513 1497 
Q 3513 744 3044 326 
Q 2575 -91 1722 -91 
Q 1428 -91 1123 -41 
Q 819 9 494 109 
L 494 744 
Q 775 591 1075 516 
Q 1375 441 1709 441 
Q 2250 441 2565 725 
Q 2881 1009 2881 1497 
Q 2881 1984 2565 2268 
Q 2250 2553 1709 2553 
Q 1456 2553 1204 2497 
Q 953 2441 691 2322 
L 691 4666 
z
" transform="scale(0.015625)"/>
      <path id="DejaVuSans-2a" d="M 3809 666 
L 3809 1919 
L 2778 1919 
L 2778 2438 
L 4434 2438 
L 4434 434 
Q 4069 175 3628 42 
Q 3188 -91 2688 -91 
Q 1594 -91 976 548 
Q 359 1188 359 2328 
Q 359 3472 976 4111 
Q 1594 4750 2688 4750 
Q 3144 4750 3555 4637 
Q 3966 4525 4313 4306 
L 4313 3634 
Q 3963 3931 3569 4081 
Q 3175 4231 2741 4231 
Q 1884 4231 1454 3753 
Q 1025 3275 1025 2328 
Q 1025 1384 1454 906 
Q 1884 428 2741 428 
Q 3075 428 3337 486 
Q 3600 544 3809 666 
z
" transform="scale(0.015625)"/>
      <path id="DejaVuSans-2b" d="M 628 4666 
L 1259 4666 
L 1259 2753 
L 3553 2753 
L 3553 4666 
L 4184 4666 
L 4184 0 
L 3553 0 
L 3553 2222 
L 1259 2222 
L 1259 0 
L 628 0 
L 628 4666 
z
" transform="scale(0.015625)"/>
      <path id="DejaVuSans-5d" d="M 353 3500 
L 3084 3500 
L 3084 2975 
L 922 459 
L 3084 459 
L 3084 0 
L 275 0 
L 275 525 
L 2438 3041 
L 353 3041 
L 353 3500 
z
" transform="scale(0.015625)"/>
      <path id="DejaVuSans-49" d="M 2375 4863 
L 2375 4384 
L 1825 4384 
Q 1516 4384 1395 4259 
Q 1275 4134 1275 3809 
L 1275 3500 
L 2222 3500 
L 2222 3053 
L 1275 3053 
L 1275 0 
L 697 0 
L 697 3053 
L 147 3053 
L 147 3500 
L 697 3500 
L 697 3744 
Q 697 4328 969 4595 
Q 1241 4863 1831 4863 
L 2375 4863 
z
" transform="scale(0.015625)"/>
      <path id="DejaVuSans-46" d="M 3122 3366 
L 3122 2828 
Q 2878 2963 2633 3030 
Q 2388 3097 2138 3097 
Q 1578 3097 1268 2742 
Q 959 2388 959 1747 
Q 959 1106 1268 751 
Q 1578 397 2138 397 
Q 2388 397 2633 464 
Q 2878 531 3122 666 
L 3122 134 
Q 2881 22 2623 -34 
Q 2366 -91 2075 -91 
Q 1284 -91 818 406 
Q 353 903 353 1747 
Q 353 2603 823 3093 
Q 1294 3584 2113 3584 
Q 2378 3584 2631 3529 
Q 2884 3475 3122 3366 
z
" transform="scale(0.015625)"/>
     </defs>
     <use xlink:href="#DejaVuSans-14"/>
     <use xlink:href="#DejaVuSans-11" transform="translate(63.625 0)"/>
     <use xlink:href="#DejaVuSans-18" transform="translate(95.40625 0)"/>
     <use xlink:href="#DejaVuSans-3" transform="translate(159.03125 0)"/>
     <use xlink:href="#DejaVuSans-2a" transform="translate(190.8125 0)"/>
     <use xlink:href="#DejaVuSans-2b" transform="translate(268.296875 0)"/>
     <use xlink:href="#DejaVuSans-5d" transform="translate(343.5 0)"/>
     <use xlink:href="#DejaVuSans-3" transform="translate(395.984375 0)"/>
     <use xlink:href="#DejaVuSans-55" transform="translate(427.765625 0)"/>
     <use xlink:href="#DejaVuSans-48" transform="translate(466.671875 0)"/>
     <use xlink:href="#DejaVuSans-49" transform="translate(528.203125 0)"/>
     <use xlink:href="#DejaVuSans-48" transform="translate(563.40625 0)"/>
     <use xlink:href="#DejaVuSans-55" transform="translate(624.9375 0)"/>
     <use xlink:href="#DejaVuSans-48" transform="translate(663.84375 0)"/>
     <use xlink:href="#DejaVuSans-51" transform="translate(725.375 0)"/>
     <use xlink:href="#DejaVuSans-46" transform="translate(788.75 0)"/>
     <use xlink:href="#DejaVuSans-48" transform="translate(843.734375 0)"/>
    </g>
   </g>
   <g id="text_6">
    <!-- (a) Signal and destructiveness scaling -->
    <g transform="translate(171.342651 34.819582) scale(0.12 -0.12)">
     <defs>
      <path id="DejaVuSans-b" d="M 1984 4856 
Q 1566 4138 1362 3434 
Q 1159 2731 1159 2009 
Q 1159 1288 1364 580 
Q 1569 -128 1984 -844 
L 1484 -844 
Q 1016 -109 783 600 
Q 550 1309 550 2009 
Q 550 2706 781 3412 
Q 1013 4119 1484 4856 
L 1984 4856 
z
" transform="scale(0.015625)"/>
      <path id="DejaVuSans-c" d="M 513 4856 
L 1013 4856 
Q 1481 4119 1714 3412 
Q 1947 2706 1947 2009 
Q 1947 1309 1714 600 
Q 1481 -109 1013 -844 
L 513 -844 
Q 928 -128 1133 580 
Q 1338 1288 1338 2009 
Q 1338 2731 1133 3434 
Q 928 4138 513 4856 
z
" transform="scale(0.015625)"/>
      <path id="DejaVuSans-36" d="M 3425 4513 
L 3425 3897 
Q 3066 4069 2747 4153 
Q 2428 4238 2131 4238 
Q 1616 4238 1336 4038 
Q 1056 3838 1056 3469 
Q 1056 3159 1242 3001 
Q 1428 2844 1947 2747 
L 2328 2669 
Q 3034 2534 3370 2195 
Q 3706 1856 3706 1288 
Q 3706 609 3251 259 
Q 2797 -91 1919 -91 
Q 1588 -91 1214 -16 
Q 841 59 441 206 
L 441 856 
Q 825 641 1194 531 
Q 1563 422 1919 422 
Q 2459 422 2753 634 
Q 3047 847 3047 1241 
Q 3047 1584 2836 1778 
Q 2625 1972 2144 2069 
L 1759 2144 
Q 1053 2284 737 2584 
Q 422 2884 422 3419 
Q 422 4038 858 4394 
Q 1294 4750 2059 4750 
Q 2388 4750 2728 4690 
Q 3069 4631 3425 4513 
z
" transform="scale(0.015625)"/>
      <path id="DejaVuSans-4a" d="M 2906 1791 
Q 2906 2416 2648 2759 
Q 2391 3103 1925 3103 
Q 1463 3103 1205 2759 
Q 947 2416 947 1791 
Q 947 1169 1205 825 
Q 1463 481 1925 481 
Q 2391 481 2648 825 
Q 2906 1169 2906 1791 
z
M 3481 434 
Q 3481 -459 3084 -895 
Q 2688 -1331 1869 -1331 
Q 1566 -1331 1297 -1286 
Q 1028 -1241 775 -1147 
L 775 -588 
Q 1028 -725 1275 -790 
Q 1522 -856 1778 -856 
Q 2344 -856 2625 -561 
Q 2906 -266 2906 331 
L 2906 616 
Q 2728 306 2450 153 
Q 2172 0 1784 0 
Q 1141 0 747 490 
Q 353 981 353 1791 
Q 353 2603 747 3093 
Q 1141 3584 1784 3584 
Q 2172 3584 2450 3431 
Q 2728 3278 2906 2969 
L 2906 3500 
L 3481 3500 
L 3481 434 
z
" transform="scale(0.015625)"/>
      <path id="DejaVuSans-57" d="M 1172 4494 
L 1172 3500 
L 2356 3500 
L 2356 3053 
L 1172 3053 
L 1172 1153 
Q 1172 725 1289 603 
Q 1406 481 1766 481 
L 2356 481 
L 2356 0 
L 1766 0 
Q 1100 0 847 248 
Q 594 497 594 1153 
L 594 3053 
L 172 3053 
L 172 3500 
L 594 3500 
L 594 4494 
L 1172 4494 
z
" transform="scale(0.015625)"/>
     </defs>
     <use xlink:href="#DejaVuSans-b"/>
     <use xlink:href="#DejaVuSans-44" transform="translate(39.015625 0)"/>
     <use xlink:href="#DejaVuSans-c" transform="translate(100.296875 0)"/>
     <use xlink:href="#DejaVuSans-3" transform="translate(139.3125 0)"/>
     <use xlink:href="#DejaVuSans-36" transform="translate(171.09375 0)"/>
     <use xlink:href="#DejaVuSans-4c" transform="translate(234.578125 0)"/>
     <use xlink:href="#DejaVuSans-4a" transform="translate(262.359375 0)"/>
     <use xlink:href="#DejaVuSans-51" transform="translate(325.84375 0)"/>
     <use xlink:href="#DejaVuSans-44" transform="translate(389.21875 0)"/>
     <use xlink:href="#DejaVuSans-4f" transform="translate(450.5 0)"/>
     <use xlink:href="#DejaVuSans-3" transform="translate(478.28125 0)"/>
     <use xlink:href="#DejaVuSans-44" transform="translate(510.0625 0)"/>
     <use xlink:href="#DejaVuSans-51" transform="translate(571.34375 0)"/>
     <use xlink:href="#DejaVuSans-47" transform="translate(634.71875 0)"/>
     <use xlink:href="#DejaVuSans-3" transform="translate(698.203125 0)"/>
     <use xlink:href="#DejaVuSans-47" transform="translate(729.984375 0)"/>
     <use xlink:href="#DejaVuSans-48" transform="translate(793.46875 0)"/>
     <use xlink:href="#DejaVuSans-56" transform="translate(855 0)"/>
     <use xlink:href="#DejaVuSans-57" transform="translate(907.09375 0)"/>
     <use xlink:href="#DejaVuSans-55" transform="translate(946.296875 0)"/>
     <use xlink:href="#DejaVuSans-58" transform="translate(987.40625 0)"/>
     <use xlink:href="#DejaVuSans-46" transform="translate(1050.78125 0)"/>
     <use xlink:href="#DejaVuSans-57" transform="translate(1105.765625 0)"/>
     <use xlink:href="#DejaVuSans-4c" transform="translate(1144.96875 0)"/>
     <use xlink:href="#DejaVuSans-59" transform="translate(1172.75 0)"/>
     <use xlink:href="#DejaVuSans-48" transform="translate(1231.9375 0)"/>
     <use xlink:href="#DejaVuSans-51" transform="translate(1293.46875 0)"/>
     <use xlink:href="#DejaVuSans-48" transform="translate(1356.84375 0)"/>
     <use xlink:href="#DejaVuSans-56" transform="translate(1418.375 0)"/>
     <use xlink:href="#DejaVuSans-56" transform="translate(1470.46875 0)"/>
     <use xlink:href="#DejaVuSans-3" transform="translate(1522.5625 0)"/>
     <use xlink:href="#DejaVuSans-56" transform="translate(1554.34375 0)"/>
     <use xlink:href="#DejaVuSans-46" transform="translate(1606.4375 0)"/>
     <use xlink:href="#DejaVuSans-44" transform="translate(1661.421875 0)"/>
     <use xlink:href="#DejaVuSans-4f" transform="translate(1722.703125 0)"/>
     <use xlink:href="#DejaVuSans-4c" transform="translate(1750.484375 0)"/>
     <use xlink:href="#DejaVuSans-51" transform="translate(1778.265625 0)"/>
     <use xlink:href="#DejaVuSans-4a" transform="translate(1841.640625 0)"/>
    </g>
   </g>
   <g id="legend_1">
    <g id="patch_7">
     <path d="M 436.832098 86.46591 
L 513.64952 86.46591 
Q 515.34952 86.46591 515.34952 84.76591 
L 515.34952 46.769582 
Q 515.34952 45.069582 513.64952 45.069582 
L 436.832098 45.069582 
Q 435.132098 45.069582 435.132098 46.769582 
L 435.132098 84.76591 
Q 435.132098 86.46591 436.832098 86.46591 
z
" style="fill: #ffffff; opacity: 0.8; stroke: #cccccc; stroke-linejoin: miter"/>
    </g>
    <g id="line2d_67">
     <path d="M 438.532098 52.039582 
L 447.032098 52.039582 
L 455.532098 52.039582 
" style="fill: none; stroke: #1f77b4; stroke-width: 2.2; stroke-linecap: square"/>
    </g>
    <g id="text_7">
     <!-- $|\phi|$ -->
     <g transform="translate(462.332098 55.014582) scale(0.085 -0.085)">
      <defs>
       <path id="DejaVuSans-5f" d="M 1344 4891 
L 1344 -1509 
L 813 -1509 
L 813 4891 
L 1344 4891 
z
" transform="scale(0.015625)"/>
       <path id="DejaVuSans-Oblique-369" d="M 2991 4863 
L 2738 3572 
Q 3363 3572 3684 3094 
Q 4016 2606 3850 1747 
Q 3681 888 3159 400 
Q 2653 -78 2028 -78 
L 1784 -1331 
L 1213 -1331 
L 1456 -78 
Q 834 -78 509 400 
Q 178 888 347 1747 
Q 513 2606 1034 3094 
Q 1544 3572 2166 3572 
L 2419 4863 
L 2991 4863 
z
M 2128 434 
Q 2481 434 2784 756 
Q 3116 1116 3244 1747 
Q 3369 2372 3169 2738 
Q 2991 3059 2638 3059 
L 2128 434 
z
M 1556 434 
L 2066 3059 
Q 1716 3059 1413 2738 
Q 1072 2372 953 1747 
Q 834 1116 1028 756 
Q 1203 434 1556 434 
z
" transform="scale(0.015625)"/>
      </defs>
      <use xlink:href="#DejaVuSans-5f" transform="translate(0 0.578125)"/>
      <use xlink:href="#DejaVuSans-Oblique-369" transform="translate(33.691406 0.578125)"/>
      <use xlink:href="#DejaVuSans-5f" transform="translate(99.658203 0.578125)"/>
     </g>
    </g>
    <g id="line2d_68">
     <path d="M 438.532098 64.790246 
L 447.032098 64.790246 
L 455.532098 64.790246 
" style="fill: none; stroke: #ff7f0e; stroke-width: 2.2; stroke-linecap: square"/>
    </g>
    <g id="text_8">
     <!-- $N_\gamma$ -->
     <g transform="translate(462.332098 67.765246) scale(0.085 -0.085)">
      <defs>
       <path id="DejaVuSans-Oblique-31" d="M 1081 4666 
L 1931 4666 
L 3219 666 
L 4000 4666 
L 4616 4666 
L 3706 0 
L 2853 0 
L 1569 4025 
L 788 0 
L 172 0 
L 1081 4666 
z
" transform="scale(0.015625)"/>
       <path id="DejaVuSans-Oblique-347" d="M 1491 2950 
L 1838 788 
L 3456 3500 
L 4066 3500 
L 1972 0 
L 1713 -1331 
L 1138 -1331 
L 1397 0 
L 988 2613 
Q 925 3006 628 3006 
L 475 3006 
L 569 3500 
L 788 3500 
Q 1403 3500 1491 2950 
z
" transform="scale(0.015625)"/>
      </defs>
      <use xlink:href="#DejaVuSans-Oblique-31" transform="translate(0 0.09375)"/>
      <use xlink:href="#DejaVuSans-Oblique-347" transform="translate(74.804688 -14.906201) scale(0.7)"/>
     </g>
    </g>
    <g id="line2d_69">
     <path d="M 438.532098 78.048917 
L 447.032098 78.048917 
L 455.532098 78.048917 
" style="fill: none; stroke-dasharray: 6.66,2.88; stroke-dashoffset: 0; stroke: #2ca02c; stroke-width: 1.8"/>
    </g>
    <g id="text_9">
     <!-- residual OD -->
     <g transform="translate(462.332098 81.023917) scale(0.085 -0.085)">
      <defs>
       <path id="DejaVuSans-32" d="M 2522 4238 
Q 1834 4238 1429 3725 
Q 1025 3213 1025 2328 
Q 1025 1447 1429 934 
Q 1834 422 2522 422 
Q 3209 422 3611 934 
Q 4013 1447 4013 2328 
Q 4013 3213 3611 3725 
Q 3209 4238 2522 4238 
z
M 2522 4750 
Q 3503 4750 4090 4092 
Q 4678 3434 4678 2328 
Q 4678 1225 4090 567 
Q 3503 -91 2522 -91 
Q 1538 -91 948 565 
Q 359 1222 359 2328 
Q 359 3434 948 4092 
Q 1538 4750 2522 4750 
z
" transform="scale(0.015625)"/>
       <path id="DejaVuSans-27" d="M 1259 4147 
L 1259 519 
L 2022 519 
Q 2988 519 3436 956 
Q 3884 1394 3884 2338 
Q 3884 3275 3436 3711 
Q 2988 4147 2022 4147 
L 1259 4147 
z
M 628 4666 
L 1925 4666 
Q 3281 4666 3915 4102 
Q 4550 3538 4550 2338 
Q 4550 1131 3912 565 
Q 3275 0 1925 0 
L 628 0 
L 628 4666 
z
" transform="scale(0.015625)"/>
      </defs>
      <use xlink:href="#DejaVuSans-55"/>
      <use xlink:href="#DejaVuSans-48" transform="translate(38.90625 0)"/>
      <use xlink:href="#DejaVuSans-56" transform="translate(100.4375 0)"/>
      <use xlink:href="#DejaVuSans-4c" transform="translate(152.53125 0)"/>
      <use xlink:href="#DejaVuSans-47" transform="translate(180.3125 0)"/>
      <use xlink:href="#DejaVuSans-58" transform="translate(243.796875 0)"/>
      <use xlink:href="#DejaVuSans-44" transform="translate(307.171875 0)"/>
      <use xlink:href="#DejaVuSans-4f" transform="translate(368.453125 0)"/>
      <use xlink:href="#DejaVuSans-3" transform="translate(396.234375 0)"/>
      <use xlink:href="#DejaVuSans-32" transform="translate(428.015625 0)"/>
      <use xlink:href="#DejaVuSans-27" transform="translate(506.734375 0)"/>
     </g>
    </g>
   </g>
  </g>
  <g id="axes_2">
   <g id="patch_8">
    <path d="M 51.700781 385.894832 
L 519.59952 385.894832 
L 519.59952 225.66651 
L 51.700781 225.66651 
z
" style="fill: #ffffff"/>
   </g>
   <g id="matplotlib.axis_3">
    <g id="xtick_11">
     <g id="line2d_70">
      <path d="M 201.015774 385.894832 
L 201.015774 225.66651 
" clip-path="url(#p124843b2e7)" style="fill: none; stroke: #b0b0b0; stroke-opacity: 0.25; stroke-width: 0.8; stroke-linecap: square"/>
     </g>
     <g id="line2d_71">
      <g>
       <use xlink:href="#mf2ed05c81e" x="201.015774" y="385.894832" style="stroke: #000000; stroke-width: 0.8"/>
      </g>
     </g>
     <g id="text_10">
      <!-- $\mathdefault{10^{0}}$ -->
      <g transform="translate(192.215774 402.294832) scale(0.1 -0.1)">
       <use xlink:href="#DejaVuSans-14" transform="translate(0 0.746875)"/>
       <use xlink:href="#DejaVuSans-13" transform="translate(63.623047 0.746875)"/>
       <use xlink:href="#DejaVuSans-13" transform="translate(128.203125 42.046875) scale(0.7)"/>
      </g>
     </g>
    </g>
    <g id="xtick_12">
     <g id="line2d_72">
      <path d="M 72.968906 385.894832 
L 72.968906 225.66651 
" clip-path="url(#p124843b2e7)" style="fill: none; stroke: #b0b0b0; stroke-opacity: 0.25; stroke-width: 0.8; stroke-linecap: square"/>
     </g>
     <g id="line2d_73">
      <g>
       <use xlink:href="#m08ffd1d0ee" x="72.968906" y="385.894832" style="stroke: #000000; stroke-width: 0.6"/>
      </g>
     </g>
    </g>
    <g id="xtick_13">
     <g id="line2d_74">
      <path d="M 106.649638 385.894832 
L 106.649638 225.66651 
" clip-path="url(#p124843b2e7)" style="fill: none; stroke: #b0b0b0; stroke-opacity: 0.25; stroke-width: 0.8; stroke-linecap: square"/>
     </g>
     <g id="line2d_75">
      <g>
       <use xlink:href="#m08ffd1d0ee" x="106.649638" y="385.894832" style="stroke: #000000; stroke-width: 0.6"/>
      </g>
     </g>
     <g id="text_11">
      <!-- $\mathdefault{6\times10^{-1}}$ -->
      <g transform="translate(85.599638 400.594832) scale(0.1 -0.1)">
       <defs>
        <path id="DejaVuSans-19" d="M 2113 2584 
Q 1688 2584 1439 2293 
Q 1191 2003 1191 1497 
Q 1191 994 1439 701 
Q 1688 409 2113 409 
Q 2538 409 2786 701 
Q 3034 994 3034 1497 
Q 3034 2003 2786 2293 
Q 2538 2584 2113 2584 
z
M 3366 4563 
L 3366 3988 
Q 3128 4100 2886 4159 
Q 2644 4219 2406 4219 
Q 1781 4219 1451 3797 
Q 1122 3375 1075 2522 
Q 1259 2794 1537 2939 
Q 1816 3084 2150 3084 
Q 2853 3084 3261 2657 
Q 3669 2231 3669 1497 
Q 3669 778 3244 343 
Q 2819 -91 2113 -91 
Q 1303 -91 875 529 
Q 447 1150 447 2328 
Q 447 3434 972 4092 
Q 1497 4750 2381 4750 
Q 2619 4750 2861 4703 
Q 3103 4656 3366 4563 
z
" transform="scale(0.015625)"/>
        <path id="DejaVuSans-99" d="M 4488 3438 
L 3059 2003 
L 4488 575 
L 4116 197 
L 2681 1631 
L 1247 197 
L 878 575 
L 2303 2003 
L 878 3438 
L 1247 3816 
L 2681 2381 
L 4116 3816 
L 4488 3438 
z
" transform="scale(0.015625)"/>
       </defs>
       <use xlink:href="#DejaVuSans-19" transform="translate(0 0.665625)"/>
       <use xlink:href="#DejaVuSans-99" transform="translate(83.105469 0.665625)"/>
       <use xlink:href="#DejaVuSans-14" transform="translate(186.376953 0.665625)"/>
       <use xlink:href="#DejaVuSans-13" transform="translate(250 0.665625)"/>
       <use xlink:href="#DejaVuSans-c9c" transform="translate(314.580078 41.965625) scale(0.7)"/>
       <use xlink:href="#DejaVuSans-14" transform="translate(373.232422 41.965625) scale(0.7)"/>
      </g>
     </g>
    </g>
    <g id="xtick_14">
     <g id="line2d_76">
      <path d="M 135.126291 385.894832 
L 135.126291 225.66651 
" clip-path="url(#p124843b2e7)" style="fill: none; stroke: #b0b0b0; stroke-opacity: 0.25; stroke-width: 0.8; stroke-linecap: square"/>
     </g>
     <g id="line2d_77">
      <g>
       <use xlink:href="#m08ffd1d0ee" x="135.126291" y="385.894832" style="stroke: #000000; stroke-width: 0.6"/>
      </g>
     </g>
    </g>
    <g id="xtick_15">
     <g id="line2d_78">
      <path d="M 159.79389 385.894832 
L 159.79389 225.66651 
" clip-path="url(#p124843b2e7)" style="fill: none; stroke: #b0b0b0; stroke-opacity: 0.25; stroke-width: 0.8; stroke-linecap: square"/>
     </g>
     <g id="line2d_79">
      <g>
       <use xlink:href="#m08ffd1d0ee" x="159.79389" y="385.894832" style="stroke: #000000; stroke-width: 0.6"/>
      </g>
     </g>
    </g>
    <g id="xtick_16">
     <g id="line2d_80">
      <path d="M 181.552254 385.894832 
L 181.552254 225.66651 
" clip-path="url(#p124843b2e7)" style="fill: none; stroke: #b0b0b0; stroke-opacity: 0.25; stroke-width: 0.8; stroke-linecap: square"/>
     </g>
     <g id="line2d_81">
      <g>
       <use xlink:href="#m08ffd1d0ee" x="181.552254" y="385.894832" style="stroke: #000000; stroke-width: 0.6"/>
      </g>
     </g>
    </g>
    <g id="xtick_17">
     <g id="line2d_82">
      <path d="M 329.062643 385.894832 
L 329.062643 225.66651 
" clip-path="url(#p124843b2e7)" style="fill: none; stroke: #b0b0b0; stroke-opacity: 0.25; stroke-width: 0.8; stroke-linecap: square"/>
     </g>
     <g id="line2d_83">
      <g>
       <use xlink:href="#m08ffd1d0ee" x="329.062643" y="385.894832" style="stroke: #000000; stroke-width: 0.6"/>
      </g>
     </g>
     <g id="text_12">
      <!-- $\mathdefault{2\times10^{0}}$ -->
      <g transform="translate(310.962643 400.694832) scale(0.1 -0.1)">
       <use xlink:href="#DejaVuSans-15" transform="translate(0 0.746875)"/>
       <use xlink:href="#DejaVuSans-99" transform="translate(83.105469 0.746875)"/>
       <use xlink:href="#DejaVuSans-14" transform="translate(186.376953 0.746875)"/>
       <use xlink:href="#DejaVuSans-13" transform="translate(250 0.746875)"/>
       <use xlink:href="#DejaVuSans-13" transform="translate(314.580078 42.046875) scale(0.7)"/>
      </g>
     </g>
    </g>
    <g id="xtick_18">
     <g id="line2d_84">
      <path d="M 403.965259 385.894832 
L 403.965259 225.66651 
" clip-path="url(#p124843b2e7)" style="fill: none; stroke: #b0b0b0; stroke-opacity: 0.25; stroke-width: 0.8; stroke-linecap: square"/>
     </g>
     <g id="line2d_85">
      <g>
       <use xlink:href="#m08ffd1d0ee" x="403.965259" y="385.894832" style="stroke: #000000; stroke-width: 0.6"/>
      </g>
     </g>
     <g id="text_13">
      <!-- $\mathdefault{3\times10^{0}}$ -->
      <g transform="translate(385.865259 400.694832) scale(0.1 -0.1)">
       <defs>
        <path id="DejaVuSans-16" d="M 2597 2516 
Q 3050 2419 3304 2112 
Q 3559 1806 3559 1356 
Q 3559 666 3084 287 
Q 2609 -91 1734 -91 
Q 1441 -91 1130 -33 
Q 819 25 488 141 
L 488 750 
Q 750 597 1062 519 
Q 1375 441 1716 441 
Q 2309 441 2620 675 
Q 2931 909 2931 1356 
Q 2931 1769 2642 2001 
Q 2353 2234 1838 2234 
L 1294 2234 
L 1294 2753 
L 1863 2753 
Q 2328 2753 2575 2939 
Q 2822 3125 2822 3475 
Q 2822 3834 2567 4026 
Q 2313 4219 1838 4219 
Q 1578 4219 1281 4162 
Q 984 4106 628 3988 
L 628 4550 
Q 988 4650 1302 4700 
Q 1616 4750 1894 4750 
Q 2613 4750 3031 4423 
Q 3450 4097 3450 3541 
Q 3450 3153 3228 2886 
Q 3006 2619 2597 2516 
z
" transform="scale(0.015625)"/>
       </defs>
       <use xlink:href="#DejaVuSans-16" transform="translate(0 0.746875)"/>
       <use xlink:href="#DejaVuSans-99" transform="translate(83.105469 0.746875)"/>
       <use xlink:href="#DejaVuSans-14" transform="translate(186.376953 0.746875)"/>
       <use xlink:href="#DejaVuSans-13" transform="translate(250 0.746875)"/>
       <use xlink:href="#DejaVuSans-13" transform="translate(314.580078 42.046875) scale(0.7)"/>
      </g>
     </g>
    </g>
    <g id="xtick_19">
     <g id="line2d_86">
      <path d="M 457.109511 385.894832 
L 457.109511 225.66651 
" clip-path="url(#p124843b2e7)" style="fill: none; stroke: #b0b0b0; stroke-opacity: 0.25; stroke-width: 0.8; stroke-linecap: square"/>
     </g>
     <g id="line2d_87">
      <g>
       <use xlink:href="#m08ffd1d0ee" x="457.109511" y="385.894832" style="stroke: #000000; stroke-width: 0.6"/>
      </g>
     </g>
     <g id="text_14">
      <!-- $\mathdefault{4\times10^{0}}$ -->
      <g transform="translate(439.009511 400.694832) scale(0.1 -0.1)">
       <defs>
        <path id="DejaVuSans-17" d="M 2419 4116 
L 825 1625 
L 2419 1625 
L 2419 4116 
z
M 2253 4666 
L 3047 4666 
L 3047 1625 
L 3713 1625 
L 3713 1100 
L 3047 1100 
L 3047 0 
L 2419 0 
L 2419 1100 
L 313 1100 
L 313 1709 
L 2253 4666 
z
" transform="scale(0.015625)"/>
       </defs>
       <use xlink:href="#DejaVuSans-17" transform="translate(0 0.746875)"/>
       <use xlink:href="#DejaVuSans-99" transform="translate(83.105469 0.746875)"/>
       <use xlink:href="#DejaVuSans-14" transform="translate(186.376953 0.746875)"/>
       <use xlink:href="#DejaVuSans-13" transform="translate(250 0.746875)"/>
       <use xlink:href="#DejaVuSans-13" transform="translate(314.580078 42.046875) scale(0.7)"/>
      </g>
     </g>
    </g>
    <g id="xtick_20">
     <g id="line2d_88">
      <path d="M 498.331396 385.894832 
L 498.331396 225.66651 
" clip-path="url(#p124843b2e7)" style="fill: none; stroke: #b0b0b0; stroke-opacity: 0.25; stroke-width: 0.8; stroke-linecap: square"/>
     </g>
     <g id="line2d_89">
      <g>
       <use xlink:href="#m08ffd1d0ee" x="498.331396" y="385.894832" style="stroke: #000000; stroke-width: 0.6"/>
      </g>
     </g>
    </g>
    <g id="text_15">
     <!-- $|\Delta|/2\pi$ (GHz) -->
     <g transform="translate(255.200151 416.397176) scale(0.1 -0.1)">
      <defs>
       <path id="DejaVuSans-329" d="M 2188 4044 
L 906 525 
L 3472 525 
L 2188 4044 
z
M 50 0 
L 1831 4666 
L 2547 4666 
L 4325 0 
L 50 0 
z
" transform="scale(0.015625)"/>
       <path id="DejaVuSans-12" d="M 1625 4666 
L 2156 4666 
L 531 -594 
L 0 -594 
L 1625 4666 
z
" transform="scale(0.015625)"/>
       <path id="DejaVuSans-Oblique-354" d="M 584 3500 
L 3938 3500 
L 3825 2925 
L 3384 2925 
L 2966 775 
Q 2922 550 2981 450 
Q 3038 353 3209 353 
Q 3256 353 3325 363 
Q 3397 369 3419 372 
L 3338 -44 
Q 3222 -84 3103 -103 
Q 2981 -122 2866 -122 
Q 2491 -122 2388 81 
Q 2284 288 2391 838 
L 2797 2925 
L 1506 2925 
L 938 0 
L 350 0 
L 919 2925 
L 472 2925 
L 584 3500 
z
" transform="scale(0.015625)"/>
      </defs>
      <use xlink:href="#DejaVuSans-5f" transform="translate(0 0.578125)"/>
      <use xlink:href="#DejaVuSans-329" transform="translate(33.691406 0.578125)"/>
      <use xlink:href="#DejaVuSans-5f" transform="translate(102.099609 0.578125)"/>
      <use xlink:href="#DejaVuSans-12" transform="translate(135.791016 0.578125)"/>
      <use xlink:href="#DejaVuSans-15" transform="translate(169.482422 0.578125)"/>
      <use xlink:href="#DejaVuSans-Oblique-354" transform="translate(233.105469 0.578125)"/>
      <use xlink:href="#DejaVuSans-3" transform="translate(293.310547 0.578125)"/>
      <use xlink:href="#DejaVuSans-b" transform="translate(325.097656 0.578125)"/>
      <use xlink:href="#DejaVuSans-2a" transform="translate(364.111328 0.578125)"/>
      <use xlink:href="#DejaVuSans-2b" transform="translate(441.601562 0.578125)"/>
      <use xlink:href="#DejaVuSans-5d" transform="translate(516.796875 0.578125)"/>
      <use xlink:href="#DejaVuSans-c" transform="translate(569.287109 0.578125)"/>
     </g>
    </g>
   </g>
   <g id="matplotlib.axis_4">
    <g id="ytick_22">
     <g id="line2d_90">
      <path d="M 51.700781 360.08079 
L 519.59952 360.08079 
" clip-path="url(#p124843b2e7)" style="fill: none; stroke: #b0b0b0; stroke-opacity: 0.25; stroke-width: 0.8; stroke-linecap: square"/>
     </g>
     <g id="line2d_91">
      <g>
       <use xlink:href="#m504bc962d8" x="51.700781" y="360.08079" style="stroke: #000000; stroke-width: 0.8"/>
      </g>
     </g>
     <g id="text_16">
      <!-- 0.2 -->
      <g transform="translate(28.797656 363.879618) scale(0.1 -0.1)">
       <use xlink:href="#DejaVuSans-13"/>
       <use xlink:href="#DejaVuSans-11" transform="translate(63.625 0)"/>
       <use xlink:href="#DejaVuSans-15" transform="translate(95.40625 0)"/>
      </g>
     </g>
    </g>
    <g id="ytick_23">
     <g id="line2d_92">
      <path d="M 51.700781 328.297996 
L 519.59952 328.297996 
" clip-path="url(#p124843b2e7)" style="fill: none; stroke: #b0b0b0; stroke-opacity: 0.25; stroke-width: 0.8; stroke-linecap: square"/>
     </g>
     <g id="line2d_93">
      <g>
       <use xlink:href="#m504bc962d8" x="51.700781" y="328.297996" style="stroke: #000000; stroke-width: 0.8"/>
      </g>
     </g>
     <g id="text_17">
      <!-- 0.4 -->
      <g transform="translate(28.797656 332.096825) scale(0.1 -0.1)">
       <use xlink:href="#DejaVuSans-13"/>
       <use xlink:href="#DejaVuSans-11" transform="translate(63.625 0)"/>
       <use xlink:href="#DejaVuSans-17" transform="translate(95.40625 0)"/>
      </g>
     </g>
    </g>
    <g id="ytick_24">
     <g id="line2d_94">
      <path d="M 51.700781 296.515203 
L 519.59952 296.515203 
" clip-path="url(#p124843b2e7)" style="fill: none; stroke: #b0b0b0; stroke-opacity: 0.25; stroke-width: 0.8; stroke-linecap: square"/>
     </g>
     <g id="line2d_95">
      <g>
       <use xlink:href="#m504bc962d8" x="51.700781" y="296.515203" style="stroke: #000000; stroke-width: 0.8"/>
      </g>
     </g>
     <g id="text_18">
      <!-- 0.6 -->
      <g transform="translate(28.797656 300.314031) scale(0.1 -0.1)">
       <use xlink:href="#DejaVuSans-13"/>
       <use xlink:href="#DejaVuSans-11" transform="translate(63.625 0)"/>
       <use xlink:href="#DejaVuSans-19" transform="translate(95.40625 0)"/>
      </g>
     </g>
    </g>
    <g id="ytick_25">
     <g id="line2d_96">
      <path d="M 51.700781 264.732409 
L 519.59952 264.732409 
" clip-path="url(#p124843b2e7)" style="fill: none; stroke: #b0b0b0; stroke-opacity: 0.25; stroke-width: 0.8; stroke-linecap: square"/>
     </g>
     <g id="line2d_97">
      <g>
       <use xlink:href="#m504bc962d8" x="51.700781" y="264.732409" style="stroke: #000000; stroke-width: 0.8"/>
      </g>
     </g>
     <g id="text_19">
      <!-- 0.8 -->
      <g transform="translate(28.797656 268.531237) scale(0.1 -0.1)">
       <defs>
        <path id="DejaVuSans-1b" d="M 2034 2216 
Q 1584 2216 1326 1975 
Q 1069 1734 1069 1313 
Q 1069 891 1326 650 
Q 1584 409 2034 409 
Q 2484 409 2743 651 
Q 3003 894 3003 1313 
Q 3003 1734 2745 1975 
Q 2488 2216 2034 2216 
z
M 1403 2484 
Q 997 2584 770 2862 
Q 544 3141 544 3541 
Q 544 4100 942 4425 
Q 1341 4750 2034 4750 
Q 2731 4750 3128 4425 
Q 3525 4100 3525 3541 
Q 3525 3141 3298 2862 
Q 3072 2584 2669 2484 
Q 3125 2378 3379 2068 
Q 3634 1759 3634 1313 
Q 3634 634 3220 271 
Q 2806 -91 2034 -91 
Q 1263 -91 848 271 
Q 434 634 434 1313 
Q 434 1759 690 2068 
Q 947 2378 1403 2484 
z
M 1172 3481 
Q 1172 3119 1398 2916 
Q 1625 2713 2034 2713 
Q 2441 2713 2670 2916 
Q 2900 3119 2900 3481 
Q 2900 3844 2670 4047 
Q 2441 4250 2034 4250 
Q 1625 4250 1398 4047 
Q 1172 3844 1172 3481 
z
" transform="scale(0.015625)"/>
       </defs>
       <use xlink:href="#DejaVuSans-13"/>
       <use xlink:href="#DejaVuSans-11" transform="translate(63.625 0)"/>
       <use xlink:href="#DejaVuSans-1b" transform="translate(95.40625 0)"/>
      </g>
     </g>
    </g>
    <g id="ytick_26">
     <g id="line2d_98">
      <path d="M 51.700781 232.949615 
L 519.59952 232.949615 
" clip-path="url(#p124843b2e7)" style="fill: none; stroke: #b0b0b0; stroke-opacity: 0.25; stroke-width: 0.8; stroke-linecap: square"/>
     </g>
     <g id="line2d_99">
      <g>
       <use xlink:href="#m504bc962d8" x="51.700781" y="232.949615" style="stroke: #000000; stroke-width: 0.8"/>
      </g>
     </g>
     <g id="text_20">
      <!-- 1.0 -->
      <g transform="translate(28.797656 236.748443) scale(0.1 -0.1)">
       <use xlink:href="#DejaVuSans-14"/>
       <use xlink:href="#DejaVuSans-11" transform="translate(63.625 0)"/>
       <use xlink:href="#DejaVuSans-13" transform="translate(95.40625 0)"/>
      </g>
     </g>
    </g>
    <g id="text_21">
     <!-- normalised value -->
     <g transform="translate(22.395313 348.791609) rotate(-90) scale(0.1 -0.1)">
      <use xlink:href="#DejaVuSans-51"/>
      <use xlink:href="#DejaVuSans-52" transform="translate(63.375 0)"/>
      <use xlink:href="#DejaVuSans-55" transform="translate(124.5625 0)"/>
      <use xlink:href="#DejaVuSans-50" transform="translate(163.921875 0)"/>
      <use xlink:href="#DejaVuSans-44" transform="translate(261.328125 0)"/>
      <use xlink:href="#DejaVuSans-4f" transform="translate(322.609375 0)"/>
      <use xlink:href="#DejaVuSans-4c" transform="translate(350.390625 0)"/>
      <use xlink:href="#DejaVuSans-56" transform="translate(378.171875 0)"/>
      <use xlink:href="#DejaVuSans-48" transform="translate(430.265625 0)"/>
      <use xlink:href="#DejaVuSans-47" transform="translate(491.796875 0)"/>
      <use xlink:href="#DejaVuSans-3" transform="translate(555.28125 0)"/>
      <use xlink:href="#DejaVuSans-59" transform="translate(587.0625 0)"/>
      <use xlink:href="#DejaVuSans-44" transform="translate(646.25 0)"/>
      <use xlink:href="#DejaVuSans-4f" transform="translate(707.53125 0)"/>
      <use xlink:href="#DejaVuSans-58" transform="translate(735.3125 0)"/>
      <use xlink:href="#DejaVuSans-48" transform="translate(798.6875 0)"/>
     </g>
    </g>
   </g>
   <g id="line2d_100">
    <path d="M 72.968906 375.971833 
L 94.355847 374.021357 
L 115.742787 371.83147 
L 134.753401 369.66024 
L 153.764016 367.253665 
L 170.398303 364.934867 
L 187.03259 362.39758 
L 203.666877 359.621217 
L 217.924838 357.034173 
L 232.182799 354.239547 
L 246.440759 351.220683 
L 260.69872 347.959589 
L 274.95668 344.436829 
L 286.838314 341.286215 
L 298.719948 337.926299 
L 310.601582 334.343178 
L 322.483215 330.522025 
L 334.364849 326.447025 
L 346.246483 322.101317 
L 358.128117 317.466916 
L 367.633424 313.538691 
L 377.138731 309.403051 
L 386.644038 305.049043 
L 396.149345 300.465139 
L 405.654652 295.639198 
L 415.159959 290.558442 
L 424.665266 285.209415 
L 434.170573 279.577953 
L 443.67588 273.649143 
L 453.181187 267.407284 
L 462.686494 260.835848 
L 472.191801 253.917431 
L 479.320781 248.489928 
L 486.449762 242.848879 
L 493.578742 236.985882 
L 498.331396 232.949615 
L 498.331396 232.949615 
" clip-path="url(#p124843b2e7)" style="fill: none; stroke: #2ca02c; stroke-width: 2.2; stroke-linecap: square"/>
   </g>
   <g id="line2d_101">
    <path d="M 72.968906 378.611727 
L 91.97952 376.820073 
L 110.990134 374.815819 
L 130.000748 372.583632 
L 149.011362 370.106257 
L 165.645649 367.721883 
L 182.279937 365.119331 
L 198.914224 362.281188 
L 215.548511 359.18771 
L 229.806472 356.316133 
L 244.064432 353.22508 
L 258.322393 349.897446 
L 272.580353 346.314519 
L 284.461987 343.119056 
L 296.343621 339.719398 
L 308.225255 336.101871 
L 320.106889 332.251839 
L 331.988522 328.153655 
L 343.870156 323.790599 
L 355.75179 319.144818 
L 365.257097 315.21187 
L 374.762404 311.075467 
L 384.267711 306.724719 
L 393.773018 302.148162 
L 403.278325 297.333723 
L 412.783632 292.268697 
L 422.288939 286.939705 
L 431.794246 281.332668 
L 441.299553 275.432764 
L 450.80486 269.224392 
L 460.310167 262.691132 
L 469.815474 255.8157 
L 479.320781 248.579903 
L 486.449762 242.905085 
L 493.578742 237.008363 
L 498.331396 232.949615 
L 498.331396 232.949615 
" clip-path="url(#p124843b2e7)" style="fill: none; stroke-dasharray: 6.66,2.88; stroke-dashoffset: 0; stroke: #9467bd; stroke-width: 1.8"/>
   </g>
   <g id="line2d_102">
    <path d="M 275.918391 385.894832 
L 275.918391 225.66651 
" clip-path="url(#p124843b2e7)" style="fill: none; stroke-dasharray: 1,1.65; stroke-dashoffset: 0; stroke: #595959; stroke-opacity: 0.8"/>
   </g>
   <g id="patch_9">
    <path d="M 51.700781 385.894832 
L 51.700781 225.66651 
" style="fill: none; stroke: #000000; stroke-width: 0.8; stroke-linejoin: miter; stroke-linecap: square"/>
   </g>
   <g id="patch_10">
    <path d="M 519.59952 385.894832 
L 519.59952 225.66651 
" style="fill: none; stroke: #000000; stroke-width: 0.8; stroke-linejoin: miter; stroke-linecap: square"/>
   </g>
   <g id="patch_11">
    <path d="M 51.700781 385.894832 
L 519.59952 385.894832 
" style="fill: none; stroke: #000000; stroke-width: 0.8; stroke-linejoin: miter; stroke-linecap: square"/>
   </g>
   <g id="patch_12">
    <path d="M 51.700781 225.66651 
L 519.59952 225.66651 
" style="fill: none; stroke: #000000; stroke-width: 0.8; stroke-linejoin: miter; stroke-linecap: square"/>
   </g>
   <g id="text_22">
    <!-- (b) Information-efficiency proxy -->
    <g transform="translate(190.912963 219.66651) scale(0.12 -0.12)">
     <defs>
      <path id="DejaVuSans-45" d="M 3116 1747 
Q 3116 2381 2855 2742 
Q 2594 3103 2138 3103 
Q 1681 3103 1420 2742 
Q 1159 2381 1159 1747 
Q 1159 1113 1420 752 
Q 1681 391 2138 391 
Q 2594 391 2855 752 
Q 3116 1113 3116 1747 
z
M 1159 2969 
Q 1341 3281 1617 3432 
Q 1894 3584 2278 3584 
Q 2916 3584 3314 3078 
Q 3713 2572 3713 1747 
Q 3713 922 3314 415 
Q 2916 -91 2278 -91 
Q 1894 -91 1617 61 
Q 1341 213 1159 525 
L 1159 0 
L 581 0 
L 581 4863 
L 1159 4863 
L 1159 2969 
z
" transform="scale(0.015625)"/>
      <path id="DejaVuSans-2c" d="M 628 4666 
L 1259 4666 
L 1259 0 
L 628 0 
L 628 4666 
z
" transform="scale(0.015625)"/>
      <path id="DejaVuSans-10" d="M 313 2009 
L 1997 2009 
L 1997 1497 
L 313 1497 
L 313 2009 
z
" transform="scale(0.015625)"/>
      <path id="DejaVuSans-13b1" d="M 2375 4863 
L 2375 4384 
L 1825 4384 
Q 1516 4384 1394 4259 
Q 1275 4134 1275 3809 
L 1275 3500 
L 2853 3500 
L 2853 3744 
Q 2853 4328 3125 4594 
Q 3213 4681 3334 4741 
Q 3578 4863 3988 4863 
L 4531 4863 
L 4531 4384 
L 3981 4384 
Q 3672 4384 3551 4259 
Q 3431 4134 3431 3809 
L 3431 3500 
L 5588 3500 
L 5588 0 
L 5009 0 
L 5009 3053 
L 3431 3053 
L 3431 0 
L 2853 0 
L 2853 3053 
L 1275 3053 
L 1275 0 
L 697 0 
L 697 3053 
L 147 3053 
L 147 3500 
L 697 3500 
L 697 3744 
Q 697 4328 969 4595 
Q 1241 4863 1831 4863 
L 2375 4863 
z
M 5009 4856 
L 5588 4856 
L 5588 4128 
L 5009 4128 
L 5009 4856 
z
" transform="scale(0.015625)"/>
      <path id="DejaVuSans-5c" d="M 2059 -325 
Q 1816 -950 1584 -1140 
Q 1353 -1331 966 -1331 
L 506 -1331 
L 506 -850 
L 844 -850 
Q 1081 -850 1212 -737 
Q 1344 -625 1503 -206 
L 1606 56 
L 191 3500 
L 800 3500 
L 1894 763 
L 2988 3500 
L 3597 3500 
L 2059 -325 
z
" transform="scale(0.015625)"/>
      <path id="DejaVuSans-53" d="M 1159 525 
L 1159 -1331 
L 581 -1331 
L 581 3500 
L 1159 3500 
L 1159 2969 
Q 1341 3281 1617 3432 
Q 1894 3584 2278 3584 
Q 2916 3584 3314 3078 
Q 3713 2572 3713 1747 
Q 3713 922 3314 415 
Q 2916 -91 2278 -91 
Q 1894 -91 1617 61 
Q 1341 213 1159 525 
z
M 3116 1747 
Q 3116 2381 2855 2742 
Q 2594 3103 2138 3103 
Q 1681 3103 1420 2742 
Q 1159 2381 1159 1747 
Q 1159 1113 1420 752 
Q 1681 391 2138 391 
Q 2594 391 2855 752 
Q 3116 1113 3116 1747 
z
" transform="scale(0.015625)"/>
      <path id="DejaVuSans-5b" d="M 3513 3500 
L 2247 1797 
L 3578 0 
L 2900 0 
L 1881 1375 
L 863 0 
L 184 0 
L 1544 1831 
L 300 3500 
L 978 3500 
L 1906 2253 
L 2834 3500 
L 3513 3500 
z
" transform="scale(0.015625)"/>
     </defs>
     <use xlink:href="#DejaVuSans-b"/>
     <use xlink:href="#DejaVuSans-45" transform="translate(39.015625 0)"/>
     <use xlink:href="#DejaVuSans-c" transform="translate(102.5 0)"/>
     <use xlink:href="#DejaVuSans-3" transform="translate(141.515625 0)"/>
     <use xlink:href="#DejaVuSans-2c" transform="translate(173.296875 0)"/>
     <use xlink:href="#DejaVuSans-51" transform="translate(202.796875 0)"/>
     <use xlink:href="#DejaVuSans-49" transform="translate(266.171875 0)"/>
     <use xlink:href="#DejaVuSans-52" transform="translate(301.375 0)"/>
     <use xlink:href="#DejaVuSans-55" transform="translate(362.5625 0)"/>
     <use xlink:href="#DejaVuSans-50" transform="translate(401.921875 0)"/>
     <use xlink:href="#DejaVuSans-44" transform="translate(499.328125 0)"/>
     <use xlink:href="#DejaVuSans-57" transform="translate(560.609375 0)"/>
     <use xlink:href="#DejaVuSans-4c" transform="translate(599.8125 0)"/>
     <use xlink:href="#DejaVuSans-52" transform="translate(627.59375 0)"/>
     <use xlink:href="#DejaVuSans-51" transform="translate(688.78125 0)"/>
     <use xlink:href="#DejaVuSans-10" transform="translate(752.15625 0)"/>
     <use xlink:href="#DejaVuSans-48" transform="translate(788.234375 0)"/>
     <use xlink:href="#DejaVuSans-13b1" transform="translate(849.765625 0)"/>
     <use xlink:href="#DejaVuSans-46" transform="translate(946.453125 0)"/>
     <use xlink:href="#DejaVuSans-4c" transform="translate(1001.4375 0)"/>
     <use xlink:href="#DejaVuSans-48" transform="translate(1029.21875 0)"/>
     <use xlink:href="#DejaVuSans-51" transform="translate(1090.75 0)"/>
     <use xlink:href="#DejaVuSans-46" transform="translate(1154.125 0)"/>
     <use xlink:href="#DejaVuSans-5c" transform="translate(1209.109375 0)"/>
     <use xlink:href="#DejaVuSans-3" transform="translate(1268.296875 0)"/>
     <use xlink:href="#DejaVuSans-53" transform="translate(1300.078125 0)"/>
     <use xlink:href="#DejaVuSans-55" transform="translate(1363.5625 0)"/>
     <use xlink:href="#DejaVuSans-52" transform="translate(1402.46875 0)"/>
     <use xlink:href="#DejaVuSans-5b" transform="translate(1460.578125 0)"/>
     <use xlink:href="#DejaVuSans-5c" transform="translate(1519.765625 0)"/>
    </g>
   </g>
   <g id="legend_2">
    <g id="patch_13">
     <path d="M 57.650781 258.562174 
L 180.226094 258.562174 
Q 181.926094 258.562174 181.926094 256.862174 
L 181.926094 231.61651 
Q 181.926094 229.91651 180.226094 229.91651 
L 57.650781 229.91651 
Q 55.950781 229.91651 55.950781 231.61651 
L 55.950781 256.862174 
Q 55.950781 258.562174 57.650781 258.562174 
z
" style="fill: #ffffff; opacity: 0.8; stroke: #cccccc; stroke-linejoin: miter"/>
    </g>
    <g id="line2d_103">
     <path d="M 59.350781 236.88651 
L 67.850781 236.88651 
L 76.350781 236.88651 
" style="fill: none; stroke: #2ca02c; stroke-width: 2.2; stroke-linecap: square"/>
    </g>
    <g id="text_23">
     <!-- $|\phi|/N_\gamma$ -->
     <g transform="translate(83.150781 239.86151) scale(0.085 -0.085)">
      <use xlink:href="#DejaVuSans-5f" transform="translate(0 0.578125)"/>
      <use xlink:href="#DejaVuSans-Oblique-369" transform="translate(33.691406 0.578125)"/>
      <use xlink:href="#DejaVuSans-5f" transform="translate(99.658203 0.578125)"/>
      <use xlink:href="#DejaVuSans-12" transform="translate(133.349609 0.578125)"/>
      <use xlink:href="#DejaVuSans-Oblique-31" transform="translate(167.041016 0.578125)"/>
      <use xlink:href="#DejaVuSans-Oblique-347" transform="translate(241.845703 -14.421826) scale(0.7)"/>
     </g>
    </g>
    <g id="line2d_104">
     <path d="M 59.350781 250.145181 
L 67.850781 250.145181 
L 76.350781 250.145181 
" style="fill: none; stroke-dasharray: 6.66,2.88; stroke-dashoffset: 0; stroke: #9467bd; stroke-width: 1.8"/>
    </g>
    <g id="text_24">
     <!-- signal/destructiveness -->
     <g transform="translate(83.150781 253.120181) scale(0.085 -0.085)">
      <use xlink:href="#DejaVuSans-56"/>
      <use xlink:href="#DejaVuSans-4c" transform="translate(52.09375 0)"/>
      <use xlink:href="#DejaVuSans-4a" transform="translate(79.875 0)"/>
      <use xlink:href="#DejaVuSans-51" transform="translate(143.359375 0)"/>
      <use xlink:href="#DejaVuSans-44" transform="translate(206.734375 0)"/>
      <use xlink:href="#DejaVuSans-4f" transform="translate(268.015625 0)"/>
      <use xlink:href="#DejaVuSans-12" transform="translate(295.796875 0)"/>
      <use xlink:href="#DejaVuSans-47" transform="translate(329.484375 0)"/>
      <use xlink:href="#DejaVuSans-48" transform="translate(392.96875 0)"/>
      <use xlink:href="#DejaVuSans-56" transform="translate(454.5 0)"/>
      <use xlink:href="#DejaVuSans-57" transform="translate(506.59375 0)"/>
      <use xlink:href="#DejaVuSans-55" transform="translate(545.796875 0)"/>
      <use xlink:href="#DejaVuSans-58" transform="translate(586.90625 0)"/>
      <use xlink:href="#DejaVuSans-46" transform="translate(650.28125 0)"/>
      <use xlink:href="#DejaVuSans-57" transform="translate(705.265625 0)"/>
      <use xlink:href="#DejaVuSans-4c" transform="translate(744.46875 0)"/>
      <use xlink:href="#DejaVuSans-59" transform="translate(772.25 0)"/>
      <use xlink:href="#DejaVuSans-48" transform="translate(831.4375 0)"/>
      <use xlink:href="#DejaVuSans-51" transform="translate(892.96875 0)"/>
      <use xlink:href="#DejaVuSans-48" transform="translate(956.34375 0)"/>
      <use xlink:href="#DejaVuSans-56" transform="translate(1017.875 0)"/>
      <use xlink:href="#DejaVuSans-56" transform="translate(1069.96875 0)"/>
     </g>
    </g>
   </g>
  </g>
  <g id="text_25">
   <!-- Detuning trade-off -->
   <g transform="translate(205.554057 16.698047) scale(0.125 -0.125)">
    <defs>
     <path id="DejaVuSans-13ae" d="M 4531 4863 
L 4531 4384 
L 3981 4384 
Q 3672 4384 3551 4259 
Q 3431 4134 3431 3809 
L 3431 3500 
L 4378 3500 
L 4378 3053 
L 3431 3053 
L 3431 0 
L 2853 0 
L 2853 3053 
L 1275 3053 
L 1275 0 
L 697 0 
L 697 3053 
L 147 3053 
L 147 3500 
L 697 3500 
L 697 3744 
Q 697 4328 969 4595 
Q 1241 4863 1831 4863 
L 2375 4863 
L 2375 4384 
L 1825 4384 
Q 1516 4384 1394 4259 
Q 1275 4134 1275 3809 
L 1275 3500 
L 2853 3500 
L 2853 3744 
Q 2853 4328 3125 4595 
Q 3397 4863 3988 4863 
L 4531 4863 
z
" transform="scale(0.015625)"/>
    </defs>
    <use xlink:href="#DejaVuSans-27"/>
    <use xlink:href="#DejaVuSans-48" transform="translate(77 0)"/>
    <use xlink:href="#DejaVuSans-57" transform="translate(138.53125 0)"/>
    <use xlink:href="#DejaVuSans-58" transform="translate(177.734375 0)"/>
    <use xlink:href="#DejaVuSans-51" transform="translate(241.109375 0)"/>
    <use xlink:href="#DejaVuSans-4c" transform="translate(304.484375 0)"/>
    <use xlink:href="#DejaVuSans-51" transform="translate(332.265625 0)"/>
    <use xlink:href="#DejaVuSans-4a" transform="translate(395.640625 0)"/>
    <use xlink:href="#DejaVuSans-3" transform="translate(459.125 0)"/>
    <use xlink:href="#DejaVuSans-57" transform="translate(490.90625 0)"/>
    <use xlink:href="#DejaVuSans-55" transform="translate(530.109375 0)"/>
    <use xlink:href="#DejaVuSans-44" transform="translate(571.21875 0)"/>
    <use xlink:href="#DejaVuSans-47" transform="translate(632.5 0)"/>
    <use xlink:href="#DejaVuSans-48" transform="translate(695.984375 0)"/>
    <use xlink:href="#DejaVuSans-10" transform="translate(757.515625 0)"/>
    <use xlink:href="#DejaVuSans-52" transform="translate(795.453125 0)"/>
    <use xlink:href="#DejaVuSans-13ae" transform="translate(856.640625 0)"/>
   </g>
  </g>
 </g>
 <defs>
  <clipPath id="p97fb436db7">
   <rect x="51.700781" y="40.819582" width="467.898739" height="160.228323"/>
  </clipPath>
  <clipPath id="p124843b2e7">
   <rect x="51.700781" y="225.66651" width="467.898739" height="160.228323"/>
  </clipPath>
 </defs>
</svg>
