<svg xmlns="http://www.w3.org/2000/svg" width="920" height="430" viewBox="0 0 920 430">
  <title>Camera realism</title>
  <desc>Version 1 representative / uncalibrated figure placeholder generated for v1_representative_uncalibrated.</desc>
  <rect width="100%" height="100%" fill="white" />

<text x="460" y="32" text-anchor="middle" font-family="Arial" font-size="20">Camera-level measurement realism</text>
<text x="460" y="55" text-anchor="middle" font-family="Arial" font-size="12">Noiseless binned image versus one fixed-seed noisy frame</text>
<rect x="55.00" y="85.00" width="12.07" height="12.07" fill="#000004" />
<rect x="66.88" y="85.00" width="12.07" height="12.07" fill="#000004" />
<rect x="78.75" y="85.00" width="12.07" height="12.07" fill="#000004" />
<rect x="90.62" y="85.00" width="12.07" height="12.07" fill="#000004" />
<rect x="102.50" y="85.00" width="12.07" height="12.07" fill="#000004" />
<rect x="114.38" y="85.00" width="12.07" height="12.07" fill="#000004" />
<rect x="126.25" y="85.00" width="12.07" height="12.07" fill="#000004" />
<rect x="138.12" y="85.00" width="12.07" height="12.07" fill="#000004" />
<rect x="150.00" y="85.00" width="12.07" height="12.07" fill="#000004" />
<rect x="161.88" y="85.00" width="12.07" height="12.07" fill="#000004" />
<rect x="173.75" y="85.00" width="12.07" height="12.07" fill="#000004" />
<rect x="185.62" y="85.00" width="12.07" height="12.07" fill="#000004" />
<rect x="197.50" y="85.00" width="12.07" height="12.07" fill="#000004" />
<rect x="209.38" y="85.00" width="12.07" height="12.07" fill="#000004" />
<rect x="221.25" y="85.00" width="12.07" height="12.07" fill="#000004" />
<rect x="233.12" y="85.00" width="12.07" height="12.07" fill="#000004" />
<rect x="55.00" y="96.88" width="12.07" height="12.07" fill="#000004" />
<rect x="66.88" y="96.88" width="12.07" height="12.07" fill="#000004" />
<rect x="78.75" y="96.88" width="12.07" height="12.07" fill="#000004" />
<rect x="90.62" y="96.88" width="12.07" height="12.07" fill="#000004" />
<rect x="102.50" y="96.88" width="12.07" height="12.07" fill="#000004" />
<rect x="114.38" y="96.88" width="12.07" height="12.07" fill="#000004" />
<rect x="126.25" y="96.88" width="12.07" height="12.07" fill="#000004" />
<rect x="138.12" y="96.88" width="12.07" height="12.07" fill="#000004" />
<rect x="150.00" y="96.88" width="12.07" height="12.07" fill="#000004" />
<rect x="161.88" y="96.88" width="12.07" height="12.07" fill="#000004" />
<rect x="173.75" y="96.88" width="12.07" height="12.07" fill="#000004" />
<rect x="185.62" y="96.88" width="12.07" height="12.07" fill="#000004" />
<rect x="197.50" y="96.88" width="12.07" height="12.07" fill="#000004" />
<rect x="209.38" y="96.88" width="12.07" height="12.07" fill="#000004" />
<rect x="221.25" y="96.88" width="12.07" height="12.07" fill="#000004" />
<rect x="233.12" y="96.88" width="12.07" height="12.07" fill="#000004" />
<rect x="55.00" y="108.75" width="12.07" height="12.07" fill="#000004" />
<rect x="66.88" y="108.75" width="12.07" height="12.07" fill="#000004" />
<rect x="78.75" y="108.75" width="12.07" height="12.07" fill="#000004" />
<rect x="90.62" y="108.75" width="12.07" height="12.07" fill="#000004" />
<rect x="102.50" y="108.75" width="12.07" height="12.07" fill="#000004" />
<rect x="114.38" y="108.75" width="12.07" height="12.07" fill="#000004" />
<rect x="126.25" y="108.75" width="12.07" height="12.07" fill="#000004" />
<rect x="138.12" y="108.75" width="12.07" height="12.07" fill="#000004" />
<rect x="150.00" y="108.75" width="12.07" height="12.07" fill="#000004" />
<rect x="161.88" y="108.75" width="12.07" height="12.07" fill="#000004" />
<rect x="173.75" y="108.75" width="12.07" height="12.07" fill="#000004" />
<rect x="185.62" y="108.75" width="12.07" height="12.07" fill="#000004" />
<rect x="197.50" y="108.75" width="12.07" height="12.07" fill="#000004" />
<rect x="209.38" y="108.75" width="12.07" height="12.07" fill="#000004" />
<rect x="221.25" y="108.75" width="12.07" height="12.07" fill="#000004" />
<rect x="233.12" y="108.75" width="12.07" height="12.07" fill="#000004" />
<rect x="55.00" y="120.62" width="12.07" height="12.07" fill="#000004" />
<rect x="66.88" y="120.62" width="12.07" height="12.07" fill="#000004" />
<rect x="78.75" y="120.62" width="12.07" height="12.07" fill="#000004" />
<rect x="90.62" y="120.62" width="12.07" height="12.07" fill="#000004" />
<rect x="102.50" y="120.62" width="12.07" height="12.07" fill="#000004" />
<rect x="114.38" y="120.62" width="12.07" height="12.07" fill="#000004" />
<rect x="126.25" y="120.62" width="12.07" height="12.07" fill="#010006" />
<rect x="138.12" y="120.62" width="12.07" height="12.07" fill="#05010d" />
<rect x="150.00" y="120.62" width="12.07" height="12.07" fill="#05010d" />
<rect x="161.88" y="120.62" width="12.07" height="12.07" fill="#010006" />
<rect x="173.75" y="120.62" width="12.07" height="12.07" fill="#000004" />
<rect x="185.62" y="120.62" width="12.07" height="12.07" fill="#000004" />
<rect x="197.50" y="120.62" width="12.07" height="12.07" fill="#000004" />
<rect x="209.38" y="120.62" width="12.07" height="12.07" fill="#000004" />
<rect x="221.25" y="120.62" width="12.07" height="12.07" fill="#000004" />
<rect x="233.12" y="120.62" width="12.07" height="12.07" fill="#000004" />
<rect x="55.00" y="132.50" width="12.07" height="12.07" fill="#000004" />
<rect x="66.88" y="132.50" width="12.07" height="12.07" fill="#000004" />
<rect x="78.75" y="132.50" width="12.07" height="12.07" fill="#000004" />
<rect x="90.62" y="132.50" width="12.07" height="12.07" fill="#000004" />
<rect x="102.50" y="132.50" width="12.07" height="12.07" fill="#000004" />
<rect x="114.38" y="132.50" width="12.07" height="12.07" fill="#0d031c" />
<rect x="126.25" y="132.50" width="12.07" height="12.07" fill="#2f0c5b" />
<rect x="138.12" y="132.50" width="12.07" height="12.07" fill="#4e1574" />
<rect x="150.00" y="132.50" width="12.07" height="12.07" fill="#4e1574" />
<rect x="161.88" y="132.50" width="12.07" height="12.07" fill="#2f0c5b" />
<rect x="173.75" y="132.50" width="12.07" height="12.07" fill="#0d031c" />
<rect x="185.62" y="132.50" width="12.07" height="12.07" fill="#000004" />
<rect x="197.50" y="132.50" width="12.07" height="12.07" fill="#000004" />
<rect x="209.38" y="132.50" width="12.07" height="12.07" fill="#000004" />
<rect x="221.25" y="132.50" width="12.07" height="12.07" fill="#000004" />
<rect x="233.12" y="132.50" width="12.07" height="12.07" fill="#000004" />
<rect x="55.00" y="144.38" width="12.07" height="12.07" fill="#000004" />
<rect x="66.88" y="144.38" width="12.07" height="12.07" fill="#000004" />
<rect x="78.75" y="144.38" width="12.07" height="12.07" fill="#000004" />
<rect x="90.62" y="144.38" width="12.07" height="12.07" fill="#000004" />
<rect x="102.50" y="144.38" width="12.07" height="12.07" fill="#0d031c" />
<rect x="114.38" y="144.38" width="12.07" height="12.07" fill="#4e1574" />
<rect x="126.25" y="144.38" width="12.07" height="12.07" fill="#a2317a" />
<rect x="138.12" y="144.38" width="12.07" height="12.07" fill="#d4456b" />
<rect x="150.00" y="144.38" width="12.07" height="12.07" fill="#d4456b" />
<rect x="161.88" y="144.38" width="12.07" height="12.07" fill="#a2317a" />
<rect x="173.75" y="144.38" width="12.07" height="12.07" fill="#4e1574" />
<rect x="185.62" y="144.38" width="12.07" height="12.07" fill="#0d031c" />
<rect x="197.50" y="144.38" width="12.07" height="12.07" fill="#000004" />
<rect x="209.38" y="144.38" width="12.07" height="12.07" fill="#000004" />
<rect x="221.25" y="144.38" width="12.07" height="12.07" fill="#000004" />
<rect x="233.12" y="144.38" width="12.07" height="12.07" fill="#000004" />
<rect x="55.00" y="156.25" width="12.07" height="12.07" fill="#000004" />
<rect x="66.88" y="156.25" width="12.07" height="12.07" fill="#000004" />
<rect x="78.75" y="156.25" width="12.07" height="12.07" fill="#000004" />
<rect x="90.62" y="156.25" width="12.07" height="12.07" fill="#010006" />
<rect x="102.50" y="156.25" width="12.07" height="12.07" fill="#2f0c5b" />
<rect x="114.38" y="156.25" width="12.07" height="12.07" fill="#a2317a" />
<rect x="126.25" y="156.25" width="12.07" height="12.07" fill="#ef776a" />
<rect x="138.12" y="156.25" width="12.07" height="12.07" fill="#fdb580" />
<rect x="150.00" y="156.25" width="12.07" height="12.07" fill="#fdb580" />
<rect x="161.88" y="156.25" width="12.07" height="12.07" fill="#ef776a" />
<rect x="173.75" y="156.25" width="12.07" height="12.07" fill="#a2317a" />
<rect x="185.62" y="156.25" width="12.07" height="12.07" fill="#2f0c5b" />
<rect x="197.50" y="156.25" width="12.07" height="12.07" fill="#010006" />
<rect x="209.38" y="156.25" width="12.07" height="12.07" fill="#000004" />
<rect x="221.25" y="156.25" width="12.07" height="12.07" fill="#000004" />
<rect x="233.12" y="156.25" width="12.07" height="12.07" fill="#000004" />
<rect x="55.00" y="168.12" width="12.07" height="12.07" fill="#000004" />
<rect x="66.88" y="168.12" width="12.07" height="12.07" fill="#000004" />
<rect x="78.75" y="168.12" width="12.07" height="12.07" fill="#000004" />
<rect x="90.62" y="168.12" width="12.07" height="12.07" fill="#05010d" />
<rect x="102.50" y="168.12" width="12.07" height="12.07" fill="#4e1574" />
<rect x="114.38" y="168.12" width="12.07" height="12.07" fill="#d4456b" />
<rect x="126.25" y="168.12" width="12.07" height="12.07" fill="#fdb580" />
<rect x="138.12" y="168.12" width="12.07" height="12.07" fill="#fcfdbf" />
<rect x="150.00" y="168.12" width="12.07" height="12.07" fill="#fcfdbf" />
<rect x="161.88" y="168.12" width="12.07" height="12.07" fill="#fdb580" />
<rect x="173.75" y="168.12" width="12.07" height="12.07" fill="#d4456b" />
<rect x="185.62" y="168.12" width="12.07" height="12.07" fill="#4e1574" />
<rect x="197.50" y="168.12" width="12.07" height="12.07" fill="#05010d" />
<rect x="209.38" y="168.12" width="12.07" height="12.07" fill="#000004" />
<rect x="221.25" y="168.12" width="12.07" height="12.07" fill="#000004" />
<rect x="233.12" y="168.12" width="12.07" height="12.07" fill="#000004" />
<rect x="55.00" y="180.00" width="12.07" height="12.07" fill="#000004" />
<rect x="66.88" y="180.00" width="12.07" height="12.07" fill="#000004" />
<rect x="78.75" y="180.00" width="12.07" height="12.07" fill="#000004" />
<rect x="90.62" y="180.00" width="12.07" height="12.07" fill="#05010d" />
<rect x="102.50" y="180.00" width="12.07" height="12.07" fill="#4e1574" />
<rect x="114.38" y="180.00" width="12.07" height="12.07" fill="#d4456b" />
<rect x="126.25" y="180.00" width="12.07" height="12.07" fill="#fdb580" />
<rect x="138.12" y="180.00" width="12.07" height="12.07" fill="#fcfdbf" />
<rect x="150.00" y="180.00" width="12.07" height="12.07" fill="#fcfdbf" />
<rect x="161.88" y="180.00" width="12.07" height="12.07" fill="#fdb580" />
<rect x="173.75" y="180.00" width="12.07" height="12.07" fill="#d4456b" />
<rect x="185.62" y="180.00" width="12.07" height="12.07" fill="#4e1574" />
<rect x="197.50" y="180.00" width="12.07" height="12.07" fill="#05010d" />
<rect x="209.38" y="180.00" width="12.07" height="12.07" fill="#000004" />
<rect x="221.25" y="180.00" width="12.07" height="12.07" fill="#000004" />
<rect x="233.12" y="180.00" width="12.07" height="12.07" fill="#000004" />
<rect x="55.00" y="191.88" width="12.07" height="12.07" fill="#000004" />
<rect x="66.88" y="191.88" width="12.07" height="12.07" fill="#000004" />
<rect x="78.75" y="191.88" width="12.07" height="12.07" fill="#000004" />
<rect x="90.62" y="191.88" width="12.07" height="12.07" fill="#010006" />
<rect x="102.50" y="191.88" width="12.07" height="12.07" fill="#2f0c5b" />
<rect x="114.38" y="191.88" width="12.07" height="12.07" fill="#a2317a" />
<rect x="126.25" y="191.88" width="12.07" height="12.07" fill="#ef776a" />
<rect x="138.12" y="191.88" width="12.07" height="12.07" fill="#fdb580" />
<rect x="150.00" y="191.88" width="12.07" height="12.07" fill="#fdb580" />
<rect x="161.88" y="191.88" width="12.07" height="12.07" fill="#ef776a" />
<rect x="173.75" y="191.88" width="12.07" height="12.07" fill="#a2317a" />
<rect x="185.62" y="191.88" width="12.07" height="12.07" fill="#2f0c5b" />
<rect x="197.50" y="191.88" width="12.07" height="12.07" fill="#010006" />
<rect x="209.38" y="191.88" width="12.07" height="12.07" fill="#000004" />
<rect x="221.25" y="191.88" width="12.07" height="12.07" fill="#000004" />
<rect x="233.12" y="191.88" width="12.07" height="12.07" fill="#000004" />
<rect x="55.00" y="203.75" width="12.07" height="12.07" fill="#000004" />
<rect x="66.88" y="203.75" width="12.07" height="12.07" fill="#000004" />
<rect x="78.75" y="203.75" width="12.07" height="12.07" fill="#000004" />
<rect x="90.62" y="203.75" width="12.07" height="12.07" fill="#000004" />
<rect x="102.50" y="203.75" width="12.07" height="12.07" fill="#0d031c" />
<rect x="114.38" y="203.75" width="12.07" height="12.07" fill="#4e1574" />
<rect x="126.25" y="203.75" width="12.07" height="12.07" fill="#a2317a" />
<rect x="138.12" y="203.75" width="12.07" height="12.07" fill="#d4456b" />
<rect x="150.00" y="203.75" width="12.07" height="12.07" fill="#d4456b" />
<rect x="161.88" y="203.75" width="12.07" height="12.07" fill="#a2317a" />
<rect x="173.75" y="203.75" width="12.07" height="12.07" fill="#4e1574" />
<rect x="185.62" y="203.75" width="12.07" height="12.07" fill="#0d031c" />
<rect x="197.50" y="203.75" width="12.07" height="12.07" fill="#000004" />
<rect x="209.38" y="203.75" width="12.07" height="12.07" fill="#000004" />
<rect x="221.25" y="203.75" width="12.07" height="12.07" fill="#000004" />
<rect x="233.12" y="203.75" width="12.07" height="12.07" fill="#000004" />
<rect x="55.00" y="215.62" width="12.07" height="12.07" fill="#000004" />
<rect x="66.88" y="215.62" width="12.07" height="12.07" fill="#000004" />
<rect x="78.75" y="215.62" width="12.07" height="12.07" fill="#000004" />
<rect x="90.62" y="215.62" width="12.07" height="12.07" fill="#000004" />
<rect x="102.50" y="215.62" width="12.07" height="12.07" fill="#000004" />
<rect x="114.38" y="215.62" width="12.07" height="12.07" fill="#0d031c" />
<rect x="126.25" y="215.62" width="12.07" height="12.07" fill="#2f0c5b" />
<rect x="138.12" y="215.62" width="12.07" height="12.07" fill="#4e1574" />
<rect x="150.00" y="215.62" width="12.07" height="12.07" fill="#4e1574" />
<rect x="161.88" y="215.62" width="12.07" height="12.07" fill="#2f0c5b" />
<rect x="173.75" y="215.62" width="12.07" height="12.07" fill="#0d031c" />
<rect x="185.62" y="215.62" width="12.07" height="12.07" fill="#000004" />
<rect x="197.50" y="215.62" width="12.07" height="12.07" fill="#000004" />
<rect x="209.38" y="215.62" width="12.07" height="12.07" fill="#000004" />
<rect x="221.25" y="215.62" width="12.07" height="12.07" fill="#000004" />
<rect x="233.12" y="215.62" width="12.07" height="12.07" fill="#000004" />
<rect x="55.00" y="227.50" width="12.07" height="12.07" fill="#000004" />
<rect x="66.88" y="227.50" width="12.07" height="12.07" fill="#000004" />
<rect x="78.75" y="227.50" width="12.07" height="12.07" fill="#000004" />
<rect x="90.62" y="227.50" width="12.07" height="12.07" fill="#000004" />
<rect x="102.50" y="227.50" width="12.07" height="12.07" fill="#000004" />
<rect x="114.38" y="227.50" width="12.07" height="12.07" fill="#000004" />
<rect x="126.25" y="227.50" width="12.07" height="12.07" fill="#010006" />
<rect x="138.12" y="227.50" width="12.07" height="12.07" fill="#05010d" />
<rect x="150.00" y="227.50" width="12.07" height="12.07" fill="#05010d" />
<rect x="161.88" y="227.50" width="12.07" height="12.07" fill="#010006" />
<rect x="173.75" y="227.50" width="12.07" height="12.07" fill="#000004" />
<rect x="185.62" y="227.50" width="12.07" height="12.07" fill="#000004" />
<rect x="197.50" y="227.50" width="12.07" height="12.07" fill="#000004" />
<rect x="209.38" y="227.50" width="12.07" height="12.07" fill="#000004" />
<rect x="221.25" y="227.50" width="12.07" height="12.07" fill="#000004" />
<rect x="233.12" y="227.50" width="12.07" height="12.07" fill="#000004" />
<rect x="55.00" y="239.38" width="12.07" height="12.07" fill="#000004" />
<rect x="66.88" y="239.38" width="12.07" height="12.07" fill="#000004" />
<rect x="78.75" y="239.38" width="12.07" height="12.07" fill="#000004" />
<rect x="90.62" y="239.38" width="12.07" height="12.07" fill="#000004" />
<rect x="102.50" y="239.38" width="12.07" height="12.07" fill="#000004" />
<rect x="114.38" y="239.38" width="12.07" height="12.07" fill="#000004" />
<rect x="126.25" y="239.38" width="12.07" height="12.07" fill="#000004" />
<rect x="138.12" y="239.38" width="12.07" height="12.07" fill="#000004" />
<rect x="150.00" y="239.38" width="12.07" height="12.07" fill="#000004" />
<rect x="161.88" y="239.38" width="12.07" height="12.07" fill="#000004" />
<rect x="173.75" y="239.38" width="12.07" height="12.07" fill="#000004" />
<rect x="185.62" y="239.38" width="12.07" height="12.07" fill="#000004" />
<rect x="197.50" y="239.38" width="12.07" height="12.07" fill="#000004" />
<rect x="209.38" y="239.38" width="12.07" height="12.07" fill="#000004" />
<rect x="221.25" y="239.38" width="12.07" height="12.07" fill="#000004" />
<rect x="233.12" y="239.38" width="12.07" height="12.07" fill="#000004" />
<rect x="55.00" y="251.25" width="12.07" height="12.07" fill="#000004" />
<rect x="66.88" y="251.25" width="12.07" height="12.07" fill="#000004" />
<rect x="78.75" y="251.25" width="12.07" height="12.07" fill="#000004" />
<rect x="90.62" y="251.25" width="12.07" height="12.07" fill="#000004" />
<rect x="102.50" y="251.25" width="12.07" height="12.07" fill="#000004" />
<rect x="114.38" y="251.25" width="12.07" height="12.07" fill="#000004" />
<rect x="126.25" y="251.25" width="12.07" height="12.07" fill="#000004" />
<rect x="138.12" y="251.25" width="12.07" height="12.07" fill="#000004" />
<rect x="150.00" y="251.25" width="12.07" height="12.07" fill="#000004" />
<rect x="161.88" y="251.25" width="12.07" height="12.07" fill="#000004" />
<rect x="173.75" y="251.25" width="12.07" height="12.07" fill="#000004" />
<rect x="185.62" y="251.25" width="12.07" height="12.07" fill="#000004" />
<rect x="197.50" y="251.25" width="12.07" height="12.07" fill="#000004" />
<rect x="209.38" y="251.25" width="12.07" height="12.07" fill="#000004" />
<rect x="221.25" y="251.25" width="12.07" height="12.07" fill="#000004" />
<rect x="233.12" y="251.25" width="12.07" height="12.07" fill="#000004" />
<rect x="55.00" y="263.12" width="12.07" height="12.07" fill="#000004" />
<rect x="66.88" y="263.12" width="12.07" height="12.07" fill="#000004" />
<rect x="78.75" y="263.12" width="12.07" height="12.07" fill="#000004" />
<rect x="90.62" y="263.12" width="12.07" height="12.07" fill="#000004" />
<rect x="102.50" y="263.12" width="12.07" height="12.07" fill="#000004" />
<rect x="114.38" y="263.12" width="12.07" height="12.07" fill="#000004" />
<rect x="126.25" y="263.12" width="12.07" height="12.07" fill="#000004" />
<rect x="138.12" y="263.12" width="12.07" height="12.07" fill="#000004" />
<rect x="150.00" y="263.12" width="12.07" height="12.07" fill="#000004" />
<rect x="161.88" y="263.12" width="12.07" height="12.07" fill="#000004" />
<rect x="173.75" y="263.12" width="12.07" height="12.07" fill="#000004" />
<rect x="185.62" y="263.12" width="12.07" height="12.07" fill="#000004" />
<rect x="197.50" y="263.12" width="12.07" height="12.07" fill="#000004" />
<rect x="209.38" y="263.12" width="12.07" height="12.07" fill="#000004" />
<rect x="221.25" y="263.12" width="12.07" height="12.07" fill="#000004" />
<rect x="233.12" y="263.12" width="12.07" height="12.07" fill="#000004" />
<rect x="285.00" y="85.00" width="12.07" height="12.07" fill="#441171" />
<rect x="296.88" y="85.00" width="12.07" height="12.07" fill="#230844" />
<rect x="308.75" y="85.00" width="12.07" height="12.07" fill="#e35768" />
<rect x="320.62" y="85.00" width="12.07" height="12.07" fill="#000004" />
<rect x="332.50" y="85.00" width="12.07" height="12.07" fill="#000004" />
<rect x="344.38" y="85.00" width="12.07" height="12.07" fill="#000004" />
<rect x="356.25" y="85.00" width="12.07" height="12.07" fill="#000004" />
<rect x="368.12" y="85.00" width="12.07" height="12.07" fill="#dc4868" />
<rect x="380.00" y="85.00" width="12.07" height="12.07" fill="#5b1976" />
<rect x="391.88" y="85.00" width="12.07" height="12.07" fill="#280a4e" />
<rect x="403.75" y="85.00" width="12.07" height="12.07" fill="#000004" />
<rect x="415.62" y="85.00" width="12.07" height="12.07" fill="#000004" />
<rect x="427.50" y="85.00" width="12.07" height="12.07" fill="#020009" />
<rect x="439.38" y="85.00" width="12.07" height="12.07" fill="#000004" />
<rect x="451.25" y="85.00" width="12.07" height="12.07" fill="#000004" />
<rect x="463.12" y="85.00" width="12.07" height="12.07" fill="#4c1473" />
<rect x="285.00" y="96.88" width="12.07" height="12.07" fill="#000004" />
<rect x="296.88" y="96.88" width="12.07" height="12.07" fill="#000004" />
<rect x="308.75" y="96.88" width="12.07" height="12.07" fill="#15052c" />
<rect x="320.62" y="96.88" width="12.07" height="12.07" fill="#1e073c" />
<rect x="332.50" y="96.88" width="12.07" height="12.07" fill="#b33874" />
<rect x="344.38" y="96.88" width="12.07" height="12.07" fill="#78227c" />
<rect x="356.25" y="96.88" width="12.07" height="12.07" fill="#000004" />
<rect x="368.12" y="96.88" width="12.07" height="12.07" fill="#000004" />
<rect x="380.00" y="96.88" width="12.07" height="12.07" fill="#8f2a7f" />
<rect x="391.88" y="96.88" width="12.07" height="12.07" fill="#1d073a" />
<rect x="403.75" y="96.88" width="12.07" height="12.07" fill="#140529" />
<rect x="415.62" y="96.88" width="12.07" height="12.07" fill="#130427" />
<rect x="427.50" y="96.88" width="12.07" height="12.07" fill="#000004" />
<rect x="439.38" y="96.88" width="12.07" height="12.07" fill="#e35768" />
<rect x="451.25" y="96.88" width="12.07" height="12.07" fill="#992e7d" />
<rect x="463.12" y="96.88" width="12.07" height="12.07" fill="#000004" />
<rect x="285.00" y="108.75" width="12.07" height="12.07" fill="#000004" />
<rect x="296.88" y="108.75" width="12.07" height="12.07" fill="#000004" />
<rect x="308.75" y="108.75" width="12.07" height="12.07" fill="#000004" />
<rect x="320.62" y="108.75" width="12.07" height="12.07" fill="#471272" />
<rect x="332.50" y="108.75" width="12.07" height="12.07" fill="#000004" />
<rect x="344.38" y="108.75" width="12.07" height="12.07" fill="#000004" />
<rect x="356.25" y="108.75" width="12.07" height="12.07" fill="#000004" />
<rect x="368.12" y="108.75" width="12.07" height="12.07" fill="#000004" />
<rect x="380.00" y="108.75" width="12.07" height="12.07" fill="#000004" />
<rect x="391.88" y="108.75" width="12.07" height="12.07" fill="#621b78" />
<rect x="403.75" y="108.75" width="12.07" height="12.07" fill="#7e247e" />
<rect x="415.62" y="108.75" width="12.07" height="12.07" fill="#000004" />
<rect x="427.50" y="108.75" width="12.07" height="12.07" fill="#280a4f" />
<rect x="439.38" y="108.75" width="12.07" height="12.07" fill="#000004" />
<rect x="451.25" y="108.75" width="12.07" height="12.07" fill="#000004" />
<rect x="463.12" y="108.75" width="12.07" height="12.07" fill="#110423" />
<rect x="285.00" y="120.62" width="12.07" height="12.07" fill="#000004" />
<rect x="296.88" y="120.62" width="12.07" height="12.07" fill="#180631" />
<rect x="308.75" y="120.62" width="12.07" height="12.07" fill="#000004" />
<rect x="320.62" y="120.62" width="12.07" height="12.07" fill="#180631" />
<rect x="332.50" y="120.62" width="12.07" height="12.07" fill="#000004" />
<rect x="344.38" y="120.62" width="12.07" height="12.07" fill="#2a0a52" />
<rect x="356.25" y="120.62" width="12.07" height="12.07" fill="#000004" />
<rect x="368.12" y="120.62" width="12.07" height="12.07" fill="#000004" />
<rect x="380.00" y="120.62" width="12.07" height="12.07" fill="#26094a" />
<rect x="391.88" y="120.62" width="12.07" height="12.07" fill="#240947" />
<rect x="403.75" y="120.62" width="12.07" height="12.07" fill="#000004" />
<rect x="415.62" y="120.62" width="12.07" height="12.07" fill="#000004" />
<rect x="427.50" y="120.62" width="12.07" height="12.07" fill="#000004" />
<rect x="439.38" y="120.62" width="12.07" height="12.07" fill="#000004" />
<rect x="451.25" y="120.62" width="12.07" height="12.07" fill="#000004" />
<rect x="463.12" y="120.62" width="12.07" height="12.07" fill="#000004" />
<rect x="285.00" y="132.50" width="12.07" height="12.07" fill="#000004" />
<rect x="296.88" y="132.50" width="12.07" height="12.07" fill="#651c78" />
<rect x="308.75" y="132.50" width="12.07" height="12.07" fill="#120426" />
<rect x="320.62" y="132.50" width="12.07" height="12.07" fill="#350d66" />
<rect x="332.50" y="132.50" width="12.07" height="12.07" fill="#000004" />
<rect x="344.38" y="132.50" width="12.07" height="12.07" fill="#9f307b" />
<rect x="356.25" y="132.50" width="12.07" height="12.07" fill="#0d031c" />
<rect x="368.12" y="132.50" width="12.07" height="12.07" fill="#000004" />
<rect x="380.00" y="132.50" width="12.07" height="12.07" fill="#06010f" />
<rect x="391.88" y="132.50" width="12.07" height="12.07" fill="#14052a" />
<rect x="403.75" y="132.50" width="12.07" height="12.07" fill="#0d031d" />
<rect x="415.62" y="132.50" width="12.07" height="12.07" fill="#e45b69" />
<rect x="427.50" y="132.50" width="12.07" height="12.07" fill="#000004" />
<rect x="439.38" y="132.50" width="12.07" height="12.07" fill="#000004" />
<rect x="451.25" y="132.50" width="12.07" height="12.07" fill="#2d0b57" />
<rect x="463.12" y="132.50" width="12.07" height="12.07" fill="#8b2880" />
<rect x="285.00" y="144.38" width="12.07" height="12.07" fill="#000004" />
<rect x="296.88" y="144.38" width="12.07" height="12.07" fill="#000004" />
<rect x="308.75" y="144.38" width="12.07" height="12.07" fill="#110423" />
<rect x="320.62" y="144.38" width="12.07" height="12.07" fill="#ac3577" />
<rect x="332.50" y="144.38" width="12.07" height="12.07" fill="#000004" />
<rect x="344.38" y="144.38" width="12.07" height="12.07" fill="#000004" />
<rect x="356.25" y="144.38" width="12.07" height="12.07" fill="#eb6d6a" />
<rect x="368.12" y="144.38" width="12.07" height="12.07" fill="#631b78" />
<rect x="380.00" y="144.38" width="12.07" height="12.07" fill="#fcfdbf" />
<rect x="391.88" y="144.38" width="12.07" height="12.07" fill="#380e6b" />
<rect x="403.75" y="144.38" width="12.07" height="12.07" fill="#e55e69" />
<rect x="415.62" y="144.38" width="12.07" height="12.07" fill="#000004" />
<rect x="427.50" y="144.38" width="12.07" height="12.07" fill="#000004" />
<rect x="439.38" y="144.38" width="12.07" height="12.07" fill="#6b1e7a" />
<rect x="451.25" y="144.38" width="12.07" height="12.07" fill="#000004" />
<rect x="463.12" y="144.38" width="12.07" height="12.07" fill="#000004" />
<rect x="285.00" y="156.25" width="12.07" height="12.07" fill="#000004" />
<rect x="296.88" y="156.25" width="12.07" height="12.07" fill="#000004" />
<rect x="308.75" y="156.25" width="12.07" height="12.07" fill="#000004" />
<rect x="320.62" y="156.25" width="12.07" height="12.07" fill="#1e073b" />
<rect x="332.50" y="156.25" width="12.07" height="12.07" fill="#c03d70" />
<rect x="344.38" y="156.25" width="12.07" height="12.07" fill="#370e69" />
<rect x="356.25" y="156.25" width="12.07" height="12.07" fill="#fdc08a" />
<rect x="368.12" y="156.25" width="12.07" height="12.07" fill="#e05068" />
<rect x="380.00" y="156.25" width="12.07" height="12.07" fill="#03000a" />
<rect x="391.88" y="156.25" width="12.07" height="12.07" fill="#d6466a" />
<rect x="403.75" y="156.25" width="12.07" height="12.07" fill="#230945" />
<rect x="415.62" y="156.25" width="12.07" height="12.07" fill="#ca416e" />
<rect x="427.50" y="156.25" width="12.07" height="12.07" fill="#000004" />
<rect x="439.38" y="156.25" width="12.07" height="12.07" fill="#4c1473" />
<rect x="451.25" y="156.25" width="12.07" height="12.07" fill="#340d64" />
<rect x="463.12" y="156.25" width="12.07" height="12.07" fill="#000004" />
<rect x="285.00" y="168.12" width="12.07" height="12.07" fill="#000004" />
<rect x="296.88" y="168.12" width="12.07" height="12.07" fill="#521675" />
<rect x="308.75" y="168.12" width="12.07" height="12.07" fill="#000004" />
<rect x="320.62" y="168.12" width="12.07" height="12.07" fill="#010007" />
<rect x="332.50" y="168.12" width="12.07" height="12.07" fill="#651c78" />
<rect x="344.38" y="168.12" width="12.07" height="12.07" fill="#fcfdbf" />
<rect x="356.25" y="168.12" width="12.07" height="12.07" fill="#fda875" />
<rect x="368.12" y="168.12" width="12.07" height="12.07" fill="#5c1977" />
<rect x="380.00" y="168.12" width="12.07" height="12.07" fill="#fcfdbf" />
<rect x="391.88" y="168.12" width="12.07" height="12.07" fill="#f88f6c" />
<rect x="403.75" y="168.12" width="12.07" height="12.07" fill="#8e2a80" />
<rect x="415.62" y="168.12" width="12.07" height="12.07" fill="#e96769" />
<rect x="427.50" y="168.12" width="12.07" height="12.07" fill="#000004" />
<rect x="439.38" y="168.12" width="12.07" height="12.07" fill="#05010e" />
<rect x="451.25" y="168.12" width="12.07" height="12.07" fill="#000004" />
<rect x="463.12" y="168.12" width="12.07" height="12.07" fill="#000004" />
<rect x="285.00" y="180.00" width="12.07" height="12.07" fill="#7a237d" />
<rect x="296.88" y="180.00" width="12.07" height="12.07" fill="#c8406e" />
<rect x="308.75" y="180.00" width="12.07" height="12.07" fill="#0c031a" />
<rect x="320.62" y="180.00" width="12.07" height="12.07" fill="#80257e" />
<rect x="332.50" y="180.00" width="12.07" height="12.07" fill="#a2317a" />
<rect x="344.38" y="180.00" width="12.07" height="12.07" fill="#ad3676" />
<rect x="356.25" y="180.00" width="12.07" height="12.07" fill="#e35868" />
<rect x="368.12" y="180.00" width="12.07" height="12.07" fill="#d6466a" />
<rect x="380.00" y="180.00" width="12.07" height="12.07" fill="#fcfdbf" />
<rect x="391.88" y="180.00" width="12.07" height="12.07" fill="#fcfdbf" />
<rect x="403.75" y="180.00" width="12.07" height="12.07" fill="#fcfdbf" />
<rect x="415.62" y="180.00" width="12.07" height="12.07" fill="#691d79" />
<rect x="427.50" y="180.00" width="12.07" height="12.07" fill="#000004" />
<rect x="439.38" y="180.00" width="12.07" height="12.07" fill="#06010f" />
<rect x="451.25" y="180.00" width="12.07" height="12.07" fill="#000004" />
<rect x="463.12" y="180.00" width="12.07" height="12.07" fill="#902a7f" />
<rect x="285.00" y="191.88" width="12.07" height="12.07" fill="#481372" />
<rect x="296.88" y="191.88" width="12.07" height="12.07" fill="#000004" />
<rect x="308.75" y="191.88" width="12.07" height="12.07" fill="#16052c" />
<rect x="320.62" y="191.88" width="12.07" height="12.07" fill="#000004" />
<rect x="332.50" y="191.88" width="12.07" height="12.07" fill="#8d2980" />
<rect x="344.38" y="191.88" width="12.07" height="12.07" fill="#1f083e" />
<rect x="356.25" y="191.88" width="12.07" height="12.07" fill="#f68b6b" />
<rect x="368.12" y="191.88" width="12.07" height="12.07" fill="#f88f6c" />
<rect x="380.00" y="191.88" width="12.07" height="12.07" fill="#fcfdbf" />
<rect x="391.88" y="191.88" width="12.07" height="12.07" fill="#fcfdbf" />
<rect x="403.75" y="191.88" width="12.07" height="12.07" fill="#fcfdbf" />
<rect x="415.62" y="191.88" width="12.07" height="12.07" fill="#230844" />
<rect x="427.50" y="191.88" width="12.07" height="12.07" fill="#4b1473" />
<rect x="439.38" y="191.88" width="12.07" height="12.07" fill="#000004" />
<rect x="451.25" y="191.88" width="12.07" height="12.07" fill="#000004" />
<rect x="463.12" y="191.88" width="12.07" height="12.07" fill="#000004" />
<rect x="285.00" y="203.75" width="12.07" height="12.07" fill="#000004" />
<rect x="296.88" y="203.75" width="12.07" height="12.07" fill="#17062f" />
<rect x="308.75" y="203.75" width="12.07" height="12.07" fill="#000004" />
<rect x="320.62" y="203.75" width="12.07" height="12.07" fill="#000004" />
<rect x="332.50" y="203.75" width="12.07" height="12.07" fill="#280a4e" />
<rect x="344.38" y="203.75" width="12.07" height="12.07" fill="#fcfdbf" />
<rect x="356.25" y="203.75" width="12.07" height="12.07" fill="#f17c6b" />
<rect x="368.12" y="203.75" width="12.07" height="12.07" fill="#fdcd95" />
<rect x="380.00" y="203.75" width="12.07" height="12.07" fill="#f4846b" />
<rect x="391.88" y="203.75" width="12.07" height="12.07" fill="#c23e70" />
<rect x="403.75" y="203.75" width="12.07" height="12.07" fill="#85267f" />
<rect x="415.62" y="203.75" width="12.07" height="12.07" fill="#290a50" />
<rect x="427.50" y="203.75" width="12.07" height="12.07" fill="#390e6d" />
<rect x="439.38" y="203.75" width="12.07" height="12.07" fill="#000004" />
<rect x="451.25" y="203.75" width="12.07" height="12.07" fill="#000004" />
<rect x="463.12" y="203.75" width="12.07" height="12.07" fill="#390e6d" />
<rect x="285.00" y="215.62" width="12.07" height="12.07" fill="#320c60" />
<rect x="296.88" y="215.62" width="12.07" height="12.07" fill="#7d247e" />
<rect x="308.75" y="215.62" width="12.07" height="12.07" fill="#000004" />
<rect x="320.62" y="215.62" width="12.07" height="12.07" fill="#000004" />
<rect x="332.50" y="215.62" width="12.07" height="12.07" fill="#e45968" />
<rect x="344.38" y="215.62" width="12.07" height="12.07" fill="#1e073c" />
<rect x="356.25" y="215.62" width="12.07" height="12.07" fill="#000004" />
<rect x="368.12" y="215.62" width="12.07" height="12.07" fill="#8e2a80" />
<rect x="380.00" y="215.62" width="12.07" height="12.07" fill="#c43f6f" />
<rect x="391.88" y="215.62" width="12.07" height="12.07" fill="#000004" />
<rect x="403.75" y="215.62" width="12.07" height="12.07" fill="#4a1373" />
<rect x="415.62" y="215.62" width="12.07" height="12.07" fill="#2b0a53" />
<rect x="427.50" y="215.62" width="12.07" height="12.07" fill="#000004" />
<rect x="439.38" y="215.62" width="12.07" height="12.07" fill="#f17d6b" />
<rect x="451.25" y="215.62" width="12.07" height="12.07" fill="#000004" />
<rect x="463.12" y="215.62" width="12.07" height="12.07" fill="#000004" />
<rect x="285.00" y="227.50" width="12.07" height="12.07" fill="#5f1a77" />
<rect x="296.88" y="227.50" width="12.07" height="12.07" fill="#1b0635" />
<rect x="308.75" y="227.50" width="12.07" height="12.07" fill="#000004" />
<rect x="320.62" y="227.50" width="12.07" height="12.07" fill="#bc3b72" />
<rect x="332.50" y="227.50" width="12.07" height="12.07" fill="#000004" />
<rect x="344.38" y="227.50" width="12.07" height="12.07" fill="#000004" />
<rect x="356.25" y="227.50" width="12.07" height="12.07" fill="#000004" />
<rect x="368.12" y="227.50" width="12.07" height="12.07" fill="#000004" />
<rect x="380.00" y="227.50" width="12.07" height="12.07" fill="#451272" />
<rect x="391.88" y="227.50" width="12.07" height="12.07" fill="#000004" />
<rect x="403.75" y="227.50" width="12.07" height="12.07" fill="#000004" />
<rect x="415.62" y="227.50" width="12.07" height="12.07" fill="#441272" />
<rect x="427.50" y="227.50" width="12.07" height="12.07" fill="#000004" />
<rect x="439.38" y="227.50" width="12.07" height="12.07" fill="#000004" />
<rect x="451.25" y="227.50" width="12.07" height="12.07" fill="#000004" />
<rect x="463.12" y="227.50" width="12.07" height="12.07" fill="#000004" />
<rect x="285.00" y="239.38" width="12.07" height="12.07" fill="#000004" />
<rect x="296.88" y="239.38" width="12.07" height="12.07" fill="#000004" />
<rect x="308.75" y="239.38" width="12.07" height="12.07" fill="#000004" />
<rect x="320.62" y="239.38" width="12.07" height="12.07" fill="#000004" />
<rect x="332.50" y="239.38" width="12.07" height="12.07" fill="#491373" />
<rect x="344.38" y="239.38" width="12.07" height="12.07" fill="#000004" />
<rect x="356.25" y="239.38" width="12.07" height="12.07" fill="#000004" />
<rect x="368.12" y="239.38" width="12.07" height="12.07" fill="#a63379" />
<rect x="380.00" y="239.38" width="12.07" height="12.07" fill="#da4769" />
<rect x="391.88" y="239.38" width="12.07" height="12.07" fill="#000004" />
<rect x="403.75" y="239.38" width="12.07" height="12.07" fill="#78227c" />
<rect x="415.62" y="239.38" width="12.07" height="12.07" fill="#000004" />
<rect x="427.50" y="239.38" width="12.07" height="12.07" fill="#411171" />
<rect x="439.38" y="239.38" width="12.07" height="12.07" fill="#86277f" />
<rect x="451.25" y="239.38" width="12.07" height="12.07" fill="#000004" />
<rect x="463.12" y="239.38" width="12.07" height="12.07" fill="#000004" />
<rect x="285.00" y="251.25" width="12.07" height="12.07" fill="#000004" />
<rect x="296.88" y="251.25" width="12.07" height="12.07" fill="#000004" />
<rect x="308.75" y="251.25" width="12.07" height="12.07" fill="#000004" />
<rect x="320.62" y="251.25" width="12.07" height="12.07" fill="#20083f" />
<rect x="332.50" y="251.25" width="12.07" height="12.07" fill="#000004" />
<rect x="344.38" y="251.25" width="12.07" height="12.07" fill="#000004" />
<rect x="356.25" y="251.25" width="12.07" height="12.07" fill="#000004" />
<rect x="368.12" y="251.25" width="12.07" height="12.07" fill="#000004" />
<rect x="380.00" y="251.25" width="12.07" height="12.07" fill="#df4d68" />
<rect x="391.88" y="251.25" width="12.07" height="12.07" fill="#230844" />
<rect x="403.75" y="251.25" width="12.07" height="12.07" fill="#020008" />
<rect x="415.62" y="251.25" width="12.07" height="12.07" fill="#401071" />
<rect x="427.50" y="251.25" width="12.07" height="12.07" fill="#230944" />
<rect x="439.38" y="251.25" width="12.07" height="12.07" fill="#000004" />
<rect x="451.25" y="251.25" width="12.07" height="12.07" fill="#000004" />
<rect x="463.12" y="251.25" width="12.07" height="12.07" fill="#651c78" />
<rect x="285.00" y="263.12" width="12.07" height="12.07" fill="#83267f" />
<rect x="296.88" y="263.12" width="12.07" height="12.07" fill="#000004" />
<rect x="308.75" y="263.12" width="12.07" height="12.07" fill="#000004" />
<rect x="320.62" y="263.12" width="12.07" height="12.07" fill="#3b0f70" />
<rect x="332.50" y="263.12" width="12.07" height="12.07" fill="#000004" />
<rect x="344.38" y="263.12" width="12.07" height="12.07" fill="#000004" />
<rect x="356.25" y="263.12" width="12.07" height="12.07" fill="#000004" />
<rect x="368.12" y="263.12" width="12.07" height="12.07" fill="#2b0a53" />
<rect x="380.00" y="263.12" width="12.07" height="12.07" fill="#000004" />
<rect x="391.88" y="263.12" width="12.07" height="12.07" fill="#000004" />
<rect x="403.75" y="263.12" width="12.07" height="12.07" fill="#16052c" />
<rect x="415.62" y="263.12" width="12.07" height="12.07" fill="#010006" />
<rect x="427.50" y="263.12" width="12.07" height="12.07" fill="#571876" />
<rect x="439.38" y="263.12" width="12.07" height="12.07" fill="#26094a" />
<rect x="451.25" y="263.12" width="12.07" height="12.07" fill="#000004" />
<rect x="463.12" y="263.12" width="12.07" height="12.07" fill="#411171" />
<rect x="55" y="85" width="190" height="190" fill="none" stroke="#222" />
<rect x="285" y="85" width="190" height="190" fill="none" stroke="#222" />
<text x="150" y="302" text-anchor="middle" font-family="Arial" font-size="13">Noiseless camera image</text>
<text x="380" y="302" text-anchor="middle" font-family="Arial" font-size="13">Noisy camera image</text>
<line x1="550" y1="285" x2="860" y2="285" stroke="black" />
<line x1="550" y1="95" x2="550" y2="285" stroke="black" />
<polyline points="550.00,285.00 570.67,284.99 591.33,284.97 612.00,281.58 632.67,238.05 653.33,175.57 674.00,123.74 694.67,95.00 715.33,95.00 736.00,123.74 756.67,175.57 777.33,238.05 798.00,281.58 818.67,284.97 839.33,284.99 860.00,285.00" fill="none" stroke="#1f77b4" stroke-width="2.4" />
<polyline points="550.00,223.46 570.67,201.50 591.33,259.83 612.00,221.80 632.67,212.23 653.33,209.01 674.00,191.28 694.67,197.42 715.33,134.42 736.00,117.89 756.67,95.00 777.33,228.45 798.00,285.00 818.67,262.35 839.33,272.04 860.00,217.12" fill="none" stroke="#d62728" stroke-width="1.8" />
<text x="705" y="322" text-anchor="middle" font-family="Arial" font-size="13">camera pixel</text>
</svg>
