<svg xmlns="http://www.w3.org/2000/svg" width="960" height="360" viewBox="0 0 960 360">
  <title>Closed-loop calibration architecture</title>
  <desc>Version 1 representative / uncalibrated figure placeholder generated for v1_representative_uncalibrated.</desc>
  <rect width="100%" height="100%" fill="white" />

<defs><marker id="arrow" markerWidth="8" markerHeight="8" refX="7" refY="4" orient="auto"><path d="M0,0 L8,4 L0,8 Z" fill="#333" /></marker></defs>
<text x="480" y="34" text-anchor="middle" font-family="Arial" font-size="20">Closed-loop calibration architecture</text>
<text x="480" y="58" text-anchor="middle" font-family="Arial" font-size="12">Version 1 representative / uncalibrated planning schematic</text>
<rect x="42" y="120" width="130" height="78" rx="7" fill="#f7fbff" stroke="#2d5c88" stroke-width="1.5" />
<text x="107" y="144" text-anchor="middle" font-family="Arial" font-size="12">Notebook-equivalent</text>
<text x="107" y="160" text-anchor="middle" font-family="Arial" font-size="12">physical model</text>
<rect x="210" y="120" width="130" height="78" rx="7" fill="#f7fbff" stroke="#2d5c88" stroke-width="1.5" />
<text x="275" y="144" text-anchor="middle" font-family="Arial" font-size="12">Design decision</text>
<text x="275" y="160" text-anchor="middle" font-family="Arial" font-size="12">Δ, power, exposure,</text>
<text x="275" y="176" text-anchor="middle" font-family="Arial" font-size="12">frame number</text>
<rect x="400" y="120" width="130" height="78" rx="7" fill="#f7fbff" stroke="#2d5c88" stroke-width="1.5" />
<text x="465" y="144" text-anchor="middle" font-family="Arial" font-size="12">Faraday imaging</text>
<text x="465" y="160" text-anchor="middle" font-family="Arial" font-size="12">experiment</text>
<rect x="570" y="120" width="130" height="78" rx="7" fill="#f7fbff" stroke="#2d5c88" stroke-width="1.5" />
<text x="635" y="144" text-anchor="middle" font-family="Arial" font-size="12">Absorption / RAI</text>
<text x="635" y="160" text-anchor="middle" font-family="Arial" font-size="12">feedback</text>
<rect x="730" y="120" width="130" height="78" rx="7" fill="#f7fbff" stroke="#2d5c88" stroke-width="1.5" />
<text x="795" y="144" text-anchor="middle" font-family="Arial" font-size="12">Calibration</text>
<text x="795" y="160" text-anchor="middle" font-family="Arial" font-size="12">OD, density,</text>
<text x="795" y="176" text-anchor="middle" font-family="Arial" font-size="12">kappa_F</text>
<rect x="830" y="250" width="130" height="78" rx="7" fill="#f7fbff" stroke="#2d5c88" stroke-width="1.5" />
<text x="895" y="274" text-anchor="middle" font-family="Arial" font-size="12">Updated</text>
<text x="895" y="290" text-anchor="middle" font-family="Arial" font-size="12">optimisation</text>
<line x1="172" y1="159" x2="210" y2="159" stroke="#333" stroke-width="1.6" marker-end="url(#arrow)" />
<line x1="340" y1="159" x2="400" y2="159" stroke="#333" stroke-width="1.6" marker-end="url(#arrow)" />
<line x1="530" y1="159" x2="570" y2="159" stroke="#333" stroke-width="1.6" marker-end="url(#arrow)" />
<line x1="700" y1="159" x2="730" y2="159" stroke="#333" stroke-width="1.6" marker-end="url(#arrow)" />
<line x1="795" y1="198" x2="860" y2="250" stroke="#333" stroke-width="1.6" marker-end="url(#arrow)" />
<line x1="830" y1="289" x2="107" y2="198" stroke="#333" stroke-width="1.6" marker-end="url(#arrow)" />
<text x="480" y="330" text-anchor="middle" font-family="Arial" font-size="12">The simulator is a calibration-aware optimisation loop, not a one-way predictor.</text>
</svg>
