<svg xmlns="http://www.w3.org/2000/svg" width="980" height="470" viewBox="0 0 980 470">
  <title>Imaging-mode centre lineouts</title>
  <desc>Version 1 representative / uncalibrated figure placeholder generated for v1_representative_uncalibrated.</desc>
  <rect width="100%" height="100%" fill="white" />

<text x="490" y="32" text-anchor="middle" font-family="Arial" font-size="20">PCI / DGI / Faraday centre-line comparison</text>
<text x="490" y="55" text-anchor="middle" font-family="Arial" font-size="12">Normalised image lineouts; Version 1 representative / uncalibrated</text>
<line x1="95" y1="382" x2="830" y2="382" stroke="black" />
<line x1="95" y1="92" x2="95" y2="382" stroke="black" />
<polyline points="95.00,381.32 102.74,381.38 110.47,381.45 118.21,381.46 125.95,381.42 133.68,381.37 141.42,381.36 149.16,381.42 156.89,381.48 164.63,381.45 172.37,381.33 180.11,381.24 187.84,381.29 195.58,381.45 203.32,381.55 211.05,381.42 218.79,381.17 226.53,381.15 234.26,381.57 242.00,382.00 249.74,381.23 257.47,377.74 265.21,370.54 272.95,359.76 280.68,346.52 288.42,332.13 296.16,317.40 303.89,302.40 311.63,286.91 319.37,270.93 327.11,254.88 334.84,239.26 342.58,224.24 350.32,209.68 358.05,195.40 365.79,181.57 373.53,168.55 381.26,156.59 389.00,145.65 396.74,135.48 404.47,126.05 412.21,117.62 419.95,110.53 427.68,104.86 435.42,100.31 443.16,96.56 450.89,93.66 458.63,92.00 466.37,92.00 474.11,93.66 481.84,96.56 489.58,100.31 497.32,104.86 505.05,110.53 512.79,117.62 520.53,126.05 528.26,135.48 536.00,145.65 543.74,156.59 551.47,168.55 559.21,181.57 566.95,195.40 574.68,209.68 582.42,224.24 590.16,239.26 597.89,254.88 605.63,270.93 613.37,286.91 621.11,302.40 628.84,317.40 636.58,332.13 644.32,346.52 652.05,359.76 659.79,370.54 667.53,377.74 675.26,381.23 683.00,382.00 690.74,381.57 698.47,381.15 706.21,381.17 713.95,381.42 721.68,381.55 729.42,381.45 737.16,381.29 744.89,381.24 752.63,381.33 760.37,381.45 768.11,381.48 775.84,381.42 783.58,381.36 791.32,381.37 799.05,381.42 806.79,381.46 814.53,381.45 822.26,381.38 830.00,381.32" fill="none" stroke="#1f77b4" stroke-width="2.0" />
<line x1="660" y1="112" x2="702" y2="112" stroke="#1f77b4" stroke-width="2.5" />
<text x="710" y="116" font-family="Arial" font-size="12">PCI intensity</text>
<polyline points="95.00,382.00 102.74,382.00 110.47,382.00 118.21,382.00 125.95,382.00 133.68,382.00 141.42,382.00 149.16,382.00 156.89,382.00 164.63,382.00 172.37,382.00 180.11,382.00 187.84,382.00 195.58,382.00 203.32,382.00 211.05,382.00 218.79,382.00 226.53,382.00 234.26,382.00 242.00,382.00 249.74,382.00 257.47,381.95 265.21,381.56 272.95,380.26 280.68,377.50 288.42,373.05 296.16,366.96 303.89,359.18 311.63,349.49 319.37,337.76 327.11,324.22 334.84,309.37 342.58,293.56 350.32,276.81 358.05,259.05 365.79,240.59 373.53,222.09 381.26,204.17 389.00,186.97 396.74,170.34 404.47,154.32 412.21,139.55 419.95,126.80 427.68,116.37 435.42,107.87 443.16,100.77 450.89,95.20 458.63,92.00 466.37,92.00 474.11,95.20 481.84,100.77 489.58,107.87 497.32,116.37 505.05,126.80 512.79,139.55 520.53,154.32 528.26,170.34 536.00,186.97 543.74,204.17 551.47,222.09 559.21,240.59 566.95,259.05 574.68,276.81 582.42,293.56 590.16,309.37 597.89,324.22 605.63,337.76 613.37,349.49 621.11,359.18 628.84,366.96 636.58,373.05 644.32,377.50 652.05,380.26 659.79,381.56 667.53,381.95 675.26,382.00 683.00,382.00 690.74,382.00 698.47,382.00 706.21,382.00 713.95,382.00 721.68,382.00 729.42,382.00 737.16,382.00 744.89,382.00 752.63,382.00 760.37,382.00 768.11,382.00 775.84,382.00 783.58,382.00 791.32,382.00 799.05,382.00 806.79,382.00 814.53,382.00 822.26,382.00 830.00,382.00" fill="none" stroke="#ff7f0e" stroke-width="2.0" />
<line x1="660" y1="134" x2="702" y2="134" stroke="#ff7f0e" stroke-width="2.5" />
<text x="710" y="138" font-family="Arial" font-size="12">DGI intensity</text>
<polyline points="95.00,382.00 102.74,382.00 110.47,382.00 118.21,382.00 125.95,382.00 133.68,382.00 141.42,382.00 149.16,382.00 156.89,382.00 164.63,382.00 172.37,382.00 180.11,382.00 187.84,382.00 195.58,382.00 203.32,382.00 211.05,382.00 218.79,382.00 226.53,382.00 234.26,382.00 242.00,382.00 249.74,382.00 257.47,381.95 265.21,381.56 272.95,380.26 280.68,377.49 288.42,373.04 296.16,366.94 303.89,359.15 311.63,349.45 319.37,337.70 327.11,324.15 334.84,309.29 342.58,293.47 350.32,276.71 358.05,258.95 365.79,240.48 373.53,221.98 381.26,204.06 389.00,186.87 396.74,170.25 404.47,154.25 412.21,139.48 419.95,126.75 427.68,116.33 435.42,107.83 443.16,100.74 450.89,95.19 458.63,92.00 466.37,92.00 474.11,95.19 481.84,100.74 489.58,107.83 497.32,116.33 505.05,126.75 512.79,139.48 520.53,154.25 528.26,170.25 536.00,186.87 543.74,204.06 551.47,221.98 559.21,240.48 566.95,258.95 574.68,276.71 582.42,293.47 590.16,309.29 597.89,324.15 605.63,337.70 613.37,349.45 621.11,359.15 628.84,366.94 636.58,373.04 644.32,377.49 652.05,380.26 659.79,381.56 667.53,381.95 675.26,382.00 683.00,382.00 690.74,382.00 698.47,382.00 706.21,382.00 713.95,382.00 721.68,382.00 729.42,382.00 737.16,382.00 744.89,382.00 752.63,382.00 760.37,382.00 768.11,382.00 775.84,382.00 783.58,382.00 791.32,382.00 799.05,382.00 806.79,382.00 814.53,382.00 822.26,382.00 830.00,382.00" fill="none" stroke="#2ca02c" stroke-width="2.0" />
<line x1="660" y1="156" x2="702" y2="156" stroke="#2ca02c" stroke-width="2.5" />
<text x="710" y="160" font-family="Arial" font-size="12">Faraday dark field</text>
<polyline points="95.00,381.29 102.74,381.35 110.47,381.42 118.21,381.44 125.95,381.40 133.68,381.34 141.42,381.33 149.16,381.40 156.89,381.46 164.63,381.43 172.37,381.31 180.11,381.21 187.84,381.26 195.58,381.43 203.32,381.53 211.05,381.40 218.79,381.14 226.53,381.11 234.26,381.55 242.00,382.00 249.74,381.20 257.47,377.56 265.21,370.07 272.95,358.88 280.68,345.18 288.42,330.36 296.16,315.25 303.89,299.93 311.63,284.17 319.37,268.00 327.11,251.83 334.84,236.16 342.58,221.17 350.32,206.69 358.05,192.56 365.79,178.93 373.53,166.14 381.26,154.45 389.00,143.78 396.74,133.90 404.47,124.77 412.21,116.62 419.95,109.79 427.68,104.33 435.42,99.96 443.16,96.37 450.89,93.58 458.63,92.00 466.37,92.00 474.11,93.58 481.84,96.37 489.58,99.96 497.32,104.33 505.05,109.79 512.79,116.62 520.53,124.77 528.26,133.90 536.00,143.78 543.74,154.45 551.47,166.14 559.21,178.93 566.95,192.56 574.68,206.69 582.42,221.17 590.16,236.16 597.89,251.83 605.63,268.00 613.37,284.17 621.11,299.93 628.84,315.25 636.58,330.36 644.32,345.18 652.05,358.88 659.79,370.07 667.53,377.56 675.26,381.20 683.00,382.00 690.74,381.55 698.47,381.11 706.21,381.14 713.95,381.40 721.68,381.53 729.42,381.43 737.16,381.26 744.89,381.21 752.63,381.31 760.37,381.43 768.11,381.46 775.84,381.40 783.58,381.33 791.32,381.34 799.05,381.40 806.79,381.44 814.53,381.42 822.26,381.35 830.00,381.29" fill="none" stroke="#9467bd" stroke-width="2.0" />
<line x1="660" y1="178" x2="702" y2="178" stroke="#9467bd" stroke-width="2.5" />
<text x="710" y="182" font-family="Arial" font-size="12">Faraday dual-port S</text>
<text x="490" y="435" text-anchor="middle" font-family="Arial" font-size="13">position (um)</text>
<text x="38" y="237" text-anchor="middle" font-family="Arial" font-size="13" transform="rotate(-90 38 237)">normalised centre-line signal</text>
</svg>
