<svg xmlns="http://www.w3.org/2000/svg" width="940" height="460" viewBox="0 0 940 460">
  <title>Deterministic multi-shot evolution</title>
  <desc>Version 1 representative / uncalibrated figure placeholder generated for v1_representative_uncalibrated.</desc>
  <rect width="100%" height="100%" fill="white" />

<text x="470" y="32" text-anchor="middle" font-family="Arial" font-size="20">Deterministic multi-shot evolution</text>
<text x="470" y="55" text-anchor="middle" font-family="Arial" font-size="12">Representative sequence bookkeeping; no noisy frame rendering</text>
<line x1="90" y1="370" x2="810" y2="370" stroke="black" />
<line x1="90" y1="90" x2="90" y2="370" stroke="black" />
<polyline points="90.00,90.00 101.25,95.20 112.50,100.37 123.75,105.51 135.00,110.63 146.25,115.71 157.50,120.76 168.75,125.79 180.00,130.79 191.25,135.76 202.50,140.70 213.75,145.62 225.00,150.50 236.25,155.36 247.50,160.19 258.75,165.00 270.00,169.77 281.25,174.52 292.50,179.25 303.75,183.94 315.00,188.61 326.25,193.26 337.50,197.88 348.75,202.47 360.00,207.03 371.25,211.57 382.50,216.09 393.75,220.58 405.00,225.04 416.25,229.48 427.50,233.89 438.75,238.28 450.00,242.64 461.25,246.98 472.50,251.30 483.75,255.59 495.00,259.85 506.25,264.09 517.50,268.31 528.75,272.50 540.00,276.68 551.25,280.82 562.50,284.95 573.75,289.05 585.00,293.12 596.25,297.18 607.50,301.21 618.75,305.22 630.00,309.20 641.25,313.17 652.50,317.11 663.75,321.02 675.00,324.92 686.25,328.80 697.50,332.65 708.75,336.48 720.00,340.29 731.25,344.08 742.50,347.84 753.75,351.59 765.00,355.31 776.25,359.02 787.50,362.70 798.75,366.36 810.00,370.00" fill="none" stroke="#1f77b4" stroke-width="2.4" />
<line x1="590" y1="106" x2="632" y2="106" stroke="#1f77b4" stroke-width="2.5" />
<text x="640" y="110" font-family="Arial" font-size="12">condensate fraction</text>
<polyline points="90.00,370.00 101.25,364.80 112.50,359.63 123.75,354.49 135.00,349.37 146.25,344.29 157.50,339.24 168.75,334.21 180.00,329.21 191.25,324.24 202.50,319.30 213.75,314.38 225.00,309.50 236.25,304.64 247.50,299.81 258.75,295.00 270.00,290.23 281.25,285.48 292.50,280.75 303.75,276.06 315.00,271.39 326.25,266.74 337.50,262.12 348.75,257.53 360.00,252.97 371.25,248.43 382.50,243.91 393.75,239.42 405.00,234.96 416.25,230.52 427.50,226.11 438.75,221.72 450.00,217.36 461.25,213.02 472.50,208.70 483.75,204.41 495.00,200.15 506.25,195.91 517.50,191.69 528.75,187.50 540.00,183.32 551.25,179.18 562.50,175.05 573.75,170.95 585.00,166.88 596.25,162.82 607.50,158.79 618.75,154.78 630.00,150.80 641.25,146.83 652.50,142.89 663.75,138.98 675.00,135.08 686.25,131.20 697.50,127.35 708.75,123.52 720.00,119.71 731.25,115.92 742.50,112.16 753.75,108.41 765.00,104.69 776.25,100.98 787.50,97.30 798.75,93.64 810.00,90.00" fill="none" stroke="#d62728" stroke-width="2.4" />
<line x1="590" y1="128" x2="632" y2="128" stroke="#d62728" stroke-width="2.5" />
<text x="640" y="132" font-family="Arial" font-size="12">loss fraction</text>
<polyline points="90.00,370.00 101.25,350.21 112.50,335.15 123.75,322.56 135.00,311.56 146.25,301.71 157.50,292.72 168.75,284.43 180.00,276.70 191.25,269.46 202.50,262.63 213.75,256.16 225.00,250.01 236.25,244.14 247.50,238.52 258.75,233.14 270.00,227.96 281.25,222.98 292.50,218.17 303.75,213.54 315.00,209.05 326.25,204.71 337.50,200.50 348.75,196.42 360.00,192.45 371.25,188.60 382.50,184.85 393.75,181.21 405.00,177.66 416.25,174.20 427.50,170.82 438.75,167.53 450.00,164.32 461.25,161.18 472.50,158.12 483.75,155.13 495.00,152.20 506.25,149.34 517.50,146.53 528.75,143.79 540.00,141.11 551.25,138.48 562.50,135.90 573.75,133.38 585.00,130.91 596.25,128.48 607.50,126.11 618.75,123.78 630.00,121.49 641.25,119.24 652.50,117.04 663.75,114.88 675.00,112.76 686.25,110.67 697.50,108.62 708.75,106.61 720.00,104.64 731.25,102.70 742.50,100.79 753.75,98.91 765.00,97.07 776.25,95.26 787.50,93.48 798.75,91.72 810.00,90.00" fill="none" stroke="#2ca02c" stroke-width="2.4" />
<line x1="590" y1="150" x2="632" y2="150" stroke="#2ca02c" stroke-width="2.5" />
<text x="640" y="154" font-family="Arial" font-size="12">normalised accumulated SNR</text>
<text x="470" y="420" text-anchor="middle" font-family="Arial" font-size="13">frame number</text>
<text x="35" y="230" text-anchor="middle" font-family="Arial" font-size="13" transform="rotate(-90 35 230)">fraction / normalised value</text>
</svg>
