<svg xmlns="http://www.w3.org/2000/svg" width="1000" height="500" viewBox="0 0 1000 500">
  <title>Faraday single-variable optimisation summary</title>
  <desc>Version 1 representative / uncalibrated figure placeholder generated for v1_representative_uncalibrated.</desc>
  <rect width="100%" height="100%" fill="white" />

<text x="500" y="32" text-anchor="middle" font-family="Arial" font-size="20">Faraday single-variable optimisation summary</text>
<text x="500" y="55" text-anchor="middle" font-family="Arial" font-size="12">Metric: signal_per_scattered_photon; Version 1 representative / uncalibrated</text>
<line x1="70" y1="362" x2="315" y2="362" stroke="black" />
<line x1="70" y1="102" x2="70" y2="362" stroke="black" />
<polyline points="70.00,362.00 97.22,333.11 124.44,304.22 151.67,275.33 178.89,246.44 206.11,217.56 260.56,159.78 315.00,102.00" fill="none" stroke="#2ca02c" stroke-width="2.2" />
<circle cx="315.00" cy="102.00" r="4" fill="#d62728" />
<text x="192.50" y="395" text-anchor="middle" font-family="Arial" font-size="12">detuning (GHz)</text>
<text x="192.50" y="86" text-anchor="middle" font-family="Arial" font-size="13">detuning</text>
<line x1="365" y1="362" x2="610" y2="362" stroke="black" />
<line x1="365" y1="102" x2="365" y2="362" stroke="black" />
<polyline points="365.00,102.00 400.00,250.57 435.00,300.10 470.00,324.86 505.00,339.71 540.00,349.62 610.00,362.00" fill="none" stroke="#2ca02c" stroke-width="2.2" />
<circle cx="365.00" cy="102.00" r="4" fill="#d62728" />
<text x="487.50" y="395" text-anchor="middle" font-family="Arial" font-size="12">probe power (mW)</text>
<text x="487.50" y="86" text-anchor="middle" font-family="Arial" font-size="13">intensity</text>
<line x1="660" y1="362" x2="905" y2="362" stroke="black" />
<line x1="660" y1="102" x2="660" y2="362" stroke="black" />
<polyline points="660.00,102.00 687.22,246.44 714.44,294.59 741.67,318.67 796.11,342.74 850.56,354.78 905.00,362.00" fill="none" stroke="#2ca02c" stroke-width="2.2" />
<circle cx="660.00" cy="102.00" r="4" fill="#d62728" />
<text x="782.50" y="395" text-anchor="middle" font-family="Arial" font-size="12">exposure (us)</text>
<text x="782.50" y="86" text-anchor="middle" font-family="Arial" font-size="13">exposure</text>
<text x="500" y="455" text-anchor="middle" font-family="Arial" font-size="12">Each panel is a separate one-dimensional sweep; this is not a 2D/3D optimisation.</text>
</svg>
