<svg xmlns="http://www.w3.org/2000/svg" width="900" height="430" viewBox="0 0 900 430">
  <title>Thomas-Fermi profile lineouts</title>
  <desc>Version 1 representative / uncalibrated figure placeholder generated for v1_representative_uncalibrated.</desc>
  <rect width="100%" height="100%" fill="white" />

<text x="450" y="32" text-anchor="middle" font-family="Arial" font-size="20">Representative cloud profile lineouts</text>
<text x="450" y="55" text-anchor="middle" font-family="Arial" font-size="12">Version 1 representative / uncalibrated Thomas-Fermi object</text>
<line x1="100" y1="347" x2="800" y2="347" stroke="black" />
<line x1="100" y1="92" x2="100" y2="347" stroke="black" />
<polyline points="100.00,347.00 107.37,347.00 114.74,347.00 122.11,347.00 129.47,347.00 136.84,347.00 144.21,347.00 151.58,347.00 158.95,347.00 166.32,347.00 173.68,347.00 181.05,347.00 188.42,347.00 195.79,347.00 203.16,347.00 210.53,347.00 217.89,347.00 225.26,347.00 232.63,347.00 240.00,347.00 247.37,347.00 254.74,344.44 262.11,336.78 269.47,326.70 276.84,315.08 284.21,302.41 291.58,289.03 298.95,275.22 306.32,261.17 313.68,247.08 321.05,233.09 328.42,219.32 335.79,205.89 343.16,192.91 350.53,180.45 357.89,168.59 365.26,157.41 372.63,146.96 380.00,137.30 387.37,128.48 394.74,120.53 402.11,113.51 409.47,107.43 416.84,102.32 424.21,98.21 431.58,95.11 438.95,93.04 446.32,92.00 453.68,92.00 461.05,93.04 468.42,95.11 475.79,98.21 483.16,102.32 490.53,107.43 497.89,113.51 505.26,120.53 512.63,128.48 520.00,137.30 527.37,146.96 534.74,157.41 542.11,168.59 549.47,180.45 556.84,192.91 564.21,205.89 571.58,219.32 578.95,233.09 586.32,247.08 593.68,261.17 601.05,275.22 608.42,289.03 615.79,302.41 623.16,315.08 630.53,326.70 637.89,336.78 645.26,344.44 652.63,347.00 660.00,347.00 667.37,347.00 674.74,347.00 682.11,347.00 689.47,347.00 696.84,347.00 704.21,347.00 711.58,347.00 718.95,347.00 726.32,347.00 733.68,347.00 741.05,347.00 748.42,347.00 755.79,347.00 763.16,347.00 770.53,347.00 777.89,347.00 785.26,347.00 792.63,347.00 800.00,347.00" fill="none" stroke="#1f77b4" stroke-width="2.4" />
<polyline points="100.00,347.00 107.37,347.00 114.74,347.00 122.11,347.00 129.47,347.00 136.84,347.00 144.21,347.00 151.58,347.00 158.95,347.00 166.32,347.00 173.68,347.00 181.05,347.00 188.42,347.00 195.79,347.00 203.16,347.00 210.53,347.00 217.89,347.00 225.26,347.00 232.63,347.00 240.00,347.00 247.37,347.00 254.74,344.44 262.11,336.78 269.47,326.70 276.84,315.08 284.21,302.41 291.58,289.03 298.95,275.22 306.32,261.17 313.68,247.08 321.05,233.09 328.42,219.32 335.79,205.89 343.16,192.91 350.53,180.45 357.89,168.59 365.26,157.41 372.63,146.96 380.00,137.30 387.37,128.48 394.74,120.53 402.11,113.51 409.47,107.43 416.84,102.32 424.21,98.21 431.58,95.11 438.95,93.04 446.32,92.00 453.68,92.00 461.05,93.04 468.42,95.11 475.79,98.21 483.16,102.32 490.53,107.43 497.89,113.51 505.26,120.53 512.63,128.48 520.00,137.30 527.37,146.96 534.74,157.41 542.11,168.59 549.47,180.45 556.84,192.91 564.21,205.89 571.58,219.32 578.95,233.09 586.32,247.08 593.68,261.17 601.05,275.22 608.42,289.03 615.79,302.41 623.16,315.08 630.53,326.70 637.89,336.78 645.26,344.44 652.63,347.00 660.00,347.00 667.37,347.00 674.74,347.00 682.11,347.00 689.47,347.00 696.84,347.00 704.21,347.00 711.58,347.00 718.95,347.00 726.32,347.00 733.68,347.00 741.05,347.00 748.42,347.00 755.79,347.00 763.16,347.00 770.53,347.00 777.89,347.00 785.26,347.00 792.63,347.00 800.00,347.00" fill="none" stroke="#ff7f0e" stroke-width="2.0" />
<line x1="610" y1="112" x2="652" y2="112" stroke="#1f77b4" stroke-width="2.5" />
<text x="660" y="116" font-family="Arial" font-size="12">x centre line</text>
<line x1="610" y1="134" x2="652" y2="134" stroke="#ff7f0e" stroke-width="2.5" />
<text x="660" y="138" font-family="Arial" font-size="12">y centre line</text>
<text x="450" y="390" text-anchor="middle" font-family="Arial" font-size="13">position (um)</text>
<text x="38" y="220" text-anchor="middle" font-family="Arial" font-size="13" transform="rotate(-90 38 220)">normalised column density</text>
</svg>
